<mxfile host="app.diagrams.net" modified="2023-06-09T21:05:36.073Z" agent="Mozilla/5.0 (Windows NT 10.0; Win64; x64) AppleWebKit/537.36 (KHTML, like Gecko) Chrome/114.0.0.0 Safari/537.36 Edg/114.0.1823.41" etag="c2cii2BFZKAVpq-Lo7Dw" version="21.3.8" type="device" pages="3">
  <diagram id="C5RBs43oDa-KdzZeNtuy" name="Data Model">
    <mxGraphModel dx="4700" dy="824" grid="1" gridSize="10" guides="1" tooltips="1" connect="1" arrows="1" fold="1" page="1" pageScale="1" pageWidth="827" pageHeight="1169" math="0" shadow="0">
      <root>
        <mxCell id="WIyWlLk6GJQsqaUBKTNV-0" />
        <mxCell id="WIyWlLk6GJQsqaUBKTNV-1" parent="WIyWlLk6GJQsqaUBKTNV-0" />
        <mxCell id="6Wl_LvFZBxU5VlWJ0OVk-82" value="" style="edgeStyle=segmentEdgeStyle;endArrow=none;html=1;curved=0;rounded=0;sourcePerimeterSpacing=0;targetPerimeterSpacing=0;endFill=0;fontSize=9;strokeWidth=3;" parent="WIyWlLk6GJQsqaUBKTNV-1" source="6Wl_LvFZBxU5VlWJ0OVk-3" target="6Wl_LvFZBxU5VlWJ0OVk-75" edge="1">
          <mxGeometry width="100" relative="1" as="geometry">
            <mxPoint x="-2510" y="26.000000000000114" as="sourcePoint" />
            <mxPoint x="-2324" y="26.000000000000114" as="targetPoint" />
            <Array as="points">
              <mxPoint x="-2850" y="50" />
              <mxPoint x="-2850" y="50" />
            </Array>
          </mxGeometry>
        </mxCell>
        <mxCell id="6Wl_LvFZBxU5VlWJ0OVk-108" value="" style="edgeStyle=segmentEdgeStyle;endArrow=none;html=1;curved=0;rounded=0;endSize=8;startSize=8;sourcePerimeterSpacing=0;targetPerimeterSpacing=0;endFill=0;fontSize=9;strokeWidth=3;" parent="WIyWlLk6GJQsqaUBKTNV-1" source="6Wl_LvFZBxU5VlWJ0OVk-93" edge="1" target="6Wl_LvFZBxU5VlWJ0OVk-99">
          <mxGeometry width="100" relative="1" as="geometry">
            <mxPoint x="-2559.9836065573772" y="630.06" as="sourcePoint" />
            <mxPoint x="-2500.88" y="714" as="targetPoint" />
            <Array as="points">
              <mxPoint x="-2830" y="481" />
              <mxPoint x="-2830" y="700" />
            </Array>
          </mxGeometry>
        </mxCell>
        <mxCell id="6Wl_LvFZBxU5VlWJ0OVk-119" value="" style="edgeStyle=segmentEdgeStyle;endArrow=none;html=1;curved=0;rounded=0;endSize=8;startSize=8;sourcePerimeterSpacing=0;targetPerimeterSpacing=0;endFill=0;fontSize=9;strokeWidth=3;" parent="WIyWlLk6GJQsqaUBKTNV-1" target="6Wl_LvFZBxU5VlWJ0OVk-93" edge="1" source="6Wl_LvFZBxU5VlWJ0OVk-3">
          <mxGeometry width="100" relative="1" as="geometry">
            <mxPoint x="-2798" y="416" as="sourcePoint" />
            <mxPoint x="-2750" y="400" as="targetPoint" />
            <Array as="points">
              <mxPoint x="-2790" y="410" />
              <mxPoint x="-2790" y="410" />
            </Array>
          </mxGeometry>
        </mxCell>
        <mxCell id="6Wl_LvFZBxU5VlWJ0OVk-136" value="StorageElementBase" style="swimlane;fontStyle=1;align=center;verticalAlign=top;childLayout=stackLayout;horizontal=1;startSize=26;horizontalStack=0;resizeParent=1;resizeLast=0;collapsible=1;marginBottom=0;rounded=0;shadow=0;strokeWidth=1;fontSize=9;" parent="WIyWlLk6GJQsqaUBKTNV-1" vertex="1">
          <mxGeometry x="-2850" y="756" width="185" height="134" as="geometry">
            <mxRectangle x="130" y="380" width="160" height="26" as="alternateBounds" />
          </mxGeometry>
        </mxCell>
        <mxCell id="6Wl_LvFZBxU5VlWJ0OVk-137" value="# positionName : string= string.Empty" style="text;align=left;verticalAlign=top;spacingLeft=4;spacingRight=4;overflow=hidden;rotatable=0;points=[[0,0.5],[1,0.5]];portConstraint=eastwest;fontSize=9;" parent="6Wl_LvFZBxU5VlWJ0OVk-136" vertex="1">
          <mxGeometry y="26" width="185" height="20" as="geometry" />
        </mxCell>
        <mxCell id="6Wl_LvFZBxU5VlWJ0OVk-138" value="# editMode : bool = false" style="text;align=left;verticalAlign=top;spacingLeft=4;spacingRight=4;overflow=hidden;rotatable=0;points=[[0,0.5],[1,0.5]];portConstraint=eastwest;rounded=0;shadow=0;html=0;fontSize=9;" parent="6Wl_LvFZBxU5VlWJ0OVk-136" vertex="1">
          <mxGeometry y="46" width="185" height="20" as="geometry" />
        </mxCell>
        <mxCell id="6Wl_LvFZBxU5VlWJ0OVk-139" value="# showDetails : bool = false" style="text;align=left;verticalAlign=top;spacingLeft=4;spacingRight=4;overflow=hidden;rotatable=0;points=[[0,0.5],[1,0.5]];portConstraint=eastwest;rounded=0;shadow=0;html=0;fontSize=9;" parent="6Wl_LvFZBxU5VlWJ0OVk-136" vertex="1">
          <mxGeometry y="66" width="185" height="20" as="geometry" />
        </mxCell>
        <mxCell id="6Wl_LvFZBxU5VlWJ0OVk-140" value="# inTransit : bool = false" style="text;align=left;verticalAlign=top;spacingLeft=4;spacingRight=4;overflow=hidden;rotatable=0;points=[[0,0.5],[1,0.5]];portConstraint=eastwest;rounded=0;shadow=0;html=0;fontSize=9;" parent="6Wl_LvFZBxU5VlWJ0OVk-136" vertex="1">
          <mxGeometry y="86" width="185" height="20" as="geometry" />
        </mxCell>
        <mxCell id="6Wl_LvFZBxU5VlWJ0OVk-144" value="" style="line;html=1;strokeWidth=1;align=left;verticalAlign=middle;spacingTop=-1;spacingLeft=3;spacingRight=3;rotatable=0;labelPosition=right;points=[];portConstraint=eastwest;fontSize=9;" parent="6Wl_LvFZBxU5VlWJ0OVk-136" vertex="1">
          <mxGeometry y="106" width="185" height="8" as="geometry" />
        </mxCell>
        <mxCell id="6Wl_LvFZBxU5VlWJ0OVk-145" value="zzgl. Properties und Events / Eventhandler" style="text;align=left;verticalAlign=top;spacingLeft=4;spacingRight=4;overflow=hidden;rotatable=0;points=[[0,0.5],[1,0.5]];portConstraint=eastwest;fontSize=9;" parent="6Wl_LvFZBxU5VlWJ0OVk-136" vertex="1">
          <mxGeometry y="114" width="185" height="20" as="geometry" />
        </mxCell>
        <mxCell id="6Wl_LvFZBxU5VlWJ0OVk-146" style="edgeStyle=orthogonalEdgeStyle;rounded=0;orthogonalLoop=1;jettySize=auto;html=1;exitX=1;exitY=0.5;exitDx=0;exitDy=0;fontSize=9;" parent="6Wl_LvFZBxU5VlWJ0OVk-136" source="6Wl_LvFZBxU5VlWJ0OVk-138" target="6Wl_LvFZBxU5VlWJ0OVk-138" edge="1">
          <mxGeometry relative="1" as="geometry" />
        </mxCell>
        <mxCell id="6Wl_LvFZBxU5VlWJ0OVk-162" style="edgeStyle=orthogonalEdgeStyle;rounded=0;orthogonalLoop=1;jettySize=auto;html=1;endArrow=block;endFill=0;fontSize=9;" parent="WIyWlLk6GJQsqaUBKTNV-1" source="6Wl_LvFZBxU5VlWJ0OVk-153" target="6Wl_LvFZBxU5VlWJ0OVk-83" edge="1">
          <mxGeometry relative="1" as="geometry">
            <Array as="points">
              <mxPoint x="-2553" y="233" />
            </Array>
          </mxGeometry>
        </mxCell>
        <mxCell id="6Wl_LvFZBxU5VlWJ0OVk-163" style="edgeStyle=orthogonalEdgeStyle;rounded=0;orthogonalLoop=1;jettySize=auto;html=1;endArrow=block;endFill=0;fontSize=9;" parent="WIyWlLk6GJQsqaUBKTNV-1" source="6Wl_LvFZBxU5VlWJ0OVk-153" target="6Wl_LvFZBxU5VlWJ0OVk-93" edge="1">
          <mxGeometry relative="1" as="geometry">
            <Array as="points">
              <mxPoint x="-2690" y="342" />
            </Array>
          </mxGeometry>
        </mxCell>
        <mxCell id="6Wl_LvFZBxU5VlWJ0OVk-164" style="edgeStyle=orthogonalEdgeStyle;rounded=0;orthogonalLoop=1;jettySize=auto;html=1;endArrow=block;endFill=0;fontSize=9;" parent="WIyWlLk6GJQsqaUBKTNV-1" target="6Wl_LvFZBxU5VlWJ0OVk-120" edge="1">
          <mxGeometry relative="1" as="geometry">
            <Array as="points">
              <mxPoint x="-2500" y="367" />
              <mxPoint x="-2500" y="1150" />
              <mxPoint x="-3065" y="1150" />
            </Array>
            <mxPoint x="-2493" y="366.57000000000016" as="sourcePoint" />
            <mxPoint x="-2978" y="1150" as="targetPoint" />
          </mxGeometry>
        </mxCell>
        <mxCell id="6Wl_LvFZBxU5VlWJ0OVk-153" value="INotifyPropertyChanged" style="swimlane;fontStyle=1;align=center;verticalAlign=top;childLayout=stackLayout;horizontal=1;startSize=26;horizontalStack=0;resizeParent=1;resizeLast=0;collapsible=1;marginBottom=0;rounded=0;shadow=0;strokeWidth=1;fontSize=9;" parent="WIyWlLk6GJQsqaUBKTNV-1" vertex="1">
          <mxGeometry x="-2621" y="316.63" width="134" height="49.94" as="geometry">
            <mxRectangle x="130" y="380" width="160" height="26" as="alternateBounds" />
          </mxGeometry>
        </mxCell>
        <mxCell id="6Wl_LvFZBxU5VlWJ0OVk-171" style="edgeStyle=orthogonalEdgeStyle;rounded=0;orthogonalLoop=1;jettySize=auto;html=1;endArrow=block;endFill=0;fontSize=9;" parent="WIyWlLk6GJQsqaUBKTNV-1" source="6Wl_LvFZBxU5VlWJ0OVk-153" target="6Wl_LvFZBxU5VlWJ0OVk-136" edge="1">
          <mxGeometry relative="1" as="geometry">
            <mxPoint x="-1405.88" y="370" as="sourcePoint" />
            <mxPoint x="-1665.88" y="891" as="targetPoint" />
            <Array as="points">
              <mxPoint x="-2500" y="780" />
            </Array>
          </mxGeometry>
        </mxCell>
        <mxCell id="6Wl_LvFZBxU5VlWJ0OVk-241" style="edgeStyle=orthogonalEdgeStyle;rounded=0;orthogonalLoop=1;jettySize=auto;html=1;endArrow=none;endFill=0;fontSize=9;strokeWidth=3;" parent="WIyWlLk6GJQsqaUBKTNV-1" source="6Wl_LvFZBxU5VlWJ0OVk-172" target="6Wl_LvFZBxU5VlWJ0OVk-223" edge="1">
          <mxGeometry relative="1" as="geometry">
            <Array as="points">
              <mxPoint x="-2650" y="1000" />
              <mxPoint x="-2650" y="1000" />
            </Array>
            <mxPoint x="-2241.88" y="995" as="sourcePoint" />
            <mxPoint x="-2160.38" y="995" as="targetPoint" />
          </mxGeometry>
        </mxCell>
        <mxCell id="6Wl_LvFZBxU5VlWJ0OVk-185" style="edgeStyle=orthogonalEdgeStyle;rounded=0;orthogonalLoop=1;jettySize=auto;html=1;endArrow=block;endFill=0;fontSize=9;" parent="WIyWlLk6GJQsqaUBKTNV-1" source="6Wl_LvFZBxU5VlWJ0OVk-136" target="6Wl_LvFZBxU5VlWJ0OVk-172" edge="1">
          <mxGeometry relative="1" as="geometry">
            <mxPoint x="-1229.38" y="327" as="sourcePoint" />
            <mxPoint x="-1189.38" y="858" as="targetPoint" />
            <Array as="points">
              <mxPoint x="-2740" y="900" />
              <mxPoint x="-2740" y="900" />
            </Array>
          </mxGeometry>
        </mxCell>
        <mxCell id="6Wl_LvFZBxU5VlWJ0OVk-186" value="" style="edgeStyle=segmentEdgeStyle;endArrow=none;html=1;curved=0;rounded=0;endSize=8;startSize=8;sourcePerimeterSpacing=0;targetPerimeterSpacing=0;endFill=0;fontSize=9;strokeWidth=3;" parent="WIyWlLk6GJQsqaUBKTNV-1" edge="1" target="6Wl_LvFZBxU5VlWJ0OVk-172">
          <mxGeometry width="100" relative="1" as="geometry">
            <mxPoint x="-2975" y="1004" as="sourcePoint" />
            <mxPoint x="-2830" y="1004" as="targetPoint" />
            <Array as="points" />
          </mxGeometry>
        </mxCell>
        <mxCell id="6Wl_LvFZBxU5VlWJ0OVk-190" style="edgeStyle=orthogonalEdgeStyle;rounded=0;orthogonalLoop=1;jettySize=auto;html=1;endArrow=block;endFill=0;fontSize=9;" parent="WIyWlLk6GJQsqaUBKTNV-1" source="6Wl_LvFZBxU5VlWJ0OVk-189" target="6Wl_LvFZBxU5VlWJ0OVk-3" edge="1">
          <mxGeometry relative="1" as="geometry">
            <Array as="points">
              <mxPoint x="-3205" y="120" />
            </Array>
          </mxGeometry>
        </mxCell>
        <mxCell id="6Wl_LvFZBxU5VlWJ0OVk-189" value="System.Windows.Window" style="swimlane;fontStyle=1;align=center;verticalAlign=top;childLayout=stackLayout;horizontal=1;startSize=20;horizontalStack=0;resizeParent=1;resizeLast=0;collapsible=1;marginBottom=0;rounded=0;shadow=0;strokeWidth=1;fontSize=9;" parent="WIyWlLk6GJQsqaUBKTNV-1" vertex="1">
          <mxGeometry x="-3280" y="39.129999999999995" width="150" height="30" as="geometry">
            <mxRectangle x="-3308" width="160" height="26" as="alternateBounds" />
          </mxGeometry>
        </mxCell>
        <mxCell id="6Wl_LvFZBxU5VlWJ0OVk-192" style="edgeStyle=orthogonalEdgeStyle;rounded=0;orthogonalLoop=1;jettySize=auto;html=1;endArrow=block;endFill=0;fontSize=9;strokeWidth=1;" parent="WIyWlLk6GJQsqaUBKTNV-1" source="6Wl_LvFZBxU5VlWJ0OVk-191" target="zkfFHV4jXpPFQw0GAbJ--6" edge="1">
          <mxGeometry relative="1" as="geometry">
            <mxPoint x="-3070" y="110.17500000000007" as="sourcePoint" />
            <mxPoint x="-3147" y="657.0000000000002" as="targetPoint" />
            <Array as="points">
              <mxPoint x="-3223" y="260" />
            </Array>
          </mxGeometry>
        </mxCell>
        <mxCell id="6Wl_LvFZBxU5VlWJ0OVk-191" value="System.Windows.Application" style="swimlane;fontStyle=1;align=center;verticalAlign=top;childLayout=stackLayout;horizontal=1;startSize=26;horizontalStack=0;resizeParent=1;resizeLast=0;collapsible=1;marginBottom=0;rounded=0;shadow=0;strokeWidth=1;fontSize=9;" parent="WIyWlLk6GJQsqaUBKTNV-1" vertex="1">
          <mxGeometry x="-3280" y="159.99999999999994" width="150" height="49.94" as="geometry">
            <mxRectangle x="130" y="380" width="160" height="26" as="alternateBounds" />
          </mxGeometry>
        </mxCell>
        <mxCell id="6Wl_LvFZBxU5VlWJ0OVk-236" style="edgeStyle=orthogonalEdgeStyle;rounded=0;orthogonalLoop=1;jettySize=auto;html=1;endArrow=block;endFill=0;fontSize=9;" parent="WIyWlLk6GJQsqaUBKTNV-1" source="6Wl_LvFZBxU5VlWJ0OVk-136" target="6Wl_LvFZBxU5VlWJ0OVk-223" edge="1">
          <mxGeometry relative="1" as="geometry">
            <mxPoint x="-1659.38" y="797" as="sourcePoint" />
            <mxPoint x="-1959.38" y="914" as="targetPoint" />
            <Array as="points">
              <mxPoint x="-2620" y="840" />
            </Array>
          </mxGeometry>
        </mxCell>
        <mxCell id="6Wl_LvFZBxU5VlWJ0OVk-237" style="edgeStyle=orthogonalEdgeStyle;rounded=0;orthogonalLoop=1;jettySize=auto;html=1;endArrow=none;endFill=0;fontSize=9;strokeWidth=3;" parent="WIyWlLk6GJQsqaUBKTNV-1" edge="1" target="6Wl_LvFZBxU5VlWJ0OVk-223" source="6Wl_LvFZBxU5VlWJ0OVk-93">
          <mxGeometry relative="1" as="geometry">
            <mxPoint x="-2410.88" y="415" as="sourcePoint" />
            <Array as="points">
              <mxPoint x="-2540" y="415" />
              <mxPoint x="-2540" y="910" />
              <mxPoint x="-2590" y="910" />
            </Array>
            <mxPoint x="-2008.3799999999999" y="991" as="targetPoint" />
          </mxGeometry>
        </mxCell>
        <mxCell id="6Wl_LvFZBxU5VlWJ0OVk-244" style="edgeStyle=orthogonalEdgeStyle;rounded=0;orthogonalLoop=1;jettySize=auto;html=1;endArrow=none;endFill=0;fontSize=9;strokeWidth=3;" parent="WIyWlLk6GJQsqaUBKTNV-1" source="zkfFHV4jXpPFQw0GAbJ--6" target="6Wl_LvFZBxU5VlWJ0OVk-3" edge="1">
          <mxGeometry relative="1" as="geometry">
            <mxPoint x="-3060" y="104" as="sourcePoint" />
            <mxPoint x="-3221" y="148" as="targetPoint" />
            <Array as="points">
              <mxPoint x="-3060" y="270" />
              <mxPoint x="-3060" y="270" />
            </Array>
          </mxGeometry>
        </mxCell>
        <mxCell id="0" value="" style="group" parent="WIyWlLk6GJQsqaUBKTNV-1" vertex="1" connectable="0">
          <mxGeometry x="-3109" y="10" width="319" height="1146" as="geometry" />
        </mxCell>
        <mxCell id="6Wl_LvFZBxU5VlWJ0OVk-3" value="Mainwindow" style="swimlane;fontStyle=1;align=center;verticalAlign=top;childLayout=stackLayout;horizontal=1;startSize=26;horizontalStack=0;resizeParent=1;resizeLast=0;collapsible=1;marginBottom=0;rounded=0;shadow=0;strokeWidth=2;fontSize=9;" parent="0" vertex="1">
          <mxGeometry x="1" width="230" height="940" as="geometry">
            <mxRectangle x="-367" width="160" height="26" as="alternateBounds" />
          </mxGeometry>
        </mxCell>
        <mxCell id="6Wl_LvFZBxU5VlWJ0OVk-4" value="- mainTimer : System.Timers.Timer" style="text;align=left;verticalAlign=top;spacingLeft=4;spacingRight=4;overflow=hidden;rotatable=0;points=[[0,0.5],[1,0.5]];portConstraint=eastwest;fontSize=9;" parent="6Wl_LvFZBxU5VlWJ0OVk-3" vertex="1">
          <mxGeometry y="26" width="230" height="20" as="geometry" />
        </mxCell>
        <mxCell id="6Wl_LvFZBxU5VlWJ0OVk-15" value="+ productList : Dictionary&lt;int, string&gt; = null" style="text;align=left;verticalAlign=top;spacingLeft=4;spacingRight=4;overflow=hidden;rotatable=0;points=[[0,0.5],[1,0.5]];portConstraint=eastwest;rounded=0;shadow=0;html=0;fontSize=9;" parent="6Wl_LvFZBxU5VlWJ0OVk-3" vertex="1">
          <mxGeometry y="46" width="230" height="20" as="geometry" />
        </mxCell>
        <mxCell id="6Wl_LvFZBxU5VlWJ0OVk-19" value="+ lastCupIdRead : ushort = 0" style="text;align=left;verticalAlign=top;spacingLeft=4;spacingRight=4;overflow=hidden;rotatable=0;points=[[0,0.5],[1,0.5]];portConstraint=eastwest;rounded=0;shadow=0;html=0;fontSize=9;" parent="6Wl_LvFZBxU5VlWJ0OVk-3" vertex="1">
          <mxGeometry y="66" width="230" height="20" as="geometry" />
        </mxCell>
        <mxCell id="6Wl_LvFZBxU5VlWJ0OVk-27" value="+ imgWorking : BitmapImage" style="text;align=left;verticalAlign=top;spacingLeft=4;spacingRight=4;overflow=hidden;rotatable=0;points=[[0,0.5],[1,0.5]];portConstraint=eastwest;rounded=0;shadow=0;html=0;fontSize=9;" parent="6Wl_LvFZBxU5VlWJ0OVk-3" vertex="1">
          <mxGeometry y="86" width="230" height="20" as="geometry" />
        </mxCell>
        <mxCell id="6Wl_LvFZBxU5VlWJ0OVk-26" value="+ imgDisconnected : BitmapImage" style="text;align=left;verticalAlign=top;spacingLeft=4;spacingRight=4;overflow=hidden;rotatable=0;points=[[0,0.5],[1,0.5]];portConstraint=eastwest;rounded=0;shadow=0;html=0;fontSize=9;" parent="6Wl_LvFZBxU5VlWJ0OVk-3" vertex="1">
          <mxGeometry y="106" width="230" height="20" as="geometry" />
        </mxCell>
        <mxCell id="6Wl_LvFZBxU5VlWJ0OVk-28" value="+ imgConnected : BitmapImage" style="text;align=left;verticalAlign=top;spacingLeft=4;spacingRight=4;overflow=hidden;rotatable=0;points=[[0,0.5],[1,0.5]];portConstraint=eastwest;rounded=0;shadow=0;html=0;fontSize=9;" parent="6Wl_LvFZBxU5VlWJ0OVk-3" vertex="1">
          <mxGeometry y="126" width="230" height="20" as="geometry" />
        </mxCell>
        <mxCell id="6Wl_LvFZBxU5VlWJ0OVk-6" value="" style="line;html=1;strokeWidth=1;align=left;verticalAlign=middle;spacingTop=-1;spacingLeft=3;spacingRight=3;rotatable=0;labelPosition=right;points=[];portConstraint=eastwest;fontSize=9;" parent="6Wl_LvFZBxU5VlWJ0OVk-3" vertex="1">
          <mxGeometry y="146" width="230" height="8" as="geometry" />
        </mxCell>
        <mxCell id="6Wl_LvFZBxU5VlWJ0OVk-7" value="+ MainWIndow()" style="text;align=left;verticalAlign=top;spacingLeft=4;spacingRight=4;overflow=hidden;rotatable=0;points=[[0,0.5],[1,0.5]];portConstraint=eastwest;fontStyle=0;fontSize=9;" parent="6Wl_LvFZBxU5VlWJ0OVk-3" vertex="1">
          <mxGeometry y="154" width="230" height="20" as="geometry" />
        </mxCell>
        <mxCell id="6Wl_LvFZBxU5VlWJ0OVk-8" value="+ SaveStorage()" style="text;align=left;verticalAlign=top;spacingLeft=4;spacingRight=4;overflow=hidden;rotatable=0;points=[[0,0.5],[1,0.5]];portConstraint=eastwest;fontSize=9;" parent="6Wl_LvFZBxU5VlWJ0OVk-3" vertex="1">
          <mxGeometry y="174" width="230" height="20" as="geometry" />
        </mxCell>
        <mxCell id="6Wl_LvFZBxU5VlWJ0OVk-30" value="+ LoadProductList()" style="text;align=left;verticalAlign=top;spacingLeft=4;spacingRight=4;overflow=hidden;rotatable=0;points=[[0,0.5],[1,0.5]];portConstraint=eastwest;fontSize=9;" parent="6Wl_LvFZBxU5VlWJ0OVk-3" vertex="1">
          <mxGeometry y="194" width="230" height="20" as="geometry" />
        </mxCell>
        <mxCell id="6Wl_LvFZBxU5VlWJ0OVk-31" value="+ LoadStorage()" style="text;align=left;verticalAlign=top;spacingLeft=4;spacingRight=4;overflow=hidden;rotatable=0;points=[[0,0.5],[1,0.5]];portConstraint=eastwest;fontSize=9;" parent="6Wl_LvFZBxU5VlWJ0OVk-3" vertex="1">
          <mxGeometry y="214" width="230" height="20" as="geometry" />
        </mxCell>
        <mxCell id="6Wl_LvFZBxU5VlWJ0OVk-32" value="+ SaveStorage()" style="text;align=left;verticalAlign=top;spacingLeft=4;spacingRight=4;overflow=hidden;rotatable=0;points=[[0,0.5],[1,0.5]];portConstraint=eastwest;fontSize=9;" parent="6Wl_LvFZBxU5VlWJ0OVk-3" vertex="1">
          <mxGeometry y="234" width="230" height="20" as="geometry" />
        </mxCell>
        <mxCell id="6Wl_LvFZBxU5VlWJ0OVk-33" value="+ LoadCommiss()" style="text;align=left;verticalAlign=top;spacingLeft=4;spacingRight=4;overflow=hidden;rotatable=0;points=[[0,0.5],[1,0.5]];portConstraint=eastwest;fontSize=9;" parent="6Wl_LvFZBxU5VlWJ0OVk-3" vertex="1">
          <mxGeometry y="254" width="230" height="20" as="geometry" />
        </mxCell>
        <mxCell id="6Wl_LvFZBxU5VlWJ0OVk-34" value="+ SaveCommiss()" style="text;align=left;verticalAlign=top;spacingLeft=4;spacingRight=4;overflow=hidden;rotatable=0;points=[[0,0.5],[1,0.5]];portConstraint=eastwest;fontSize=9;" parent="6Wl_LvFZBxU5VlWJ0OVk-3" vertex="1">
          <mxGeometry y="274" width="230" height="20" as="geometry" />
        </mxCell>
        <mxCell id="6Wl_LvFZBxU5VlWJ0OVk-35" value="+ LoadMobiBot()" style="text;align=left;verticalAlign=top;spacingLeft=4;spacingRight=4;overflow=hidden;rotatable=0;points=[[0,0.5],[1,0.5]];portConstraint=eastwest;fontSize=9;" parent="6Wl_LvFZBxU5VlWJ0OVk-3" vertex="1">
          <mxGeometry y="294" width="230" height="20" as="geometry" />
        </mxCell>
        <mxCell id="6Wl_LvFZBxU5VlWJ0OVk-36" value="+ SaveMobiBot()" style="text;align=left;verticalAlign=top;spacingLeft=4;spacingRight=4;overflow=hidden;rotatable=0;points=[[0,0.5],[1,0.5]];portConstraint=eastwest;fontSize=9;" parent="6Wl_LvFZBxU5VlWJ0OVk-3" vertex="1">
          <mxGeometry y="314" width="230" height="20" as="geometry" />
        </mxCell>
        <mxCell id="6Wl_LvFZBxU5VlWJ0OVk-37" value="+ BindPallet()" style="text;align=left;verticalAlign=top;spacingLeft=4;spacingRight=4;overflow=hidden;rotatable=0;points=[[0,0.5],[1,0.5]];portConstraint=eastwest;fontSize=9;" parent="6Wl_LvFZBxU5VlWJ0OVk-3" vertex="1">
          <mxGeometry y="334" width="230" height="20" as="geometry" />
        </mxCell>
        <mxCell id="6Wl_LvFZBxU5VlWJ0OVk-38" value="+ ReadPalletMatrix()" style="text;align=left;verticalAlign=top;spacingLeft=4;spacingRight=4;overflow=hidden;rotatable=0;points=[[0,0.5],[1,0.5]];portConstraint=eastwest;fontSize=9;" parent="6Wl_LvFZBxU5VlWJ0OVk-3" vertex="1">
          <mxGeometry y="354" width="230" height="20" as="geometry" />
        </mxCell>
        <mxCell id="6Wl_LvFZBxU5VlWJ0OVk-39" value="+ WritePalletMatrix()" style="text;align=left;verticalAlign=top;spacingLeft=4;spacingRight=4;overflow=hidden;rotatable=0;points=[[0,0.5],[1,0.5]];portConstraint=eastwest;fontSize=9;" parent="6Wl_LvFZBxU5VlWJ0OVk-3" vertex="1">
          <mxGeometry y="374" width="230" height="20" as="geometry" />
        </mxCell>
        <mxCell id="6Wl_LvFZBxU5VlWJ0OVk-40" value="+ OnModbusFunction()" style="text;align=left;verticalAlign=top;spacingLeft=4;spacingRight=4;overflow=hidden;rotatable=0;points=[[0,0.5],[1,0.5]];portConstraint=eastwest;fontSize=9;" parent="6Wl_LvFZBxU5VlWJ0OVk-3" vertex="1">
          <mxGeometry y="394" width="230" height="20" as="geometry" />
        </mxCell>
        <mxCell id="6Wl_LvFZBxU5VlWJ0OVk-41" value="+ async MainTimerFunction()" style="text;align=left;verticalAlign=top;spacingLeft=4;spacingRight=4;overflow=hidden;rotatable=0;points=[[0,0.5],[1,0.5]];portConstraint=eastwest;fontSize=9;" parent="6Wl_LvFZBxU5VlWJ0OVk-3" vertex="1">
          <mxGeometry y="414" width="230" height="20" as="geometry" />
        </mxCell>
        <mxCell id="6Wl_LvFZBxU5VlWJ0OVk-44" value="+ LogEvent()" style="text;align=left;verticalAlign=top;spacingLeft=4;spacingRight=4;overflow=hidden;rotatable=0;points=[[0,0.5],[1,0.5]];portConstraint=eastwest;fontSize=9;" parent="6Wl_LvFZBxU5VlWJ0OVk-3" vertex="1">
          <mxGeometry y="434" width="230" height="20" as="geometry" />
        </mxCell>
        <mxCell id="6Wl_LvFZBxU5VlWJ0OVk-43" value="+ LogEventGUI()" style="text;align=left;verticalAlign=top;spacingLeft=4;spacingRight=4;overflow=hidden;rotatable=0;points=[[0,0.5],[1,0.5]];portConstraint=eastwest;fontSize=9;" parent="6Wl_LvFZBxU5VlWJ0OVk-3" vertex="1">
          <mxGeometry y="454" width="230" height="20" as="geometry" />
        </mxCell>
        <mxCell id="6Wl_LvFZBxU5VlWJ0OVk-45" value="+ LogEventModBus()" style="text;align=left;verticalAlign=top;spacingLeft=4;spacingRight=4;overflow=hidden;rotatable=0;points=[[0,0.5],[1,0.5]];portConstraint=eastwest;fontSize=9;" parent="6Wl_LvFZBxU5VlWJ0OVk-3" vertex="1">
          <mxGeometry y="474" width="230" height="20" as="geometry" />
        </mxCell>
        <mxCell id="6Wl_LvFZBxU5VlWJ0OVk-46" value="+ LogEventRobotController()" style="text;align=left;verticalAlign=top;spacingLeft=4;spacingRight=4;overflow=hidden;rotatable=0;points=[[0,0.5],[1,0.5]];portConstraint=eastwest;fontSize=9;" parent="6Wl_LvFZBxU5VlWJ0OVk-3" vertex="1">
          <mxGeometry y="494" width="230" height="20" as="geometry" />
        </mxCell>
        <mxCell id="6Wl_LvFZBxU5VlWJ0OVk-49" value="+ ParseFunction()" style="text;align=left;verticalAlign=top;spacingLeft=4;spacingRight=4;overflow=hidden;rotatable=0;points=[[0,0.5],[1,0.5]];portConstraint=eastwest;fontSize=9;" parent="6Wl_LvFZBxU5VlWJ0OVk-3" vertex="1">
          <mxGeometry y="514" width="230" height="20" as="geometry" />
        </mxCell>
        <mxCell id="6Wl_LvFZBxU5VlWJ0OVk-50" value="+ RobotToStorage()" style="text;align=left;verticalAlign=top;spacingLeft=4;spacingRight=4;overflow=hidden;rotatable=0;points=[[0,0.5],[1,0.5]];portConstraint=eastwest;fontSize=9;" parent="6Wl_LvFZBxU5VlWJ0OVk-3" vertex="1">
          <mxGeometry y="534" width="230" height="20" as="geometry" />
        </mxCell>
        <mxCell id="6Wl_LvFZBxU5VlWJ0OVk-51" value="+ StorageToRobot()" style="text;align=left;verticalAlign=top;spacingLeft=4;spacingRight=4;overflow=hidden;rotatable=0;points=[[0,0.5],[1,0.5]];portConstraint=eastwest;fontSize=9;" parent="6Wl_LvFZBxU5VlWJ0OVk-3" vertex="1">
          <mxGeometry y="554" width="230" height="20" as="geometry" />
        </mxCell>
        <mxCell id="6Wl_LvFZBxU5VlWJ0OVk-53" value="+ RelatedCommandExists()" style="text;align=left;verticalAlign=top;spacingLeft=4;spacingRight=4;overflow=hidden;rotatable=0;points=[[0,0.5],[1,0.5]];portConstraint=eastwest;fontSize=9;" parent="6Wl_LvFZBxU5VlWJ0OVk-3" vertex="1">
          <mxGeometry y="574" width="230" height="20" as="geometry" />
        </mxCell>
        <mxCell id="6Wl_LvFZBxU5VlWJ0OVk-52" value="+ EnableExistingCommand()" style="text;align=left;verticalAlign=top;spacingLeft=4;spacingRight=4;overflow=hidden;rotatable=0;points=[[0,0.5],[1,0.5]];portConstraint=eastwest;fontSize=9;" parent="6Wl_LvFZBxU5VlWJ0OVk-3" vertex="1">
          <mxGeometry y="594" width="230" height="20" as="geometry" />
        </mxCell>
        <mxCell id="6Wl_LvFZBxU5VlWJ0OVk-54" value="+ MoveToTopPriority()" style="text;align=left;verticalAlign=top;spacingLeft=4;spacingRight=4;overflow=hidden;rotatable=0;points=[[0,0.5],[1,0.5]];portConstraint=eastwest;fontSize=9;" parent="6Wl_LvFZBxU5VlWJ0OVk-3" vertex="1">
          <mxGeometry y="614" width="230" height="20" as="geometry" />
        </mxCell>
        <mxCell id="6Wl_LvFZBxU5VlWJ0OVk-55" value="+ RemoveCommands()" style="text;align=left;verticalAlign=top;spacingLeft=4;spacingRight=4;overflow=hidden;rotatable=0;points=[[0,0.5],[1,0.5]];portConstraint=eastwest;fontSize=9;" parent="6Wl_LvFZBxU5VlWJ0OVk-3" vertex="1">
          <mxGeometry y="634" width="230" height="20" as="geometry" />
        </mxCell>
        <mxCell id="6Wl_LvFZBxU5VlWJ0OVk-56" value="+ FindRelatedProductID()" style="text;align=left;verticalAlign=top;spacingLeft=4;spacingRight=4;overflow=hidden;rotatable=0;points=[[0,0.5],[1,0.5]];portConstraint=eastwest;fontSize=9;" parent="6Wl_LvFZBxU5VlWJ0OVk-3" vertex="1">
          <mxGeometry y="654" width="230" height="20" as="geometry" />
        </mxCell>
        <mxCell id="6Wl_LvFZBxU5VlWJ0OVk-57" value="+ GetNextCupIDFromCmdQueue()" style="text;align=left;verticalAlign=top;spacingLeft=4;spacingRight=4;overflow=hidden;rotatable=0;points=[[0,0.5],[1,0.5]];portConstraint=eastwest;fontSize=9;" parent="6Wl_LvFZBxU5VlWJ0OVk-3" vertex="1">
          <mxGeometry y="674" width="230" height="20" as="geometry" />
        </mxCell>
        <mxCell id="6Wl_LvFZBxU5VlWJ0OVk-58" value="+ GetNextProdIDFromCmdQueue()" style="text;align=left;verticalAlign=top;spacingLeft=4;spacingRight=4;overflow=hidden;rotatable=0;points=[[0,0.5],[1,0.5]];portConstraint=eastwest;fontSize=9;" parent="6Wl_LvFZBxU5VlWJ0OVk-3" vertex="1">
          <mxGeometry y="694" width="230" height="20" as="geometry" />
        </mxCell>
        <mxCell id="6Wl_LvFZBxU5VlWJ0OVk-59" value="+ SetMobileRobotCupIdProdID()" style="text;align=left;verticalAlign=top;spacingLeft=4;spacingRight=4;overflow=hidden;rotatable=0;points=[[0,0.5],[1,0.5]];portConstraint=eastwest;fontSize=9;" parent="6Wl_LvFZBxU5VlWJ0OVk-3" vertex="1">
          <mxGeometry y="714" width="230" height="20" as="geometry" />
        </mxCell>
        <mxCell id="6Wl_LvFZBxU5VlWJ0OVk-73" value="- Window_Closing()" style="text;align=left;verticalAlign=top;spacingLeft=4;spacingRight=4;overflow=hidden;rotatable=0;points=[[0,0.5],[1,0.5]];portConstraint=eastwest;fontSize=9;" parent="6Wl_LvFZBxU5VlWJ0OVk-3" vertex="1">
          <mxGeometry y="734" width="230" height="20" as="geometry" />
        </mxCell>
        <mxCell id="6Wl_LvFZBxU5VlWJ0OVk-72" value="- Window_Loaded" style="text;align=left;verticalAlign=top;spacingLeft=4;spacingRight=4;overflow=hidden;rotatable=0;points=[[0,0.5],[1,0.5]];portConstraint=eastwest;fontSize=9;" parent="6Wl_LvFZBxU5VlWJ0OVk-3" vertex="1">
          <mxGeometry y="754" width="230" height="20" as="geometry" />
        </mxCell>
        <mxCell id="6Wl_LvFZBxU5VlWJ0OVk-71" value="+ SaveButton_click()" style="text;align=left;verticalAlign=top;spacingLeft=4;spacingRight=4;overflow=hidden;rotatable=0;points=[[0,0.5],[1,0.5]];portConstraint=eastwest;fontSize=9;" parent="6Wl_LvFZBxU5VlWJ0OVk-3" vertex="1">
          <mxGeometry y="774" width="230" height="20" as="geometry" />
        </mxCell>
        <mxCell id="6Wl_LvFZBxU5VlWJ0OVk-70" value="+ ClearLogButton_click()" style="text;align=left;verticalAlign=top;spacingLeft=4;spacingRight=4;overflow=hidden;rotatable=0;points=[[0,0.5],[1,0.5]];portConstraint=eastwest;fontSize=9;" parent="6Wl_LvFZBxU5VlWJ0OVk-3" vertex="1">
          <mxGeometry y="794" width="230" height="20" as="geometry" />
        </mxCell>
        <mxCell id="6Wl_LvFZBxU5VlWJ0OVk-69" value="- StartProcess_click()" style="text;align=left;verticalAlign=top;spacingLeft=4;spacingRight=4;overflow=hidden;rotatable=0;points=[[0,0.5],[1,0.5]];portConstraint=eastwest;fontSize=9;" parent="6Wl_LvFZBxU5VlWJ0OVk-3" vertex="1">
          <mxGeometry y="814" width="230" height="20" as="geometry" />
        </mxCell>
        <mxCell id="6Wl_LvFZBxU5VlWJ0OVk-68" value="- StopProcess_click" style="text;align=left;verticalAlign=top;spacingLeft=4;spacingRight=4;overflow=hidden;rotatable=0;points=[[0,0.5],[1,0.5]];portConstraint=eastwest;fontSize=9;" parent="6Wl_LvFZBxU5VlWJ0OVk-3" vertex="1">
          <mxGeometry y="834" width="230" height="20" as="geometry" />
        </mxCell>
        <mxCell id="6Wl_LvFZBxU5VlWJ0OVk-67" value="+ OnHighlightIndex()" style="text;align=left;verticalAlign=top;spacingLeft=4;spacingRight=4;overflow=hidden;rotatable=0;points=[[0,0.5],[1,0.5]];portConstraint=eastwest;fontSize=9;" parent="6Wl_LvFZBxU5VlWJ0OVk-3" vertex="1">
          <mxGeometry y="854" width="230" height="20" as="geometry" />
        </mxCell>
        <mxCell id="6Wl_LvFZBxU5VlWJ0OVk-61" value="" style="line;html=1;strokeWidth=1;align=left;verticalAlign=middle;spacingTop=-1;spacingLeft=3;spacingRight=3;rotatable=0;labelPosition=right;points=[];portConstraint=eastwest;fontSize=9;" parent="6Wl_LvFZBxU5VlWJ0OVk-3" vertex="1">
          <mxGeometry y="874" width="230" height="8" as="geometry" />
        </mxCell>
        <mxCell id="6Wl_LvFZBxU5VlWJ0OVk-62" value="zzgl. diverse Hilfsklassen zur Datenkonvertierung &#xa;und GUI-Steuerung. &#xa;Der Übersicht halber sind Diese ausgeblendet.&#xa;ModBus - Variablen nicht eingeblendet" style="text;align=left;verticalAlign=top;spacingLeft=4;spacingRight=4;overflow=hidden;rotatable=0;points=[[0,0.5],[1,0.5]];portConstraint=eastwest;fontSize=9;" parent="6Wl_LvFZBxU5VlWJ0OVk-3" vertex="1">
          <mxGeometry y="882" width="230" height="58" as="geometry" />
        </mxCell>
        <mxCell id="6Wl_LvFZBxU5VlWJ0OVk-135" value="" style="edgeStyle=segmentEdgeStyle;endArrow=none;html=1;curved=0;rounded=0;endSize=8;startSize=8;sourcePerimeterSpacing=0;targetPerimeterSpacing=0;endFill=0;fontSize=9;strokeWidth=3;" parent="0" edge="1">
          <mxGeometry width="100" relative="1" as="geometry">
            <mxPoint x="1" y="485" as="sourcePoint" />
            <mxPoint x="-46" y="995" as="targetPoint" />
            <Array as="points">
              <mxPoint x="-131" y="485" />
              <mxPoint x="-131" y="995" />
            </Array>
          </mxGeometry>
        </mxCell>
        <mxCell id="9bOb2_-wcr6iKAzfdcPH-13" value="" style="group" vertex="1" connectable="0" parent="0">
          <mxGeometry x="-115" y="964" width="249" height="182" as="geometry" />
        </mxCell>
        <mxCell id="6Wl_LvFZBxU5VlWJ0OVk-120" value="MobileRobot" style="swimlane;fontStyle=1;align=center;verticalAlign=top;childLayout=stackLayout;horizontal=1;startSize=26;horizontalStack=0;resizeParent=1;resizeLast=0;collapsible=1;marginBottom=0;rounded=0;shadow=0;strokeWidth=1;fontSize=9;" parent="9bOb2_-wcr6iKAzfdcPH-13" vertex="1">
          <mxGeometry x="69" width="180" height="140" as="geometry">
            <mxRectangle x="130" y="380" width="160" height="26" as="alternateBounds" />
          </mxGeometry>
        </mxCell>
        <mxCell id="6Wl_LvFZBxU5VlWJ0OVk-121" value="+ positionName : string = string.Empty" style="text;align=left;verticalAlign=top;spacingLeft=4;spacingRight=4;overflow=hidden;rotatable=0;points=[[0,0.5],[1,0.5]];portConstraint=eastwest;fontSize=9;" parent="6Wl_LvFZBxU5VlWJ0OVk-120" vertex="1">
          <mxGeometry y="26" width="180" height="20" as="geometry" />
        </mxCell>
        <mxCell id="6Wl_LvFZBxU5VlWJ0OVk-122" value="- isPresent : bool = true" style="text;align=left;verticalAlign=top;spacingLeft=4;spacingRight=4;overflow=hidden;rotatable=0;points=[[0,0.5],[1,0.5]];portConstraint=eastwest;rounded=0;shadow=0;html=0;fontSize=9;" parent="6Wl_LvFZBxU5VlWJ0OVk-120" vertex="1">
          <mxGeometry y="46" width="180" height="20" as="geometry" />
        </mxCell>
        <mxCell id="6Wl_LvFZBxU5VlWJ0OVk-124" value="- editMode : bool = false" style="text;align=left;verticalAlign=top;spacingLeft=4;spacingRight=4;overflow=hidden;rotatable=0;points=[[0,0.5],[1,0.5]];portConstraint=eastwest;rounded=0;shadow=0;html=0;fontSize=9;" parent="6Wl_LvFZBxU5VlWJ0OVk-120" vertex="1">
          <mxGeometry y="66" width="180" height="20" as="geometry" />
        </mxCell>
        <mxCell id="6Wl_LvFZBxU5VlWJ0OVk-125" value="- showDetails : bool = false" style="text;align=left;verticalAlign=top;spacingLeft=4;spacingRight=4;overflow=hidden;rotatable=0;points=[[0,0.5],[1,0.5]];portConstraint=eastwest;rounded=0;shadow=0;html=0;fontSize=9;" parent="6Wl_LvFZBxU5VlWJ0OVk-120" vertex="1">
          <mxGeometry y="86" width="180" height="20" as="geometry" />
        </mxCell>
        <mxCell id="6Wl_LvFZBxU5VlWJ0OVk-126" value="" style="line;html=1;strokeWidth=1;align=left;verticalAlign=middle;spacingTop=-1;spacingLeft=3;spacingRight=3;rotatable=0;labelPosition=right;points=[];portConstraint=eastwest;fontSize=9;" parent="6Wl_LvFZBxU5VlWJ0OVk-120" vertex="1">
          <mxGeometry y="106" width="180" height="8" as="geometry" />
        </mxCell>
        <mxCell id="6Wl_LvFZBxU5VlWJ0OVk-127" value="+ MobileRobot()" style="text;align=left;verticalAlign=top;spacingLeft=4;spacingRight=4;overflow=hidden;rotatable=0;points=[[0,0.5],[1,0.5]];portConstraint=eastwest;rounded=0;shadow=0;html=0;fontSize=9;" parent="6Wl_LvFZBxU5VlWJ0OVk-120" vertex="1">
          <mxGeometry y="114" width="180" height="20" as="geometry" />
        </mxCell>
        <mxCell id="6Wl_LvFZBxU5VlWJ0OVk-134" style="edgeStyle=orthogonalEdgeStyle;rounded=0;orthogonalLoop=1;jettySize=auto;html=1;exitX=1;exitY=0.5;exitDx=0;exitDy=0;fontSize=9;" parent="6Wl_LvFZBxU5VlWJ0OVk-120" source="6Wl_LvFZBxU5VlWJ0OVk-122" target="6Wl_LvFZBxU5VlWJ0OVk-122" edge="1">
          <mxGeometry relative="1" as="geometry" />
        </mxCell>
        <mxCell id="6Wl_LvFZBxU5VlWJ0OVk-168" value="0..1" style="text;html=1;align=center;verticalAlign=middle;resizable=0;points=[];autosize=1;strokeColor=none;fillColor=none;fontSize=9;" parent="9bOb2_-wcr6iKAzfdcPH-13" vertex="1">
          <mxGeometry x="30" y="11" width="40" height="20" as="geometry" />
        </mxCell>
        <mxCell id="6Wl_LvFZBxU5VlWJ0OVk-169" value="mobileRobot" style="text;html=1;align=center;verticalAlign=middle;resizable=0;points=[];autosize=1;strokeColor=none;fillColor=none;fontSize=9;" parent="9bOb2_-wcr6iKAzfdcPH-13" vertex="1">
          <mxGeometry y="31" width="70" height="20" as="geometry" />
        </mxCell>
        <mxCell id="1" value="" style="group" parent="WIyWlLk6GJQsqaUBKTNV-1" vertex="1" connectable="0">
          <mxGeometry x="-3280" y="240" width="180" height="57" as="geometry" />
        </mxCell>
        <mxCell id="zkfFHV4jXpPFQw0GAbJ--6" value="App" style="swimlane;fontStyle=1;align=center;verticalAlign=top;childLayout=stackLayout;horizontal=1;startSize=26;horizontalStack=0;resizeParent=1;resizeLast=0;collapsible=1;marginBottom=0;rounded=0;shadow=0;strokeWidth=1;fontSize=9;" parent="1" vertex="1">
          <mxGeometry width="120" height="53" as="geometry">
            <mxRectangle x="130" y="380" width="160" height="26" as="alternateBounds" />
          </mxGeometry>
        </mxCell>
        <mxCell id="6Wl_LvFZBxU5VlWJ0OVk-11" value="StartupUri" style="text;html=1;align=left;verticalAlign=middle;resizable=0;points=[];autosize=1;strokeColor=none;fillColor=none;fontSize=9;" parent="1" vertex="1">
          <mxGeometry x="120" y="7" width="60" height="20" as="geometry" />
        </mxCell>
        <mxCell id="6Wl_LvFZBxU5VlWJ0OVk-249" value="0..1" style="text;html=1;align=left;verticalAlign=middle;resizable=0;points=[];autosize=1;strokeColor=none;fillColor=none;" parent="1" vertex="1">
          <mxGeometry x="119" y="27" width="40" height="30" as="geometry" />
        </mxCell>
        <mxCell id="5" value="" style="group" parent="WIyWlLk6GJQsqaUBKTNV-1" vertex="1" connectable="0">
          <mxGeometry x="-2877" y="10.999999999999993" width="311.1199999999999" height="302.63" as="geometry" />
        </mxCell>
        <mxCell id="3" value="" style="group" parent="5" vertex="1" connectable="0">
          <mxGeometry width="311.1199999999999" height="120" as="geometry" />
        </mxCell>
        <mxCell id="6Wl_LvFZBxU5VlWJ0OVk-75" value="Inventory" style="swimlane;fontStyle=1;align=center;verticalAlign=top;childLayout=stackLayout;horizontal=1;startSize=26;horizontalStack=0;resizeParent=1;resizeLast=0;collapsible=1;marginBottom=0;rounded=0;shadow=0;strokeWidth=1;fontSize=9;" parent="3" vertex="1">
          <mxGeometry x="71.11999999999989" width="240" height="120" as="geometry">
            <mxRectangle x="130" y="380" width="160" height="26" as="alternateBounds" />
          </mxGeometry>
        </mxCell>
        <mxCell id="6Wl_LvFZBxU5VlWJ0OVk-76" value="+ itemsFull : ObservableCollection&lt;InventoryItem&gt; " style="text;align=left;verticalAlign=top;spacingLeft=4;spacingRight=4;overflow=hidden;rotatable=0;points=[[0,0.5],[1,0.5]];portConstraint=eastwest;fontSize=9;" parent="6Wl_LvFZBxU5VlWJ0OVk-75" vertex="1">
          <mxGeometry y="26" width="240" height="20" as="geometry" />
        </mxCell>
        <mxCell id="6Wl_LvFZBxU5VlWJ0OVk-77" value="+ itemsNonEmpty : ObservableCollection&lt;InventoryItem&gt;" style="text;align=left;verticalAlign=top;spacingLeft=4;spacingRight=4;overflow=hidden;rotatable=0;points=[[0,0.5],[1,0.5]];portConstraint=eastwest;rounded=0;shadow=0;html=0;fontSize=9;" parent="6Wl_LvFZBxU5VlWJ0OVk-75" vertex="1">
          <mxGeometry y="46" width="240" height="20" as="geometry" />
        </mxCell>
        <mxCell id="6Wl_LvFZBxU5VlWJ0OVk-79" value="" style="line;html=1;strokeWidth=1;align=left;verticalAlign=middle;spacingTop=-1;spacingLeft=3;spacingRight=3;rotatable=0;labelPosition=right;points=[];portConstraint=eastwest;fontSize=9;" parent="6Wl_LvFZBxU5VlWJ0OVk-75" vertex="1">
          <mxGeometry y="66" width="240" height="8" as="geometry" />
        </mxCell>
        <mxCell id="6Wl_LvFZBxU5VlWJ0OVk-78" value="+ Inventory()" style="text;align=left;verticalAlign=top;spacingLeft=4;spacingRight=4;overflow=hidden;rotatable=0;points=[[0,0.5],[1,0.5]];portConstraint=eastwest;rounded=0;shadow=0;html=0;fontSize=9;" parent="6Wl_LvFZBxU5VlWJ0OVk-75" vertex="1">
          <mxGeometry y="74" width="240" height="20" as="geometry" />
        </mxCell>
        <mxCell id="6Wl_LvFZBxU5VlWJ0OVk-80" value="+ Update()" style="text;align=left;verticalAlign=top;spacingLeft=4;spacingRight=4;overflow=hidden;rotatable=0;points=[[0,0.5],[1,0.5]];portConstraint=eastwest;rounded=0;shadow=0;html=0;fontSize=9;" parent="6Wl_LvFZBxU5VlWJ0OVk-75" vertex="1">
          <mxGeometry y="94" width="240" height="20" as="geometry" />
        </mxCell>
        <mxCell id="6Wl_LvFZBxU5VlWJ0OVk-147" value="0..1" style="text;html=1;align=center;verticalAlign=middle;resizable=0;points=[];autosize=1;strokeColor=none;fillColor=none;fontSize=12;" parent="3" vertex="1">
          <mxGeometry x="30" y="36.5" width="40" height="30" as="geometry" />
        </mxCell>
        <mxCell id="6Wl_LvFZBxU5VlWJ0OVk-148" value="inventory" style="text;html=1;align=center;verticalAlign=middle;resizable=0;points=[];autosize=1;strokeColor=none;fillColor=none;fontSize=12;" parent="3" vertex="1">
          <mxGeometry y="6.5" width="70" height="30" as="geometry" />
        </mxCell>
        <mxCell id="4" value="" style="group" parent="5" vertex="1" connectable="0">
          <mxGeometry x="-3.0000000000001066" y="140.63" width="260" height="162" as="geometry" />
        </mxCell>
        <mxCell id="6Wl_LvFZBxU5VlWJ0OVk-83" value="InventoryItem" style="swimlane;fontStyle=1;align=center;verticalAlign=top;childLayout=stackLayout;horizontal=1;startSize=26;horizontalStack=0;resizeParent=1;resizeLast=0;collapsible=1;marginBottom=0;rounded=0;shadow=0;strokeWidth=1;fontSize=9;" parent="4" vertex="1">
          <mxGeometry x="110" width="150" height="134" as="geometry">
            <mxRectangle x="130" y="380" width="160" height="26" as="alternateBounds" />
          </mxGeometry>
        </mxCell>
        <mxCell id="6Wl_LvFZBxU5VlWJ0OVk-84" value="- id: int = 0" style="text;align=left;verticalAlign=top;spacingLeft=4;spacingRight=4;overflow=hidden;rotatable=0;points=[[0,0.5],[1,0.5]];portConstraint=eastwest;fontSize=9;" parent="6Wl_LvFZBxU5VlWJ0OVk-83" vertex="1">
          <mxGeometry y="26" width="150" height="20" as="geometry" />
        </mxCell>
        <mxCell id="6Wl_LvFZBxU5VlWJ0OVk-85" value="- description : string = string.Empty" style="text;align=left;verticalAlign=top;spacingLeft=4;spacingRight=4;overflow=hidden;rotatable=0;points=[[0,0.5],[1,0.5]];portConstraint=eastwest;rounded=0;shadow=0;html=0;fontSize=9;" parent="6Wl_LvFZBxU5VlWJ0OVk-83" vertex="1">
          <mxGeometry y="46" width="150" height="20" as="geometry" />
        </mxCell>
        <mxCell id="6Wl_LvFZBxU5VlWJ0OVk-89" value="- quantity: int = 0" style="text;align=left;verticalAlign=top;spacingLeft=4;spacingRight=4;overflow=hidden;rotatable=0;points=[[0,0.5],[1,0.5]];portConstraint=eastwest;fontSize=9;" parent="6Wl_LvFZBxU5VlWJ0OVk-83" vertex="1">
          <mxGeometry y="66" width="150" height="20" as="geometry" />
        </mxCell>
        <mxCell id="6Wl_LvFZBxU5VlWJ0OVk-86" value="" style="line;html=1;strokeWidth=1;align=left;verticalAlign=middle;spacingTop=-1;spacingLeft=3;spacingRight=3;rotatable=0;labelPosition=right;points=[];portConstraint=eastwest;fontSize=9;" parent="6Wl_LvFZBxU5VlWJ0OVk-83" vertex="1">
          <mxGeometry y="86" width="150" height="8" as="geometry" />
        </mxCell>
        <mxCell id="6Wl_LvFZBxU5VlWJ0OVk-87" value="+ Inventory()" style="text;align=left;verticalAlign=top;spacingLeft=4;spacingRight=4;overflow=hidden;rotatable=0;points=[[0,0.5],[1,0.5]];portConstraint=eastwest;rounded=0;shadow=0;html=0;fontSize=9;" parent="6Wl_LvFZBxU5VlWJ0OVk-83" vertex="1">
          <mxGeometry y="94" width="150" height="20" as="geometry" />
        </mxCell>
        <mxCell id="6Wl_LvFZBxU5VlWJ0OVk-88" value="+ Update()" style="text;align=left;verticalAlign=top;spacingLeft=4;spacingRight=4;overflow=hidden;rotatable=0;points=[[0,0.5],[1,0.5]];portConstraint=eastwest;rounded=0;shadow=0;html=0;fontSize=9;" parent="6Wl_LvFZBxU5VlWJ0OVk-83" vertex="1">
          <mxGeometry y="114" width="150" height="20" as="geometry" />
        </mxCell>
        <mxCell id="6Wl_LvFZBxU5VlWJ0OVk-149" value="*" style="text;html=1;align=right;verticalAlign=middle;resizable=0;points=[];autosize=1;strokeColor=none;fillColor=none;fontSize=12;" parent="4" vertex="1">
          <mxGeometry x="80" y="36.870000000000005" width="30" height="30" as="geometry" />
        </mxCell>
        <mxCell id="6Wl_LvFZBxU5VlWJ0OVk-150" value="intemsFull&lt;br style=&quot;font-size: 12px;&quot;&gt;ittemsNonEmpty" style="text;html=1;align=right;verticalAlign=middle;resizable=0;points=[];autosize=1;strokeColor=none;fillColor=none;fontSize=12;" parent="4" vertex="1">
          <mxGeometry y="66.87" width="110" height="40" as="geometry" />
        </mxCell>
        <mxCell id="6Wl_LvFZBxU5VlWJ0OVk-92" value="" style="edgeStyle=segmentEdgeStyle;endArrow=none;html=1;curved=0;rounded=0;endSize=8;startSize=8;sourcePerimeterSpacing=0;targetPerimeterSpacing=0;endFill=0;fontSize=9;strokeWidth=3;" parent="5" source="6Wl_LvFZBxU5VlWJ0OVk-75" edge="1" target="6Wl_LvFZBxU5VlWJ0OVk-83">
          <mxGeometry width="100" relative="1" as="geometry">
            <mxPoint x="94" y="106" as="sourcePoint" />
            <mxPoint x="161.1199999999999" y="208" as="targetPoint" />
            <Array as="points">
              <mxPoint x="37" y="89" />
              <mxPoint x="37" y="208" />
            </Array>
          </mxGeometry>
        </mxCell>
        <mxCell id="6" value="" style="group" parent="WIyWlLk6GJQsqaUBKTNV-1" vertex="1" connectable="0">
          <mxGeometry x="-2895.38" y="374.06" width="300.5" height="262" as="geometry" />
        </mxCell>
        <mxCell id="6Wl_LvFZBxU5VlWJ0OVk-93" value="PalletMatrix" style="swimlane;fontStyle=1;align=center;verticalAlign=top;childLayout=stackLayout;horizontal=1;startSize=26;horizontalStack=0;resizeParent=1;resizeLast=0;collapsible=1;marginBottom=0;rounded=0;shadow=0;strokeWidth=1;fontSize=9;" parent="6" vertex="1">
          <mxGeometry x="120.5" width="180" height="214" as="geometry">
            <mxRectangle x="130" y="380" width="160" height="26" as="alternateBounds" />
          </mxGeometry>
        </mxCell>
        <mxCell id="6Wl_LvFZBxU5VlWJ0OVk-94" value="+ numCols : int" style="text;align=left;verticalAlign=top;spacingLeft=4;spacingRight=4;overflow=hidden;rotatable=0;points=[[0,0.5],[1,0.5]];portConstraint=eastwest;fontSize=9;" parent="6Wl_LvFZBxU5VlWJ0OVk-93" vertex="1">
          <mxGeometry y="26" width="180" height="20" as="geometry" />
        </mxCell>
        <mxCell id="6Wl_LvFZBxU5VlWJ0OVk-95" value="+ numRows : int" style="text;align=left;verticalAlign=top;spacingLeft=4;spacingRight=4;overflow=hidden;rotatable=0;points=[[0,0.5],[1,0.5]];portConstraint=eastwest;rounded=0;shadow=0;html=0;fontSize=9;" parent="6Wl_LvFZBxU5VlWJ0OVk-93" vertex="1">
          <mxGeometry y="46" width="180" height="20" as="geometry" />
        </mxCell>
        <mxCell id="6Wl_LvFZBxU5VlWJ0OVk-110" value="+ editMode : bool = false" style="text;align=left;verticalAlign=top;spacingLeft=4;spacingRight=4;overflow=hidden;rotatable=0;points=[[0,0.5],[1,0.5]];portConstraint=eastwest;rounded=0;shadow=0;html=0;fontSize=9;" parent="6Wl_LvFZBxU5VlWJ0OVk-93" vertex="1">
          <mxGeometry y="66" width="180" height="20" as="geometry" />
        </mxCell>
        <mxCell id="6Wl_LvFZBxU5VlWJ0OVk-111" value="+ showDetails : bool = false" style="text;align=left;verticalAlign=top;spacingLeft=4;spacingRight=4;overflow=hidden;rotatable=0;points=[[0,0.5],[1,0.5]];portConstraint=eastwest;rounded=0;shadow=0;html=0;fontSize=9;" parent="6Wl_LvFZBxU5VlWJ0OVk-93" vertex="1">
          <mxGeometry y="86" width="180" height="20" as="geometry" />
        </mxCell>
        <mxCell id="6Wl_LvFZBxU5VlWJ0OVk-96" value="" style="line;html=1;strokeWidth=1;align=left;verticalAlign=middle;spacingTop=-1;spacingLeft=3;spacingRight=3;rotatable=0;labelPosition=right;points=[];portConstraint=eastwest;fontSize=9;" parent="6Wl_LvFZBxU5VlWJ0OVk-93" vertex="1">
          <mxGeometry y="106" width="180" height="8" as="geometry" />
        </mxCell>
        <mxCell id="6Wl_LvFZBxU5VlWJ0OVk-97" value="+ PalletMatrix()" style="text;align=left;verticalAlign=top;spacingLeft=4;spacingRight=4;overflow=hidden;rotatable=0;points=[[0,0.5],[1,0.5]];portConstraint=eastwest;rounded=0;shadow=0;html=0;fontSize=9;" parent="6Wl_LvFZBxU5VlWJ0OVk-93" vertex="1">
          <mxGeometry y="114" width="180" height="20" as="geometry" />
        </mxCell>
        <mxCell id="6Wl_LvFZBxU5VlWJ0OVk-98" value="+ HighlightCup()" style="text;align=left;verticalAlign=top;spacingLeft=4;spacingRight=4;overflow=hidden;rotatable=0;points=[[0,0.5],[1,0.5]];portConstraint=eastwest;rounded=0;shadow=0;html=0;fontSize=9;" parent="6Wl_LvFZBxU5VlWJ0OVk-93" vertex="1">
          <mxGeometry y="134" width="180" height="20" as="geometry" />
        </mxCell>
        <mxCell id="6Wl_LvFZBxU5VlWJ0OVk-112" value="+ FindPalletWithProductID()" style="text;align=left;verticalAlign=top;spacingLeft=4;spacingRight=4;overflow=hidden;rotatable=0;points=[[0,0.5],[1,0.5]];portConstraint=eastwest;rounded=0;shadow=0;html=0;fontSize=9;" parent="6Wl_LvFZBxU5VlWJ0OVk-93" vertex="1">
          <mxGeometry y="154" width="180" height="20" as="geometry" />
        </mxCell>
        <mxCell id="6Wl_LvFZBxU5VlWJ0OVk-113" value="+ FindPalletWithCupID()" style="text;align=left;verticalAlign=top;spacingLeft=4;spacingRight=4;overflow=hidden;rotatable=0;points=[[0,0.5],[1,0.5]];portConstraint=eastwest;rounded=0;shadow=0;html=0;fontSize=9;" parent="6Wl_LvFZBxU5VlWJ0OVk-93" vertex="1">
          <mxGeometry y="174" width="180" height="20" as="geometry" />
        </mxCell>
        <mxCell id="6Wl_LvFZBxU5VlWJ0OVk-114" value="+ FindSpaceForPallet()" style="text;align=left;verticalAlign=top;spacingLeft=4;spacingRight=4;overflow=hidden;rotatable=0;points=[[0,0.5],[1,0.5]];portConstraint=eastwest;rounded=0;shadow=0;html=0;fontSize=9;" parent="6Wl_LvFZBxU5VlWJ0OVk-93" vertex="1">
          <mxGeometry y="194" width="180" height="20" as="geometry" />
        </mxCell>
        <mxCell id="6Wl_LvFZBxU5VlWJ0OVk-166" value="0..1" style="text;html=1;align=right;verticalAlign=middle;resizable=0;points=[];autosize=1;strokeColor=none;fillColor=none;fontSize=12;" parent="6" vertex="1">
          <mxGeometry x="80" y="8.879999999999995" width="40" height="30" as="geometry" />
        </mxCell>
        <mxCell id="6Wl_LvFZBxU5VlWJ0OVk-167" value="storageMatrix&lt;br style=&quot;font-size: 12px;&quot;&gt;commissionMatrix" style="text;html=1;align=right;verticalAlign=middle;resizable=0;points=[];autosize=1;strokeColor=none;fillColor=none;fontSize=12;" parent="6" vertex="1">
          <mxGeometry x="0.5" y="39.879999999999995" width="120" height="40" as="geometry" />
        </mxCell>
        <mxCell id="7" value="" style="group" parent="WIyWlLk6GJQsqaUBKTNV-1" vertex="1" connectable="0">
          <mxGeometry x="-2845" y="648" width="180" height="86" as="geometry" />
        </mxCell>
        <mxCell id="6Wl_LvFZBxU5VlWJ0OVk-99" value="Coord" style="swimlane;fontStyle=1;align=center;verticalAlign=top;childLayout=stackLayout;horizontal=1;startSize=26;horizontalStack=0;resizeParent=1;resizeLast=0;collapsible=1;marginBottom=0;rounded=0;shadow=0;strokeWidth=1;fontSize=9;" parent="7" vertex="1">
          <mxGeometry x="90" width="90" height="86" as="geometry">
            <mxRectangle y="26" width="400" height="26" as="alternateBounds" />
          </mxGeometry>
        </mxCell>
        <mxCell id="6Wl_LvFZBxU5VlWJ0OVk-100" value="+ row : ushort = 0" style="text;align=left;verticalAlign=top;spacingLeft=4;spacingRight=4;overflow=hidden;rotatable=0;points=[[0,0.5],[1,0.5]];portConstraint=eastwest;fontSize=9;" parent="6Wl_LvFZBxU5VlWJ0OVk-99" vertex="1">
          <mxGeometry y="26" width="90" height="20" as="geometry" />
        </mxCell>
        <mxCell id="6Wl_LvFZBxU5VlWJ0OVk-105" value="+ col : ushort = 0" style="text;align=left;verticalAlign=top;spacingLeft=4;spacingRight=4;overflow=hidden;rotatable=0;points=[[0,0.5],[1,0.5]];portConstraint=eastwest;fontSize=9;" parent="6Wl_LvFZBxU5VlWJ0OVk-99" vertex="1">
          <mxGeometry y="46" width="90" height="20" as="geometry" />
        </mxCell>
        <mxCell id="6Wl_LvFZBxU5VlWJ0OVk-106" value="+ pos : ushort = 0" style="text;align=left;verticalAlign=top;spacingLeft=4;spacingRight=4;overflow=hidden;rotatable=0;points=[[0,0.5],[1,0.5]];portConstraint=eastwest;fontSize=9;" parent="6Wl_LvFZBxU5VlWJ0OVk-99" vertex="1">
          <mxGeometry y="66" width="90" height="20" as="geometry" />
        </mxCell>
        <mxCell id="6Wl_LvFZBxU5VlWJ0OVk-151" value="*" style="text;html=1;align=right;verticalAlign=middle;resizable=0;points=[];autosize=1;strokeColor=none;fillColor=none;fontSize=12;" parent="7" vertex="1">
          <mxGeometry x="59" y="21.5" width="30" height="30" as="geometry" />
        </mxCell>
        <mxCell id="6Wl_LvFZBxU5VlWJ0OVk-152" value="availlableList" style="text;html=1;align=right;verticalAlign=middle;resizable=0;points=[];autosize=1;strokeColor=none;fillColor=none;fontSize=12;" parent="7" vertex="1">
          <mxGeometry y="51.5" width="90" height="30" as="geometry" />
        </mxCell>
        <mxCell id="9bOb2_-wcr6iKAzfdcPH-18" value="" style="group" vertex="1" connectable="0" parent="WIyWlLk6GJQsqaUBKTNV-1">
          <mxGeometry x="-2909" y="948" width="221" height="200" as="geometry" />
        </mxCell>
        <mxCell id="6Wl_LvFZBxU5VlWJ0OVk-172" value="Cup" style="swimlane;fontStyle=1;align=center;verticalAlign=top;childLayout=stackLayout;horizontal=1;startSize=26;horizontalStack=0;resizeParent=1;resizeLast=0;collapsible=1;marginBottom=0;rounded=0;shadow=0;strokeWidth=1;fontSize=9;" parent="9bOb2_-wcr6iKAzfdcPH-18" vertex="1">
          <mxGeometry x="41" y="-28" width="180" height="200" as="geometry">
            <mxRectangle x="130" y="380" width="160" height="26" as="alternateBounds" />
          </mxGeometry>
        </mxCell>
        <mxCell id="6Wl_LvFZBxU5VlWJ0OVk-173" value="- status : ModBusStatus" style="text;align=left;verticalAlign=top;spacingLeft=4;spacingRight=4;overflow=hidden;rotatable=0;points=[[0,0.5],[1,0.5]];portConstraint=eastwest;fontSize=9;" parent="6Wl_LvFZBxU5VlWJ0OVk-172" vertex="1">
          <mxGeometry y="26" width="180" height="20" as="geometry" />
        </mxCell>
        <mxCell id="6Wl_LvFZBxU5VlWJ0OVk-174" value="- ixCupId : int = 0" style="text;align=left;verticalAlign=top;spacingLeft=4;spacingRight=4;overflow=hidden;rotatable=0;points=[[0,0.5],[1,0.5]];portConstraint=eastwest;rounded=0;shadow=0;html=0;fontSize=9;" parent="6Wl_LvFZBxU5VlWJ0OVk-172" vertex="1">
          <mxGeometry y="46" width="180" height="20" as="geometry" />
        </mxCell>
        <mxCell id="6Wl_LvFZBxU5VlWJ0OVk-175" value="- ixProductID : int = 0" style="text;align=left;verticalAlign=top;spacingLeft=4;spacingRight=4;overflow=hidden;rotatable=0;points=[[0,0.5],[1,0.5]];portConstraint=eastwest;rounded=0;shadow=0;html=0;fontSize=9;" parent="6Wl_LvFZBxU5VlWJ0OVk-172" vertex="1">
          <mxGeometry y="66" width="180" height="20" as="geometry" />
        </mxCell>
        <mxCell id="6Wl_LvFZBxU5VlWJ0OVk-176" value="- productList : Dictionary&lt;int, string&gt; = null" style="text;align=left;verticalAlign=top;spacingLeft=4;spacingRight=4;overflow=hidden;rotatable=0;points=[[0,0.5],[1,0.5]];portConstraint=eastwest;rounded=0;shadow=0;html=0;fontSize=9;" parent="6Wl_LvFZBxU5VlWJ0OVk-172" vertex="1">
          <mxGeometry y="86" width="180" height="20" as="geometry" />
        </mxCell>
        <mxCell id="6Wl_LvFZBxU5VlWJ0OVk-180" value="- productDescription : string = string.Empty" style="text;align=left;verticalAlign=top;spacingLeft=4;spacingRight=4;overflow=hidden;rotatable=0;points=[[0,0.5],[1,0.5]];portConstraint=eastwest;rounded=0;shadow=0;html=0;fontSize=9;" parent="6Wl_LvFZBxU5VlWJ0OVk-172" vertex="1">
          <mxGeometry y="106" width="180" height="20" as="geometry" />
        </mxCell>
        <mxCell id="6Wl_LvFZBxU5VlWJ0OVk-181" value="- isHighlighted : bool = false" style="text;align=left;verticalAlign=top;spacingLeft=4;spacingRight=4;overflow=hidden;rotatable=0;points=[[0,0.5],[1,0.5]];portConstraint=eastwest;rounded=0;shadow=0;html=0;fontSize=9;" parent="6Wl_LvFZBxU5VlWJ0OVk-172" vertex="1">
          <mxGeometry y="126" width="180" height="20" as="geometry" />
        </mxCell>
        <mxCell id="6Wl_LvFZBxU5VlWJ0OVk-182" value="- highlightindex : int = -1" style="text;align=left;verticalAlign=top;spacingLeft=4;spacingRight=4;overflow=hidden;rotatable=0;points=[[0,0.5],[1,0.5]];portConstraint=eastwest;rounded=0;shadow=0;html=0;fontSize=9;" parent="6Wl_LvFZBxU5VlWJ0OVk-172" vertex="1">
          <mxGeometry y="146" width="180" height="20" as="geometry" />
        </mxCell>
        <mxCell id="6Wl_LvFZBxU5VlWJ0OVk-177" value="" style="line;html=1;strokeWidth=1;align=left;verticalAlign=middle;spacingTop=-1;spacingLeft=3;spacingRight=3;rotatable=0;labelPosition=right;points=[];portConstraint=eastwest;fontSize=9;" parent="6Wl_LvFZBxU5VlWJ0OVk-172" vertex="1">
          <mxGeometry y="166" width="180" height="8" as="geometry" />
        </mxCell>
        <mxCell id="6Wl_LvFZBxU5VlWJ0OVk-179" style="edgeStyle=orthogonalEdgeStyle;rounded=0;orthogonalLoop=1;jettySize=auto;html=1;exitX=1;exitY=0.5;exitDx=0;exitDy=0;fontSize=9;" parent="6Wl_LvFZBxU5VlWJ0OVk-172" source="6Wl_LvFZBxU5VlWJ0OVk-174" target="6Wl_LvFZBxU5VlWJ0OVk-174" edge="1">
          <mxGeometry relative="1" as="geometry" />
        </mxCell>
        <mxCell id="6Wl_LvFZBxU5VlWJ0OVk-183" value="+ Cup()" style="text;align=left;verticalAlign=top;spacingLeft=4;spacingRight=4;overflow=hidden;rotatable=0;points=[[0,0.5],[1,0.5]];portConstraint=eastwest;rounded=0;shadow=0;html=0;fontSize=9;" parent="6Wl_LvFZBxU5VlWJ0OVk-172" vertex="1">
          <mxGeometry y="174" width="180" height="20" as="geometry" />
        </mxCell>
        <mxCell id="6Wl_LvFZBxU5VlWJ0OVk-187" value="0..1" style="text;html=1;align=right;verticalAlign=middle;resizable=0;points=[];autosize=1;strokeColor=none;fillColor=none;fontSize=12;" parent="9bOb2_-wcr6iKAzfdcPH-18" vertex="1">
          <mxGeometry y="27" width="40" height="30" as="geometry" />
        </mxCell>
        <mxCell id="6Wl_LvFZBxU5VlWJ0OVk-188" value="cup" style="text;html=1;align=right;verticalAlign=middle;resizable=0;points=[];autosize=1;strokeColor=none;fillColor=none;fontSize=12;" parent="9bOb2_-wcr6iKAzfdcPH-18" vertex="1">
          <mxGeometry y="57" width="40" height="30" as="geometry" />
        </mxCell>
        <mxCell id="6Wl_LvFZBxU5VlWJ0OVk-242" value="*" style="text;html=1;align=right;verticalAlign=middle;resizable=0;points=[];autosize=1;strokeColor=none;fillColor=none;fontSize=12;container=0;" parent="WIyWlLk6GJQsqaUBKTNV-1" vertex="1">
          <mxGeometry x="-2666" y="970" width="30" height="30" as="geometry" />
        </mxCell>
        <mxCell id="6Wl_LvFZBxU5VlWJ0OVk-243" value="CupList" style="text;html=1;align=right;verticalAlign=middle;resizable=0;points=[];autosize=1;strokeColor=none;fillColor=none;fontSize=12;container=0;" parent="WIyWlLk6GJQsqaUBKTNV-1" vertex="1">
          <mxGeometry x="-2695" y="1001" width="60" height="30" as="geometry" />
        </mxCell>
        <mxCell id="6Wl_LvFZBxU5VlWJ0OVk-223" value="Pallet" style="swimlane;fontStyle=1;align=center;verticalAlign=top;childLayout=stackLayout;horizontal=1;startSize=26;horizontalStack=0;resizeParent=1;resizeLast=0;collapsible=1;marginBottom=0;rounded=0;shadow=0;strokeWidth=1;fontSize=9;" parent="WIyWlLk6GJQsqaUBKTNV-1" vertex="1">
          <mxGeometry x="-2635.38" y="946" width="109" height="100" as="geometry">
            <mxRectangle x="130" y="380" width="160" height="26" as="alternateBounds" />
          </mxGeometry>
        </mxCell>
        <mxCell id="6Wl_LvFZBxU5VlWJ0OVk-224" value="- isPresent : bool = true" style="text;align=left;verticalAlign=top;spacingLeft=4;spacingRight=4;overflow=hidden;rotatable=0;points=[[0,0.5],[1,0.5]];portConstraint=eastwest;fontSize=9;" parent="6Wl_LvFZBxU5VlWJ0OVk-223" vertex="1">
          <mxGeometry y="26" width="109" height="20" as="geometry" />
        </mxCell>
        <mxCell id="6Wl_LvFZBxU5VlWJ0OVk-231" value="" style="line;html=1;strokeWidth=1;align=left;verticalAlign=middle;spacingTop=-1;spacingLeft=3;spacingRight=3;rotatable=0;labelPosition=right;points=[];portConstraint=eastwest;fontSize=9;" parent="6Wl_LvFZBxU5VlWJ0OVk-223" vertex="1">
          <mxGeometry y="46" width="109" height="8" as="geometry" />
        </mxCell>
        <mxCell id="6Wl_LvFZBxU5VlWJ0OVk-232" style="edgeStyle=orthogonalEdgeStyle;rounded=0;orthogonalLoop=1;jettySize=auto;html=1;exitX=1;exitY=0.5;exitDx=0;exitDy=0;fontSize=9;" parent="6Wl_LvFZBxU5VlWJ0OVk-223" edge="1">
          <mxGeometry relative="1" as="geometry">
            <mxPoint x="109" y="56" as="sourcePoint" />
            <mxPoint x="109" y="56" as="targetPoint" />
          </mxGeometry>
        </mxCell>
        <mxCell id="6Wl_LvFZBxU5VlWJ0OVk-233" value="+ Pallet()" style="text;align=left;verticalAlign=top;spacingLeft=4;spacingRight=4;overflow=hidden;rotatable=0;points=[[0,0.5],[1,0.5]];portConstraint=eastwest;rounded=0;shadow=0;html=0;fontSize=9;" parent="6Wl_LvFZBxU5VlWJ0OVk-223" vertex="1">
          <mxGeometry y="54" width="109" height="20" as="geometry" />
        </mxCell>
        <mxCell id="6Wl_LvFZBxU5VlWJ0OVk-240" value="+ HighlightCup()" style="text;align=left;verticalAlign=top;spacingLeft=4;spacingRight=4;overflow=hidden;rotatable=0;points=[[0,0.5],[1,0.5]];portConstraint=eastwest;fontSize=9;" parent="6Wl_LvFZBxU5VlWJ0OVk-223" vertex="1">
          <mxGeometry y="74" width="109" height="20" as="geometry" />
        </mxCell>
        <mxCell id="6Wl_LvFZBxU5VlWJ0OVk-238" value="* *" style="text;html=1;align=left;verticalAlign=middle;resizable=0;points=[];autosize=1;strokeColor=none;fillColor=none;fontSize=12;" parent="WIyWlLk6GJQsqaUBKTNV-1" vertex="1">
          <mxGeometry x="-2577.38" y="880" width="40" height="30" as="geometry" />
        </mxCell>
        <mxCell id="6Wl_LvFZBxU5VlWJ0OVk-239" value="data" style="text;html=1;align=left;verticalAlign=middle;resizable=0;points=[];autosize=1;strokeColor=none;fillColor=none;rotation=0;fontSize=12;" parent="WIyWlLk6GJQsqaUBKTNV-1" vertex="1">
          <mxGeometry x="-2576.38" y="910" width="50" height="30" as="geometry" />
        </mxCell>
      </root>
    </mxGraphModel>
  </diagram>
  <diagram id="O__cLAFctsSKOVO4fHnW" name="ABB Components">
    <mxGraphModel dx="4029" dy="1406" grid="1" gridSize="10" guides="1" tooltips="1" connect="1" arrows="1" fold="1" page="1" pageScale="1" pageWidth="827" pageHeight="1169" math="0" shadow="0">
      <root>
        <mxCell id="0" />
        <mxCell id="1" parent="0" />
        <mxCell id="JTsjzEtY-qwizZK8rc9I-1" value="MainWindow" style="swimlane;fontStyle=1;align=center;verticalAlign=top;childLayout=stackLayout;horizontal=1;startSize=20;horizontalStack=0;resizeParent=1;resizeLast=0;collapsible=1;marginBottom=0;rounded=0;shadow=0;strokeWidth=1;fontSize=9;" parent="1" vertex="1">
          <mxGeometry x="-1640" y="765" width="180" height="60" as="geometry">
            <mxRectangle x="-3308" width="160" height="26" as="alternateBounds" />
          </mxGeometry>
        </mxCell>
        <mxCell id="JTsjzEtY-qwizZK8rc9I-2" value="weitere Variablen und Methoden: &#xa;Siehe Seite 1" style="text;align=left;verticalAlign=top;spacingLeft=4;spacingRight=4;overflow=hidden;rotatable=0;points=[[0,0.5],[1,0.5]];portConstraint=eastwest;fontSize=9;" parent="JTsjzEtY-qwizZK8rc9I-1" vertex="1">
          <mxGeometry y="20" width="180" height="40" as="geometry" />
        </mxCell>
        <mxCell id="JTsjzEtY-qwizZK8rc9I-3" value="ControllerCommand " style="swimlane;fontStyle=1;align=center;verticalAlign=top;childLayout=stackLayout;horizontal=1;startSize=20;horizontalStack=0;resizeParent=1;resizeLast=0;collapsible=1;marginBottom=0;rounded=0;shadow=0;strokeWidth=1;fontSize=9;" parent="1" vertex="1">
          <mxGeometry x="-1331" y="50" width="150" height="420" as="geometry">
            <mxRectangle x="-3308" width="160" height="26" as="alternateBounds" />
          </mxGeometry>
        </mxCell>
        <mxCell id="JTsjzEtY-qwizZK8rc9I-4" value="- isExecuting : bool = false" style="text;align=left;verticalAlign=top;spacingLeft=4;spacingRight=4;overflow=hidden;rotatable=0;points=[[0,0.5],[1,0.5]];portConstraint=eastwest;rounded=0;shadow=0;html=0;fontSize=9;" parent="JTsjzEtY-qwizZK8rc9I-3" vertex="1">
          <mxGeometry y="20" width="150" height="20" as="geometry" />
        </mxCell>
        <mxCell id="JTsjzEtY-qwizZK8rc9I-5" value="- executable : bool = false" style="text;align=left;verticalAlign=top;spacingLeft=4;spacingRight=4;overflow=hidden;rotatable=0;points=[[0,0.5],[1,0.5]];portConstraint=eastwest;rounded=0;shadow=0;html=0;fontSize=9;" parent="JTsjzEtY-qwizZK8rc9I-3" vertex="1">
          <mxGeometry y="40" width="150" height="20" as="geometry" />
        </mxCell>
        <mxCell id="JTsjzEtY-qwizZK8rc9I-6" value="- command : string = string.Empty" style="text;align=left;verticalAlign=top;spacingLeft=4;spacingRight=4;overflow=hidden;rotatable=0;points=[[0,0.5],[1,0.5]];portConstraint=eastwest;rounded=0;shadow=0;html=0;fontSize=9;" parent="JTsjzEtY-qwizZK8rc9I-3" vertex="1">
          <mxGeometry y="60" width="150" height="20" as="geometry" />
        </mxCell>
        <mxCell id="JTsjzEtY-qwizZK8rc9I-7" value="- description : string = string.Empty" style="text;align=left;verticalAlign=top;spacingLeft=4;spacingRight=4;overflow=hidden;rotatable=0;points=[[0,0.5],[1,0.5]];portConstraint=eastwest;rounded=0;shadow=0;html=0;fontSize=9;" parent="JTsjzEtY-qwizZK8rc9I-3" vertex="1">
          <mxGeometry y="80" width="150" height="20" as="geometry" />
        </mxCell>
        <mxCell id="JTsjzEtY-qwizZK8rc9I-8" value="+ cupID :  ushort" style="text;align=left;verticalAlign=top;spacingLeft=4;spacingRight=4;overflow=hidden;rotatable=0;points=[[0,0.5],[1,0.5]];portConstraint=eastwest;rounded=0;shadow=0;html=0;fontSize=9;" parent="JTsjzEtY-qwizZK8rc9I-3" vertex="1">
          <mxGeometry y="100" width="150" height="20" as="geometry" />
        </mxCell>
        <mxCell id="JTsjzEtY-qwizZK8rc9I-9" value="+ prodID : ushort" style="text;align=left;verticalAlign=top;spacingLeft=4;spacingRight=4;overflow=hidden;rotatable=0;points=[[0,0.5],[1,0.5]];portConstraint=eastwest;rounded=0;shadow=0;html=0;fontSize=9;" parent="JTsjzEtY-qwizZK8rc9I-3" vertex="1">
          <mxGeometry y="120" width="150" height="20" as="geometry" />
        </mxCell>
        <mxCell id="JTsjzEtY-qwizZK8rc9I-10" value="+ requireMobileRobot : bool" style="text;align=left;verticalAlign=top;spacingLeft=4;spacingRight=4;overflow=hidden;rotatable=0;points=[[0,0.5],[1,0.5]];portConstraint=eastwest;rounded=0;shadow=0;html=0;fontSize=9;" parent="JTsjzEtY-qwizZK8rc9I-3" vertex="1">
          <mxGeometry y="140" width="150" height="20" as="geometry" />
        </mxCell>
        <mxCell id="JTsjzEtY-qwizZK8rc9I-11" value="+ shouldCheckID  : bool" style="text;align=left;verticalAlign=top;spacingLeft=4;spacingRight=4;overflow=hidden;rotatable=0;points=[[0,0.5],[1,0.5]];portConstraint=eastwest;rounded=0;shadow=0;html=0;fontSize=9;" parent="JTsjzEtY-qwizZK8rc9I-3" vertex="1">
          <mxGeometry y="160" width="150" height="20" as="geometry" />
        </mxCell>
        <mxCell id="JTsjzEtY-qwizZK8rc9I-12" value="+ fromElement : object" style="text;align=left;verticalAlign=top;spacingLeft=4;spacingRight=4;overflow=hidden;rotatable=0;points=[[0,0.5],[1,0.5]];portConstraint=eastwest;rounded=0;shadow=0;html=0;fontSize=9;" parent="JTsjzEtY-qwizZK8rc9I-3" vertex="1">
          <mxGeometry y="180" width="150" height="20" as="geometry" />
        </mxCell>
        <mxCell id="JTsjzEtY-qwizZK8rc9I-13" value="+ toElement : object" style="text;align=left;verticalAlign=top;spacingLeft=4;spacingRight=4;overflow=hidden;rotatable=0;points=[[0,0.5],[1,0.5]];portConstraint=eastwest;rounded=0;shadow=0;html=0;fontSize=9;" parent="JTsjzEtY-qwizZK8rc9I-3" vertex="1">
          <mxGeometry y="200" width="150" height="20" as="geometry" />
        </mxCell>
        <mxCell id="JTsjzEtY-qwizZK8rc9I-14" value="" style="line;html=1;strokeWidth=1;align=left;verticalAlign=middle;spacingTop=-1;spacingLeft=3;spacingRight=3;rotatable=0;labelPosition=right;points=[];portConstraint=eastwest;fontSize=9;" parent="JTsjzEtY-qwizZK8rc9I-3" vertex="1">
          <mxGeometry y="220" width="150" height="10" as="geometry" />
        </mxCell>
        <mxCell id="JTsjzEtY-qwizZK8rc9I-15" value="+ MarkStart()" style="text;align=left;verticalAlign=top;spacingLeft=4;spacingRight=4;overflow=hidden;rotatable=0;points=[[0,0.5],[1,0.5]];portConstraint=eastwest;rounded=0;shadow=0;html=0;fontSize=9;" parent="JTsjzEtY-qwizZK8rc9I-3" vertex="1">
          <mxGeometry y="230" width="150" height="20" as="geometry" />
        </mxCell>
        <mxCell id="JTsjzEtY-qwizZK8rc9I-16" value="+ MarkEnd()" style="text;align=left;verticalAlign=top;spacingLeft=4;spacingRight=4;overflow=hidden;rotatable=0;points=[[0,0.5],[1,0.5]];portConstraint=eastwest;rounded=0;shadow=0;html=0;fontSize=9;" parent="JTsjzEtY-qwizZK8rc9I-3" vertex="1">
          <mxGeometry y="250" width="150" height="20" as="geometry" />
        </mxCell>
        <mxCell id="JTsjzEtY-qwizZK8rc9I-17" value="+ StorageToWorkBench()" style="text;align=left;verticalAlign=top;spacingLeft=4;spacingRight=4;overflow=hidden;rotatable=0;points=[[0,0.5],[1,0.5]];portConstraint=eastwest;rounded=0;shadow=0;html=0;fontSize=9;fontStyle=4" parent="JTsjzEtY-qwizZK8rc9I-3" vertex="1">
          <mxGeometry y="270" width="150" height="20" as="geometry" />
        </mxCell>
        <mxCell id="JTsjzEtY-qwizZK8rc9I-18" value="+ WorkBenchToStorage()" style="text;align=left;verticalAlign=top;spacingLeft=4;spacingRight=4;overflow=hidden;rotatable=0;points=[[0,0.5],[1,0.5]];portConstraint=eastwest;rounded=0;shadow=0;html=0;fontSize=9;fontStyle=4" parent="JTsjzEtY-qwizZK8rc9I-3" vertex="1">
          <mxGeometry y="290" width="150" height="20" as="geometry" />
        </mxCell>
        <mxCell id="JTsjzEtY-qwizZK8rc9I-19" value="+ WorkBenchToRobot()" style="text;align=left;verticalAlign=top;spacingLeft=4;spacingRight=4;overflow=hidden;rotatable=0;points=[[0,0.5],[1,0.5]];portConstraint=eastwest;rounded=0;shadow=0;html=0;fontSize=9;fontStyle=4" parent="JTsjzEtY-qwizZK8rc9I-3" vertex="1">
          <mxGeometry y="310" width="150" height="20" as="geometry" />
        </mxCell>
        <mxCell id="JTsjzEtY-qwizZK8rc9I-20" value="+ RobotToWorkBench" style="text;align=left;verticalAlign=top;spacingLeft=4;spacingRight=4;overflow=hidden;rotatable=0;points=[[0,0.5],[1,0.5]];portConstraint=eastwest;rounded=0;shadow=0;html=0;fontSize=9;fontStyle=4" parent="JTsjzEtY-qwizZK8rc9I-3" vertex="1">
          <mxGeometry y="330" width="150" height="20" as="geometry" />
        </mxCell>
        <mxCell id="JTsjzEtY-qwizZK8rc9I-21" value="+ WorkBenchToWorkBench" style="text;align=left;verticalAlign=top;spacingLeft=4;spacingRight=4;overflow=hidden;rotatable=0;points=[[0,0.5],[1,0.5]];portConstraint=eastwest;rounded=0;shadow=0;html=0;fontSize=9;fontStyle=4" parent="JTsjzEtY-qwizZK8rc9I-3" vertex="1">
          <mxGeometry y="350" width="150" height="20" as="geometry" />
        </mxCell>
        <mxCell id="JTsjzEtY-qwizZK8rc9I-22" value="" style="line;html=1;strokeWidth=1;align=left;verticalAlign=middle;spacingTop=-1;spacingLeft=3;spacingRight=3;rotatable=0;labelPosition=right;points=[];portConstraint=eastwest;fontSize=9;" parent="JTsjzEtY-qwizZK8rc9I-3" vertex="1">
          <mxGeometry y="370" width="150" height="10" as="geometry" />
        </mxCell>
        <mxCell id="JTsjzEtY-qwizZK8rc9I-23" value="zzgl. Properties und Events/ &#xa;Eventhandler" style="text;align=left;verticalAlign=top;spacingLeft=4;spacingRight=4;overflow=hidden;rotatable=0;points=[[0,0.5],[1,0.5]];portConstraint=eastwest;fontSize=9;" parent="JTsjzEtY-qwizZK8rc9I-3" vertex="1">
          <mxGeometry y="380" width="150" height="40" as="geometry" />
        </mxCell>
        <mxCell id="JTsjzEtY-qwizZK8rc9I-24" value="" style="edgeStyle=segmentEdgeStyle;endArrow=none;html=1;curved=0;rounded=0;endSize=8;startSize=8;sourcePerimeterSpacing=0;targetPerimeterSpacing=0;endFill=0;fontSize=9;strokeWidth=3;" parent="1" source="JTsjzEtY-qwizZK8rc9I-1" target="JTsjzEtY-qwizZK8rc9I-29" edge="1">
          <mxGeometry width="100" relative="1" as="geometry">
            <mxPoint x="-1400" y="87.13" as="sourcePoint" />
            <mxPoint x="-1190" y="90" as="targetPoint" />
            <Array as="points">
              <mxPoint x="-1630" y="590" />
            </Array>
          </mxGeometry>
        </mxCell>
        <mxCell id="JTsjzEtY-qwizZK8rc9I-27" value="INotifyPropertyChanged" style="swimlane;fontStyle=1;align=center;verticalAlign=top;childLayout=stackLayout;horizontal=1;startSize=26;horizontalStack=0;resizeParent=1;resizeLast=0;collapsible=1;marginBottom=0;rounded=0;shadow=0;strokeWidth=1;fontSize=9;" parent="1" vertex="1" collapsed="1">
          <mxGeometry x="-1619" y="310" width="160" height="26" as="geometry">
            <mxRectangle x="-1380" y="61" width="134" height="130" as="alternateBounds" />
          </mxGeometry>
        </mxCell>
        <mxCell id="JTsjzEtY-qwizZK8rc9I-28" style="edgeStyle=orthogonalEdgeStyle;rounded=0;orthogonalLoop=1;jettySize=auto;html=1;endArrow=block;endFill=0;fontSize=9;" parent="1" source="JTsjzEtY-qwizZK8rc9I-27" target="JTsjzEtY-qwizZK8rc9I-3" edge="1">
          <mxGeometry relative="1" as="geometry">
            <mxPoint x="-1048" y="303.5" as="sourcePoint" />
            <mxPoint x="-1090" y="303.5" as="targetPoint" />
            <Array as="points">
              <mxPoint x="-1300" y="323" />
              <mxPoint x="-1300" y="323" />
            </Array>
          </mxGeometry>
        </mxCell>
        <mxCell id="JTsjzEtY-qwizZK8rc9I-38" style="edgeStyle=orthogonalEdgeStyle;rounded=0;orthogonalLoop=1;jettySize=auto;html=1;endArrow=block;endFill=0;fontSize=9;" parent="1" source="JTsjzEtY-qwizZK8rc9I-27" target="JTsjzEtY-qwizZK8rc9I-29" edge="1">
          <mxGeometry relative="1" as="geometry">
            <mxPoint x="-1472" y="121.13" as="sourcePoint" />
            <mxPoint x="-1300" y="204.13" as="targetPoint" />
            <Array as="points">
              <mxPoint x="-1400" y="323" />
              <mxPoint x="-1400" y="440" />
              <mxPoint x="-1440" y="440" />
            </Array>
          </mxGeometry>
        </mxCell>
        <mxCell id="JTsjzEtY-qwizZK8rc9I-39" style="edgeStyle=orthogonalEdgeStyle;rounded=0;orthogonalLoop=1;jettySize=auto;html=1;endArrow=block;endFill=0;" parent="1" source="JTsjzEtY-qwizZK8rc9I-40" target="JTsjzEtY-qwizZK8rc9I-29" edge="1">
          <mxGeometry relative="1" as="geometry">
            <Array as="points">
              <mxPoint x="-1520" y="410" />
              <mxPoint x="-1520" y="410" />
            </Array>
          </mxGeometry>
        </mxCell>
        <mxCell id="JTsjzEtY-qwizZK8rc9I-40" value="ObservableCollection&lt;ControllerCommand&gt;" style="swimlane;fontStyle=1;align=center;verticalAlign=top;childLayout=stackLayout;horizontal=1;startSize=26;horizontalStack=0;resizeParent=1;resizeLast=0;collapsible=1;marginBottom=0;rounded=0;shadow=0;strokeWidth=1;fontSize=9;" parent="1" vertex="1" collapsed="1">
          <mxGeometry x="-1619" y="380" width="200" height="26" as="geometry">
            <mxRectangle x="-1870" y="277.5" width="204" height="32.5" as="alternateBounds" />
          </mxGeometry>
        </mxCell>
        <mxCell id="JTsjzEtY-qwizZK8rc9I-51" style="edgeStyle=orthogonalEdgeStyle;rounded=0;orthogonalLoop=1;jettySize=auto;html=1;endArrow=block;endFill=0;fontSize=9;" parent="1" source="JTsjzEtY-qwizZK8rc9I-27" target="JTsjzEtY-qwizZK8rc9I-41" edge="1">
          <mxGeometry relative="1" as="geometry">
            <mxPoint x="-1120" y="74" as="sourcePoint" />
            <mxPoint x="-1080" y="157" as="targetPoint" />
            <Array as="points">
              <mxPoint x="-1430" y="323" />
            </Array>
          </mxGeometry>
        </mxCell>
        <mxCell id="JTsjzEtY-qwizZK8rc9I-52" value="RobotController&#xa;" style="swimlane;fontStyle=1;align=center;verticalAlign=top;childLayout=stackLayout;horizontal=1;startSize=20;horizontalStack=0;resizeParent=1;resizeLast=0;collapsible=1;marginBottom=0;rounded=0;shadow=0;strokeWidth=1;fontSize=9;" parent="1" vertex="1">
          <mxGeometry x="-1147" y="520" width="240" height="640" as="geometry">
            <mxRectangle x="-3308" width="160" height="26" as="alternateBounds" />
          </mxGeometry>
        </mxCell>
        <mxCell id="JTsjzEtY-qwizZK8rc9I-53" value="+ ConnectResult : enum" style="text;align=left;verticalAlign=top;spacingLeft=4;spacingRight=4;overflow=hidden;rotatable=0;points=[[0,0.5],[1,0.5]];portConstraint=eastwest;rounded=0;shadow=0;html=0;fontSize=9;" parent="JTsjzEtY-qwizZK8rc9I-52" vertex="1">
          <mxGeometry y="20" width="240" height="20" as="geometry" />
        </mxCell>
        <mxCell id="JTsjzEtY-qwizZK8rc9I-54" value="+ IsConnected : bool" style="text;align=left;verticalAlign=top;spacingLeft=4;spacingRight=4;overflow=hidden;rotatable=0;points=[[0,0.5],[1,0.5]];portConstraint=eastwest;rounded=0;shadow=0;html=0;fontSize=9;" parent="JTsjzEtY-qwizZK8rc9I-52" vertex="1">
          <mxGeometry y="40" width="240" height="20" as="geometry" />
        </mxCell>
        <mxCell id="JTsjzEtY-qwizZK8rc9I-55" value="+ IsWorking : bool" style="text;align=left;verticalAlign=top;spacingLeft=4;spacingRight=4;overflow=hidden;rotatable=0;points=[[0,0.5],[1,0.5]];portConstraint=eastwest;rounded=0;shadow=0;html=0;fontSize=9;" parent="JTsjzEtY-qwizZK8rc9I-52" vertex="1">
          <mxGeometry y="60" width="240" height="20" as="geometry" />
        </mxCell>
        <mxCell id="JTsjzEtY-qwizZK8rc9I-56" value="- scanner : NetworkScanner" style="text;align=left;verticalAlign=top;spacingLeft=4;spacingRight=4;overflow=hidden;rotatable=0;points=[[0,0.5],[1,0.5]];portConstraint=eastwest;rounded=0;shadow=0;html=0;fontSize=9;" parent="JTsjzEtY-qwizZK8rc9I-52" vertex="1">
          <mxGeometry y="80" width="240" height="20" as="geometry" />
        </mxCell>
        <mxCell id="JTsjzEtY-qwizZK8rc9I-57" value="- controller : Controller = null" style="text;align=left;verticalAlign=top;spacingLeft=4;spacingRight=4;overflow=hidden;rotatable=0;points=[[0,0.5],[1,0.5]];portConstraint=eastwest;rounded=0;shadow=0;html=0;fontSize=9;" parent="JTsjzEtY-qwizZK8rc9I-52" vertex="1">
          <mxGeometry y="100" width="240" height="20" as="geometry" />
        </mxCell>
        <mxCell id="JTsjzEtY-qwizZK8rc9I-58" value="- mastership : Mastership = null" style="text;align=left;verticalAlign=top;spacingLeft=4;spacingRight=4;overflow=hidden;rotatable=0;points=[[0,0.5],[1,0.5]];portConstraint=eastwest;rounded=0;shadow=0;html=0;fontSize=9;" parent="JTsjzEtY-qwizZK8rc9I-52" vertex="1">
          <mxGeometry y="120" width="240" height="20" as="geometry" />
        </mxCell>
        <mxCell id="JTsjzEtY-qwizZK8rc9I-59" value="- TaskName : string = &quot;T_ROB1&quot;" style="text;align=left;verticalAlign=top;spacingLeft=4;spacingRight=4;overflow=hidden;rotatable=0;points=[[0,0.5],[1,0.5]];portConstraint=eastwest;rounded=0;shadow=0;html=0;fontSize=9;" parent="JTsjzEtY-qwizZK8rc9I-52" vertex="1">
          <mxGeometry y="140" width="240" height="20" as="geometry" />
        </mxCell>
        <mxCell id="JTsjzEtY-qwizZK8rc9I-60" value="- ModuleName : string = &quot;Module1&quot;" style="text;align=left;verticalAlign=top;spacingLeft=4;spacingRight=4;overflow=hidden;rotatable=0;points=[[0,0.5],[1,0.5]];portConstraint=eastwest;rounded=0;shadow=0;html=0;fontSize=9;" parent="JTsjzEtY-qwizZK8rc9I-52" vertex="1">
          <mxGeometry y="160" width="240" height="20" as="geometry" />
        </mxCell>
        <mxCell id="JTsjzEtY-qwizZK8rc9I-61" value="- task : Task" style="text;align=left;verticalAlign=top;spacingLeft=4;spacingRight=4;overflow=hidden;rotatable=0;points=[[0,0.5],[1,0.5]];portConstraint=eastwest;rounded=0;shadow=0;html=0;fontSize=9;" parent="JTsjzEtY-qwizZK8rc9I-52" vertex="1">
          <mxGeometry y="180" width="240" height="20" as="geometry" />
        </mxCell>
        <mxCell id="JTsjzEtY-qwizZK8rc9I-62" value="- module : Module" style="text;align=left;verticalAlign=top;spacingLeft=4;spacingRight=4;overflow=hidden;rotatable=0;points=[[0,0.5],[1,0.5]];portConstraint=eastwest;rounded=0;shadow=0;html=0;fontSize=9;" parent="JTsjzEtY-qwizZK8rc9I-52" vertex="1">
          <mxGeometry y="200" width="240" height="20" as="geometry" />
        </mxCell>
        <mxCell id="JTsjzEtY-qwizZK8rc9I-63" value="# proximitySensorA : RapidData" style="text;align=left;verticalAlign=top;spacingLeft=4;spacingRight=4;overflow=hidden;rotatable=0;points=[[0,0.5],[1,0.5]];portConstraint=eastwest;rounded=0;shadow=0;html=0;fontSize=9;" parent="JTsjzEtY-qwizZK8rc9I-52" vertex="1">
          <mxGeometry y="220" width="240" height="20" as="geometry" />
        </mxCell>
        <mxCell id="JTsjzEtY-qwizZK8rc9I-64" value="# proximitySensorB : RapidData" style="text;align=left;verticalAlign=top;spacingLeft=4;spacingRight=4;overflow=hidden;rotatable=0;points=[[0,0.5],[1,0.5]];portConstraint=eastwest;rounded=0;shadow=0;html=0;fontSize=9;" parent="JTsjzEtY-qwizZK8rc9I-52" vertex="1">
          <mxGeometry y="240" width="240" height="20" as="geometry" />
        </mxCell>
        <mxCell id="JTsjzEtY-qwizZK8rc9I-65" value="# presenseSensor: RapidData" style="text;align=left;verticalAlign=top;spacingLeft=4;spacingRight=4;overflow=hidden;rotatable=0;points=[[0,0.5],[1,0.5]];portConstraint=eastwest;rounded=0;shadow=0;html=0;fontSize=9;" parent="JTsjzEtY-qwizZK8rc9I-52" vertex="1">
          <mxGeometry y="260" width="240" height="20" as="geometry" />
        </mxCell>
        <mxCell id="JTsjzEtY-qwizZK8rc9I-66" value="# robotStatus: RapidData" style="text;align=left;verticalAlign=top;spacingLeft=4;spacingRight=4;overflow=hidden;rotatable=0;points=[[0,0.5],[1,0.5]];portConstraint=eastwest;rounded=0;shadow=0;html=0;fontSize=9;" parent="JTsjzEtY-qwizZK8rc9I-52" vertex="1">
          <mxGeometry y="280" width="240" height="20" as="geometry" />
        </mxCell>
        <mxCell id="JTsjzEtY-qwizZK8rc9I-67" value="# robotCommand: RapidData" style="text;align=left;verticalAlign=top;spacingLeft=4;spacingRight=4;overflow=hidden;rotatable=0;points=[[0,0.5],[1,0.5]];portConstraint=eastwest;rounded=0;shadow=0;html=0;fontSize=9;" parent="JTsjzEtY-qwizZK8rc9I-52" vertex="1">
          <mxGeometry y="300" width="240" height="20" as="geometry" />
        </mxCell>
        <mxCell id="JTsjzEtY-qwizZK8rc9I-68" value="" style="line;html=1;strokeWidth=1;align=left;verticalAlign=middle;spacingTop=-1;spacingLeft=3;spacingRight=3;rotatable=0;labelPosition=right;points=[];portConstraint=eastwest;fontSize=9;" parent="JTsjzEtY-qwizZK8rc9I-52" vertex="1">
          <mxGeometry y="320" width="240" height="10" as="geometry" />
        </mxCell>
        <mxCell id="JTsjzEtY-qwizZK8rc9I-69" value="+ RobotController()" style="text;align=left;verticalAlign=top;spacingLeft=4;spacingRight=4;overflow=hidden;rotatable=0;points=[[0,0.5],[1,0.5]];portConstraint=eastwest;rounded=0;shadow=0;html=0;fontSize=9;" parent="JTsjzEtY-qwizZK8rc9I-52" vertex="1">
          <mxGeometry y="330" width="240" height="20" as="geometry" />
        </mxCell>
        <mxCell id="JTsjzEtY-qwizZK8rc9I-70" value="+ ~RobotController()" style="text;align=left;verticalAlign=top;spacingLeft=4;spacingRight=4;overflow=hidden;rotatable=0;points=[[0,0.5],[1,0.5]];portConstraint=eastwest;rounded=0;shadow=0;html=0;fontSize=9;" parent="JTsjzEtY-qwizZK8rc9I-52" vertex="1">
          <mxGeometry y="350" width="240" height="20" as="geometry" />
        </mxCell>
        <mxCell id="JTsjzEtY-qwizZK8rc9I-71" value="+ TryConnectAsync(string serialNumberRequested)" style="text;align=left;verticalAlign=top;spacingLeft=4;spacingRight=4;overflow=hidden;rotatable=0;points=[[0,0.5],[1,0.5]];portConstraint=eastwest;rounded=0;shadow=0;html=0;fontSize=9;" parent="JTsjzEtY-qwizZK8rc9I-52" vertex="1">
          <mxGeometry y="370" width="240" height="20" as="geometry" />
        </mxCell>
        <mxCell id="JTsjzEtY-qwizZK8rc9I-72" value="+ TryConnectAsync(IPAddress IPAddressRequested)" style="text;align=left;verticalAlign=top;spacingLeft=4;spacingRight=4;overflow=hidden;rotatable=0;points=[[0,0.5],[1,0.5]];portConstraint=eastwest;rounded=0;shadow=0;html=0;fontSize=9;" parent="JTsjzEtY-qwizZK8rc9I-52" vertex="1">
          <mxGeometry y="390" width="240" height="20" as="geometry" />
        </mxCell>
        <mxCell id="JTsjzEtY-qwizZK8rc9I-73" value="- TryConnectAsyncInternal()" style="text;align=left;verticalAlign=top;spacingLeft=4;spacingRight=4;overflow=hidden;rotatable=0;points=[[0,0.5],[1,0.5]];portConstraint=eastwest;rounded=0;shadow=0;html=0;fontSize=9;" parent="JTsjzEtY-qwizZK8rc9I-52" vertex="1">
          <mxGeometry y="410" width="240" height="20" as="geometry" />
        </mxCell>
        <mxCell id="JTsjzEtY-qwizZK8rc9I-74" value="+ Disconnect()" style="text;align=left;verticalAlign=top;spacingLeft=4;spacingRight=4;overflow=hidden;rotatable=0;points=[[0,0.5],[1,0.5]];portConstraint=eastwest;rounded=0;shadow=0;html=0;fontSize=9;" parent="JTsjzEtY-qwizZK8rc9I-52" vertex="1">
          <mxGeometry y="430" width="240" height="20" as="geometry" />
        </mxCell>
        <mxCell id="JTsjzEtY-qwizZK8rc9I-75" value="- IsControllerRequested()" style="text;align=left;verticalAlign=top;spacingLeft=4;spacingRight=4;overflow=hidden;rotatable=0;points=[[0,0.5],[1,0.5]];portConstraint=eastwest;rounded=0;shadow=0;html=0;fontSize=9;" parent="JTsjzEtY-qwizZK8rc9I-52" vertex="1">
          <mxGeometry y="450" width="240" height="20" as="geometry" />
        </mxCell>
        <mxCell id="JTsjzEtY-qwizZK8rc9I-76" value="+ IsMobileRobotInStation()" style="text;align=left;verticalAlign=top;spacingLeft=4;spacingRight=4;overflow=hidden;rotatable=0;points=[[0,0.5],[1,0.5]];portConstraint=eastwest;rounded=0;shadow=0;html=0;fontSize=9;" parent="JTsjzEtY-qwizZK8rc9I-52" vertex="1">
          <mxGeometry y="470" width="240" height="20" as="geometry" />
        </mxCell>
        <mxCell id="JTsjzEtY-qwizZK8rc9I-77" value="+ DoesMobileRobotHasACup()" style="text;align=left;verticalAlign=top;spacingLeft=4;spacingRight=4;overflow=hidden;rotatable=0;points=[[0,0.5],[1,0.5]];portConstraint=eastwest;rounded=0;shadow=0;html=0;fontSize=9;" parent="JTsjzEtY-qwizZK8rc9I-52" vertex="1">
          <mxGeometry y="490" width="240" height="20" as="geometry" />
        </mxCell>
        <mxCell id="JTsjzEtY-qwizZK8rc9I-78" value="+ MovePallet()" style="text;align=left;verticalAlign=top;spacingLeft=4;spacingRight=4;overflow=hidden;rotatable=0;points=[[0,0.5],[1,0.5]];portConstraint=eastwest;rounded=0;shadow=0;html=0;fontSize=9;" parent="JTsjzEtY-qwizZK8rc9I-52" vertex="1">
          <mxGeometry y="510" width="240" height="20" as="geometry" />
        </mxCell>
        <mxCell id="JTsjzEtY-qwizZK8rc9I-79" value="+ ReadRobotStatus()" style="text;align=left;verticalAlign=top;spacingLeft=4;spacingRight=4;overflow=hidden;rotatable=0;points=[[0,0.5],[1,0.5]];portConstraint=eastwest;rounded=0;shadow=0;html=0;fontSize=9;" parent="JTsjzEtY-qwizZK8rc9I-52" vertex="1">
          <mxGeometry y="530" width="240" height="20" as="geometry" />
        </mxCell>
        <mxCell id="JTsjzEtY-qwizZK8rc9I-80" value="- DisposeController()" style="text;align=left;verticalAlign=top;spacingLeft=4;spacingRight=4;overflow=hidden;rotatable=0;points=[[0,0.5],[1,0.5]];portConstraint=eastwest;rounded=0;shadow=0;html=0;fontSize=9;" parent="JTsjzEtY-qwizZK8rc9I-52" vertex="1">
          <mxGeometry y="550" width="240" height="20" as="geometry" />
        </mxCell>
        <mxCell id="JTsjzEtY-qwizZK8rc9I-81" value="- AssociateVariables()" style="text;align=left;verticalAlign=top;spacingLeft=4;spacingRight=4;overflow=hidden;rotatable=0;points=[[0,0.5],[1,0.5]];portConstraint=eastwest;rounded=0;shadow=0;html=0;fontSize=9;" parent="JTsjzEtY-qwizZK8rc9I-52" vertex="1">
          <mxGeometry y="570" width="240" height="20" as="geometry" />
        </mxCell>
        <mxCell id="JTsjzEtY-qwizZK8rc9I-82" value="" style="line;html=1;strokeWidth=1;align=left;verticalAlign=middle;spacingTop=-1;spacingLeft=3;spacingRight=3;rotatable=0;labelPosition=right;points=[];portConstraint=eastwest;fontSize=9;" parent="JTsjzEtY-qwizZK8rc9I-52" vertex="1">
          <mxGeometry y="590" width="240" height="10" as="geometry" />
        </mxCell>
        <mxCell id="JTsjzEtY-qwizZK8rc9I-83" value="zzgl. Properties und Events/ &#xa;Eventhandler und virtuelle Klassenüberladung" style="text;align=left;verticalAlign=top;spacingLeft=4;spacingRight=4;overflow=hidden;rotatable=0;points=[[0,0.5],[1,0.5]];portConstraint=eastwest;fontSize=9;" parent="JTsjzEtY-qwizZK8rc9I-52" vertex="1">
          <mxGeometry y="600" width="240" height="40" as="geometry" />
        </mxCell>
        <mxCell id="JTsjzEtY-qwizZK8rc9I-84" style="edgeStyle=orthogonalEdgeStyle;rounded=0;orthogonalLoop=1;jettySize=auto;html=1;endArrow=block;endFill=0;fontSize=9;" parent="1" source="JTsjzEtY-qwizZK8rc9I-41" target="JTsjzEtY-qwizZK8rc9I-52" edge="1">
          <mxGeometry relative="1" as="geometry">
            <mxPoint x="-990" y="156" as="sourcePoint" />
            <mxPoint x="-740" y="311" as="targetPoint" />
            <Array as="points">
              <mxPoint x="-1160" y="40" />
              <mxPoint x="-1160" y="550" />
            </Array>
          </mxGeometry>
        </mxCell>
        <mxCell id="JTsjzEtY-qwizZK8rc9I-86" value="" style="edgeStyle=segmentEdgeStyle;endArrow=none;html=1;curved=0;rounded=0;endSize=8;startSize=8;sourcePerimeterSpacing=0;targetPerimeterSpacing=0;endFill=0;fontSize=9;strokeWidth=3;" parent="1" source="JTsjzEtY-qwizZK8rc9I-85" target="JTsjzEtY-qwizZK8rc9I-52" edge="1">
          <mxGeometry width="100" relative="1" as="geometry">
            <mxPoint x="-1273" y="560" as="sourcePoint" />
            <mxPoint x="-1191" y="659" as="targetPoint" />
            <Array as="points">
              <mxPoint x="-840" y="33" />
              <mxPoint x="-840" y="600" />
            </Array>
          </mxGeometry>
        </mxCell>
        <mxCell id="JTsjzEtY-qwizZK8rc9I-90" value="" style="edgeStyle=segmentEdgeStyle;endArrow=none;html=1;curved=0;rounded=0;endSize=8;startSize=8;sourcePerimeterSpacing=0;targetPerimeterSpacing=0;endFill=0;fontSize=9;strokeWidth=3;" parent="1" source="JTsjzEtY-qwizZK8rc9I-89" target="JTsjzEtY-qwizZK8rc9I-52" edge="1">
          <mxGeometry width="100" relative="1" as="geometry">
            <mxPoint x="-1273" y="637" as="sourcePoint" />
            <mxPoint x="-1403" y="587" as="targetPoint" />
            <Array as="points">
              <mxPoint x="-840" y="93" />
              <mxPoint x="-840" y="600" />
            </Array>
          </mxGeometry>
        </mxCell>
        <mxCell id="JTsjzEtY-qwizZK8rc9I-94" value="" style="edgeStyle=segmentEdgeStyle;endArrow=none;html=1;curved=0;rounded=0;endSize=8;startSize=8;sourcePerimeterSpacing=0;targetPerimeterSpacing=0;endFill=0;fontSize=9;strokeWidth=3;" parent="1" source="JTsjzEtY-qwizZK8rc9I-93" target="JTsjzEtY-qwizZK8rc9I-52" edge="1">
          <mxGeometry width="100" relative="1" as="geometry">
            <mxPoint x="-1293" y="663" as="sourcePoint" />
            <mxPoint x="-1403" y="663" as="targetPoint" />
            <Array as="points">
              <mxPoint x="-840" y="155" />
              <mxPoint x="-840" y="600" />
            </Array>
          </mxGeometry>
        </mxCell>
        <mxCell id="JTsjzEtY-qwizZK8rc9I-98" value="" style="edgeStyle=segmentEdgeStyle;endArrow=none;html=1;curved=0;rounded=0;endSize=8;startSize=8;sourcePerimeterSpacing=0;targetPerimeterSpacing=0;endFill=0;fontSize=9;strokeWidth=3;" parent="1" source="JTsjzEtY-qwizZK8rc9I-97" target="JTsjzEtY-qwizZK8rc9I-52" edge="1">
          <mxGeometry width="100" relative="1" as="geometry">
            <mxPoint x="-1293" y="719" as="sourcePoint" />
            <mxPoint x="-1403" y="719" as="targetPoint" />
            <Array as="points">
              <mxPoint x="-840" y="210" />
              <mxPoint x="-840" y="600" />
            </Array>
          </mxGeometry>
        </mxCell>
        <mxCell id="JTsjzEtY-qwizZK8rc9I-102" value="" style="edgeStyle=segmentEdgeStyle;endArrow=none;html=1;curved=0;rounded=0;endSize=8;startSize=8;sourcePerimeterSpacing=0;targetPerimeterSpacing=0;endFill=0;fontSize=9;strokeWidth=3;" parent="1" source="JTsjzEtY-qwizZK8rc9I-101" target="JTsjzEtY-qwizZK8rc9I-52" edge="1">
          <mxGeometry width="100" relative="1" as="geometry">
            <mxPoint x="-810" y="787" as="sourcePoint" />
            <mxPoint x="-920" y="787" as="targetPoint" />
            <Array as="points" />
          </mxGeometry>
        </mxCell>
        <mxCell id="JTsjzEtY-qwizZK8rc9I-106" value="" style="edgeStyle=segmentEdgeStyle;endArrow=none;html=1;curved=0;rounded=0;endSize=8;startSize=8;sourcePerimeterSpacing=0;targetPerimeterSpacing=0;endFill=0;fontSize=9;strokeWidth=3;" parent="1" source="JTsjzEtY-qwizZK8rc9I-105" target="JTsjzEtY-qwizZK8rc9I-52" edge="1">
          <mxGeometry width="100" relative="1" as="geometry">
            <mxPoint x="-810" y="921" as="sourcePoint" />
            <mxPoint x="-890" y="833" as="targetPoint" />
            <Array as="points">
              <mxPoint x="-840" y="271" />
              <mxPoint x="-840" y="600" />
            </Array>
          </mxGeometry>
        </mxCell>
        <mxCell id="JTsjzEtY-qwizZK8rc9I-119" style="edgeStyle=orthogonalEdgeStyle;rounded=0;orthogonalLoop=1;jettySize=auto;html=1;endArrow=block;endFill=0;fontSize=9;" parent="1" source="JTsjzEtY-qwizZK8rc9I-41" target="JTsjzEtY-qwizZK8rc9I-109" edge="1">
          <mxGeometry relative="1" as="geometry">
            <mxPoint x="-810" y="283.5" as="sourcePoint" />
            <mxPoint x="-810" y="364.5" as="targetPoint" />
            <Array as="points">
              <mxPoint x="-1380" y="530" />
              <mxPoint x="-1380" y="530" />
            </Array>
          </mxGeometry>
        </mxCell>
        <mxCell id="JTsjzEtY-qwizZK8rc9I-120" value="System.Windows.Visibility" style="swimlane;fontStyle=1;align=center;verticalAlign=top;childLayout=stackLayout;horizontal=1;startSize=26;horizontalStack=0;resizeParent=1;resizeLast=0;collapsible=1;marginBottom=0;rounded=0;shadow=0;strokeWidth=1;fontSize=9;" parent="1" vertex="1" collapsed="1">
          <mxGeometry x="-1360" y="625" width="160" height="26" as="geometry">
            <mxRectangle x="-1380" y="61" width="134" height="130" as="alternateBounds" />
          </mxGeometry>
        </mxCell>
        <mxCell id="JTsjzEtY-qwizZK8rc9I-121" style="edgeStyle=orthogonalEdgeStyle;rounded=0;orthogonalLoop=1;jettySize=auto;html=1;endArrow=block;endFill=0;fontSize=9;" parent="1" source="JTsjzEtY-qwizZK8rc9I-120" target="JTsjzEtY-qwizZK8rc9I-109" edge="1">
          <mxGeometry relative="1" as="geometry">
            <mxPoint x="-400" y="175.13" as="sourcePoint" />
            <mxPoint x="-215" y="61.129999999999995" as="targetPoint" />
            <Array as="points">
              <mxPoint x="-1283" y="660" />
              <mxPoint x="-1283" y="660" />
            </Array>
          </mxGeometry>
        </mxCell>
        <mxCell id="JTsjzEtY-qwizZK8rc9I-135" value="" style="edgeStyle=segmentEdgeStyle;endArrow=none;html=1;curved=0;rounded=0;endSize=8;startSize=8;targetPerimeterSpacing=0;endFill=0;fontSize=9;strokeWidth=3;startArrow=none;" parent="1" source="JTsjzEtY-qwizZK8rc9I-122" target="JTsjzEtY-qwizZK8rc9I-1" edge="1">
          <mxGeometry width="100" relative="1" as="geometry">
            <mxPoint x="-1410" y="562" as="sourcePoint" />
            <mxPoint x="-1410" y="500" as="targetPoint" />
            <Array as="points">
              <mxPoint x="-1630" y="1020" />
            </Array>
          </mxGeometry>
        </mxCell>
        <mxCell id="JTsjzEtY-qwizZK8rc9I-138" value="" style="edgeStyle=segmentEdgeStyle;endArrow=none;html=1;curved=0;rounded=0;endSize=8;startSize=8;sourcePerimeterSpacing=0;targetPerimeterSpacing=0;endFill=0;fontSize=9;strokeWidth=3;" parent="1" source="JTsjzEtY-qwizZK8rc9I-41" target="JTsjzEtY-qwizZK8rc9I-1" edge="1">
          <mxGeometry width="100" relative="1" as="geometry">
            <mxPoint x="-1290" y="890" as="sourcePoint" />
            <mxPoint x="-1290" y="585" as="targetPoint" />
            <Array as="points">
              <mxPoint x="-1630" y="120" />
            </Array>
          </mxGeometry>
        </mxCell>
        <mxCell id="JTsjzEtY-qwizZK8rc9I-141" value="" style="edgeStyle=segmentEdgeStyle;endArrow=none;html=1;curved=0;rounded=0;endSize=8;startSize=8;sourcePerimeterSpacing=0;targetPerimeterSpacing=0;endFill=0;fontSize=9;strokeWidth=3;" parent="1" source="JTsjzEtY-qwizZK8rc9I-109" target="JTsjzEtY-qwizZK8rc9I-1" edge="1">
          <mxGeometry width="100" relative="1" as="geometry">
            <mxPoint x="-1017" y="337" as="sourcePoint" />
            <mxPoint x="-1450" y="713" as="targetPoint" />
            <Array as="points">
              <mxPoint x="-1420" y="795" />
              <mxPoint x="-1420" y="795" />
            </Array>
          </mxGeometry>
        </mxCell>
        <mxCell id="JTsjzEtY-qwizZK8rc9I-149" value="" style="edgeStyle=segmentEdgeStyle;endArrow=none;html=1;curved=0;rounded=0;endSize=8;startSize=8;sourcePerimeterSpacing=0;targetPerimeterSpacing=0;endFill=0;fontSize=9;strokeWidth=3;" parent="1" source="JTsjzEtY-qwizZK8rc9I-52" edge="1">
          <mxGeometry width="100" relative="1" as="geometry">
            <mxPoint x="-1130" y="1101" as="sourcePoint" />
            <mxPoint x="-1230" y="1101" as="targetPoint" />
            <Array as="points">
              <mxPoint x="-1190" y="1101" />
              <mxPoint x="-1190" y="1101" />
            </Array>
          </mxGeometry>
        </mxCell>
        <mxCell id="Cmb3niqD3z5QselwYJK5-2" value="" style="group" parent="1" vertex="1" connectable="0">
          <mxGeometry x="-1650" y="899" width="290" height="260" as="geometry" />
        </mxCell>
        <mxCell id="JTsjzEtY-qwizZK8rc9I-122" value="RobotControllerProperties" style="swimlane;fontStyle=1;align=center;verticalAlign=top;childLayout=stackLayout;horizontal=1;startSize=20;horizontalStack=0;resizeParent=1;resizeLast=0;collapsible=1;marginBottom=0;rounded=0;shadow=0;strokeWidth=1;fontSize=9;" parent="Cmb3niqD3z5QselwYJK5-2" vertex="1">
          <mxGeometry x="130" width="160" height="260" as="geometry">
            <mxRectangle x="-3308" width="160" height="26" as="alternateBounds" />
          </mxGeometry>
        </mxCell>
        <mxCell id="JTsjzEtY-qwizZK8rc9I-123" value="- uiIpAddr : string = string.Empty" style="text;align=left;verticalAlign=top;spacingLeft=4;spacingRight=4;overflow=hidden;rotatable=0;points=[[0,0.5],[1,0.5]];portConstraint=eastwest;rounded=0;shadow=0;html=0;fontSize=9;" parent="JTsjzEtY-qwizZK8rc9I-122" vertex="1">
          <mxGeometry y="20" width="160" height="20" as="geometry" />
        </mxCell>
        <mxCell id="JTsjzEtY-qwizZK8rc9I-124" value="- uiMaxTries : string = string.Empty" style="text;align=left;verticalAlign=top;spacingLeft=4;spacingRight=4;overflow=hidden;rotatable=0;points=[[0,0.5],[1,0.5]];portConstraint=eastwest;rounded=0;shadow=0;html=0;fontSize=9;" parent="JTsjzEtY-qwizZK8rc9I-122" vertex="1">
          <mxGeometry y="40" width="160" height="20" as="geometry" />
        </mxCell>
        <mxCell id="JTsjzEtY-qwizZK8rc9I-125" value="- confIpAddr : string = string.Empty" style="text;align=left;verticalAlign=top;spacingLeft=4;spacingRight=4;overflow=hidden;rotatable=0;points=[[0,0.5],[1,0.5]];portConstraint=eastwest;rounded=0;shadow=0;html=0;fontSize=9;" parent="JTsjzEtY-qwizZK8rc9I-122" vertex="1">
          <mxGeometry y="60" width="160" height="20" as="geometry" />
        </mxCell>
        <mxCell id="JTsjzEtY-qwizZK8rc9I-126" value="- confMaxTries : string = string.Empty" style="text;align=left;verticalAlign=top;spacingLeft=4;spacingRight=4;overflow=hidden;rotatable=0;points=[[0,0.5],[1,0.5]];portConstraint=eastwest;rounded=0;shadow=0;html=0;fontSize=9;" parent="JTsjzEtY-qwizZK8rc9I-122" vertex="1">
          <mxGeometry y="80" width="160" height="20" as="geometry" />
        </mxCell>
        <mxCell id="JTsjzEtY-qwizZK8rc9I-127" value="" style="line;html=1;strokeWidth=1;align=left;verticalAlign=middle;spacingTop=-1;spacingLeft=3;spacingRight=3;rotatable=0;labelPosition=right;points=[];portConstraint=eastwest;fontSize=9;" parent="JTsjzEtY-qwizZK8rc9I-122" vertex="1">
          <mxGeometry y="100" width="160" height="10" as="geometry" />
        </mxCell>
        <mxCell id="JTsjzEtY-qwizZK8rc9I-128" value="+ SetDefault()" style="text;align=left;verticalAlign=top;spacingLeft=4;spacingRight=4;overflow=hidden;rotatable=0;points=[[0,0.5],[1,0.5]];portConstraint=eastwest;rounded=0;shadow=0;html=0;fontSize=9;" parent="JTsjzEtY-qwizZK8rc9I-122" vertex="1">
          <mxGeometry y="110" width="160" height="20" as="geometry" />
        </mxCell>
        <mxCell id="JTsjzEtY-qwizZK8rc9I-129" value="+ Load()" style="text;align=left;verticalAlign=top;spacingLeft=4;spacingRight=4;overflow=hidden;rotatable=0;points=[[0,0.5],[1,0.5]];portConstraint=eastwest;rounded=0;shadow=0;html=0;fontSize=9;" parent="JTsjzEtY-qwizZK8rc9I-122" vertex="1">
          <mxGeometry y="130" width="160" height="20" as="geometry" />
        </mxCell>
        <mxCell id="JTsjzEtY-qwizZK8rc9I-130" value="+ Cancel()" style="text;align=left;verticalAlign=top;spacingLeft=4;spacingRight=4;overflow=hidden;rotatable=0;points=[[0,0.5],[1,0.5]];portConstraint=eastwest;rounded=0;shadow=0;html=0;fontSize=9;" parent="JTsjzEtY-qwizZK8rc9I-122" vertex="1">
          <mxGeometry y="150" width="160" height="20" as="geometry" />
        </mxCell>
        <mxCell id="JTsjzEtY-qwizZK8rc9I-131" value="+ Save()" style="text;align=left;verticalAlign=top;spacingLeft=4;spacingRight=4;overflow=hidden;rotatable=0;points=[[0,0.5],[1,0.5]];portConstraint=eastwest;rounded=0;shadow=0;html=0;fontSize=9;" parent="JTsjzEtY-qwizZK8rc9I-122" vertex="1">
          <mxGeometry y="170" width="160" height="20" as="geometry" />
        </mxCell>
        <mxCell id="JTsjzEtY-qwizZK8rc9I-132" value="+ ValidateInput()" style="text;align=left;verticalAlign=top;spacingLeft=4;spacingRight=4;overflow=hidden;rotatable=0;points=[[0,0.5],[1,0.5]];portConstraint=eastwest;rounded=0;shadow=0;html=0;fontSize=9;" parent="JTsjzEtY-qwizZK8rc9I-122" vertex="1">
          <mxGeometry y="190" width="160" height="20" as="geometry" />
        </mxCell>
        <mxCell id="JTsjzEtY-qwizZK8rc9I-133" value="" style="line;html=1;strokeWidth=1;align=left;verticalAlign=middle;spacingTop=-1;spacingLeft=3;spacingRight=3;rotatable=0;labelPosition=right;points=[];portConstraint=eastwest;fontSize=9;" parent="JTsjzEtY-qwizZK8rc9I-122" vertex="1">
          <mxGeometry y="210" width="160" height="10" as="geometry" />
        </mxCell>
        <mxCell id="JTsjzEtY-qwizZK8rc9I-134" value="zzgl. Properties und Events/ &#xa;Eventhandler" style="text;align=left;verticalAlign=top;spacingLeft=4;spacingRight=4;overflow=hidden;rotatable=0;points=[[0,0.5],[1,0.5]];portConstraint=eastwest;fontSize=9;" parent="JTsjzEtY-qwizZK8rc9I-122" vertex="1">
          <mxGeometry y="220" width="160" height="40" as="geometry" />
        </mxCell>
        <mxCell id="JTsjzEtY-qwizZK8rc9I-137" value="controllerProperties" style="text;html=1;align=right;verticalAlign=middle;resizable=0;points=[];autosize=1;strokeColor=none;fillColor=none;" parent="Cmb3niqD3z5QselwYJK5-2" vertex="1">
          <mxGeometry y="90.5" width="130" height="30" as="geometry" />
        </mxCell>
        <mxCell id="JTsjzEtY-qwizZK8rc9I-136" value="0..1" style="text;html=1;align=right;verticalAlign=middle;resizable=0;points=[];autosize=1;strokeColor=none;fillColor=none;" parent="Cmb3niqD3z5QselwYJK5-2" vertex="1">
          <mxGeometry x="88" y="120" width="40" height="30" as="geometry" />
        </mxCell>
        <mxCell id="Cmb3niqD3z5QselwYJK5-1" value="" style="edgeStyle=segmentEdgeStyle;endArrow=none;html=1;curved=0;rounded=0;endSize=8;startSize=8;sourcePerimeterSpacing=0;endFill=0;fontSize=9;strokeWidth=3;" parent="Cmb3niqD3z5QselwYJK5-2" source="JTsjzEtY-qwizZK8rc9I-122" target="JTsjzEtY-qwizZK8rc9I-136" edge="1">
          <mxGeometry width="100" relative="1" as="geometry">
            <mxPoint x="130" y="130" as="sourcePoint" />
            <mxPoint x="-40" y="-253.5" as="targetPoint" />
            <Array as="points" />
          </mxGeometry>
        </mxCell>
        <mxCell id="Cmb3niqD3z5QselwYJK5-3" value="" style="group" parent="1" vertex="1" connectable="0">
          <mxGeometry x="-1476" y="677.12" width="295" height="201.88" as="geometry" />
        </mxCell>
        <mxCell id="JTsjzEtY-qwizZK8rc9I-109" value="RobotSimulator" style="swimlane;fontStyle=1;align=center;verticalAlign=top;childLayout=stackLayout;horizontal=1;startSize=20;horizontalStack=0;resizeParent=1;resizeLast=0;collapsible=1;marginBottom=0;rounded=0;shadow=0;strokeWidth=1;fontSize=9;" parent="Cmb3niqD3z5QselwYJK5-3" vertex="1">
          <mxGeometry x="90" width="205" height="201.88" as="geometry">
            <mxRectangle x="-3308" width="160" height="26" as="alternateBounds" />
          </mxGeometry>
        </mxCell>
        <mxCell id="JTsjzEtY-qwizZK8rc9I-110" value="- shouldShow : bool = false" style="text;align=left;verticalAlign=top;spacingLeft=4;spacingRight=4;overflow=hidden;rotatable=0;points=[[0,0.5],[1,0.5]];portConstraint=eastwest;rounded=0;shadow=0;html=0;fontSize=9;" parent="JTsjzEtY-qwizZK8rc9I-109" vertex="1">
          <mxGeometry y="20" width="205" height="20" as="geometry" />
        </mxCell>
        <mxCell id="JTsjzEtY-qwizZK8rc9I-111" value="visibilityControl : Visibility = Visibility.Collapsed" style="text;align=left;verticalAlign=top;spacingLeft=4;spacingRight=4;overflow=hidden;rotatable=0;points=[[0,0.5],[1,0.5]];portConstraint=eastwest;rounded=0;shadow=0;html=0;fontSize=9;" parent="JTsjzEtY-qwizZK8rc9I-109" vertex="1">
          <mxGeometry y="40" width="205" height="20" as="geometry" />
        </mxCell>
        <mxCell id="JTsjzEtY-qwizZK8rc9I-112" value="isMobileRobotReadyToLeave : bool = false" style="text;align=left;verticalAlign=top;spacingLeft=4;spacingRight=4;overflow=hidden;rotatable=0;points=[[0,0.5],[1,0.5]];portConstraint=eastwest;rounded=0;shadow=0;html=0;fontSize=9;" parent="JTsjzEtY-qwizZK8rc9I-109" vertex="1">
          <mxGeometry y="60" width="205" height="20" as="geometry" />
        </mxCell>
        <mxCell id="JTsjzEtY-qwizZK8rc9I-113" value="hasNonTransparentCup : bool = false" style="text;align=left;verticalAlign=top;spacingLeft=4;spacingRight=4;overflow=hidden;rotatable=0;points=[[0,0.5],[1,0.5]];portConstraint=eastwest;rounded=0;shadow=0;html=0;fontSize=9;" parent="JTsjzEtY-qwizZK8rc9I-109" vertex="1">
          <mxGeometry y="80" width="205" height="20" as="geometry" />
        </mxCell>
        <mxCell id="JTsjzEtY-qwizZK8rc9I-114" value="isBusy : bool = false" style="text;align=left;verticalAlign=top;spacingLeft=4;spacingRight=4;overflow=hidden;rotatable=0;points=[[0,0.5],[1,0.5]];portConstraint=eastwest;rounded=0;shadow=0;html=0;fontSize=9;" parent="JTsjzEtY-qwizZK8rc9I-109" vertex="1">
          <mxGeometry y="100" width="205" height="20" as="geometry" />
        </mxCell>
        <mxCell id="JTsjzEtY-qwizZK8rc9I-115" value="" style="line;html=1;strokeWidth=1;align=left;verticalAlign=middle;spacingTop=-1;spacingLeft=3;spacingRight=3;rotatable=0;labelPosition=right;points=[];portConstraint=eastwest;fontSize=9;" parent="JTsjzEtY-qwizZK8rc9I-109" vertex="1">
          <mxGeometry y="120" width="205" height="10" as="geometry" />
        </mxCell>
        <mxCell id="JTsjzEtY-qwizZK8rc9I-116" value="+ RobotSimulator()" style="text;align=left;verticalAlign=top;spacingLeft=4;spacingRight=4;overflow=hidden;rotatable=0;points=[[0,0.5],[1,0.5]];portConstraint=eastwest;rounded=0;shadow=0;html=0;fontSize=9;" parent="JTsjzEtY-qwizZK8rc9I-109" vertex="1">
          <mxGeometry y="130" width="205" height="20" as="geometry" />
        </mxCell>
        <mxCell id="JTsjzEtY-qwizZK8rc9I-117" value="" style="line;html=1;strokeWidth=1;align=left;verticalAlign=middle;spacingTop=-1;spacingLeft=3;spacingRight=3;rotatable=0;labelPosition=right;points=[];portConstraint=eastwest;fontSize=9;" parent="JTsjzEtY-qwizZK8rc9I-109" vertex="1">
          <mxGeometry y="150" width="205" height="10" as="geometry" />
        </mxCell>
        <mxCell id="JTsjzEtY-qwizZK8rc9I-118" value="zzgl. Properties und Events/ &#xa;Eventhandler" style="text;align=left;verticalAlign=top;spacingLeft=4;spacingRight=4;overflow=hidden;rotatable=0;points=[[0,0.5],[1,0.5]];portConstraint=eastwest;fontSize=9;" parent="JTsjzEtY-qwizZK8rc9I-109" vertex="1">
          <mxGeometry y="160" width="205" height="40" as="geometry" />
        </mxCell>
        <mxCell id="JTsjzEtY-qwizZK8rc9I-142" value="controllerSim" style="text;html=1;align=right;verticalAlign=middle;resizable=0;points=[];autosize=1;strokeColor=none;fillColor=none;" parent="Cmb3niqD3z5QselwYJK5-3" vertex="1">
          <mxGeometry y="119" width="90" height="30" as="geometry" />
        </mxCell>
        <mxCell id="JTsjzEtY-qwizZK8rc9I-143" value="0..1" style="text;html=1;align=right;verticalAlign=middle;resizable=0;points=[];autosize=1;strokeColor=none;fillColor=none;" parent="Cmb3niqD3z5QselwYJK5-3" vertex="1">
          <mxGeometry x="50" y="89" width="40" height="30" as="geometry" />
        </mxCell>
        <mxCell id="Cmb3niqD3z5QselwYJK5-4" value="" style="group" parent="1" vertex="1" connectable="0">
          <mxGeometry x="-1619" y="500" width="218" height="180" as="geometry" />
        </mxCell>
        <mxCell id="JTsjzEtY-qwizZK8rc9I-25" value="0..1" style="text;html=1;align=right;verticalAlign=middle;resizable=0;points=[];autosize=1;strokeColor=none;fillColor=none;" parent="Cmb3niqD3z5QselwYJK5-4" vertex="1">
          <mxGeometry x="40" y="90" width="40" height="30" as="geometry" />
        </mxCell>
        <mxCell id="JTsjzEtY-qwizZK8rc9I-26" value="commands" style="text;html=1;align=right;verticalAlign=middle;resizable=0;points=[];autosize=1;strokeColor=none;fillColor=none;" parent="Cmb3niqD3z5QselwYJK5-4" vertex="1">
          <mxGeometry y="60" width="80" height="30" as="geometry" />
        </mxCell>
        <mxCell id="JTsjzEtY-qwizZK8rc9I-29" value="ControllerCommandList" style="swimlane;fontStyle=1;align=center;verticalAlign=top;childLayout=stackLayout;horizontal=1;startSize=20;horizontalStack=0;resizeParent=1;resizeLast=0;collapsible=1;marginBottom=0;rounded=0;shadow=0;strokeWidth=1;fontSize=9;" parent="Cmb3niqD3z5QselwYJK5-4" vertex="1">
          <mxGeometry x="80" width="138" height="180" as="geometry">
            <mxRectangle x="-3308" width="160" height="26" as="alternateBounds" />
          </mxGeometry>
        </mxCell>
        <mxCell id="JTsjzEtY-qwizZK8rc9I-30" value="+ Filename : string" style="text;align=left;verticalAlign=top;spacingLeft=4;spacingRight=4;overflow=hidden;rotatable=0;points=[[0,0.5],[1,0.5]];portConstraint=eastwest;rounded=0;shadow=0;html=0;fontSize=9;" parent="JTsjzEtY-qwizZK8rc9I-29" vertex="1">
          <mxGeometry y="20" width="138" height="20" as="geometry" />
        </mxCell>
        <mxCell id="JTsjzEtY-qwizZK8rc9I-31" value="" style="line;html=1;strokeWidth=1;align=left;verticalAlign=middle;spacingTop=-1;spacingLeft=3;spacingRight=3;rotatable=0;labelPosition=right;points=[];portConstraint=eastwest;fontSize=9;" parent="JTsjzEtY-qwizZK8rc9I-29" vertex="1">
          <mxGeometry y="40" width="138" height="10" as="geometry" />
        </mxCell>
        <mxCell id="JTsjzEtY-qwizZK8rc9I-32" value="+ Load(string filename)" style="text;align=left;verticalAlign=top;spacingLeft=4;spacingRight=4;overflow=hidden;rotatable=0;points=[[0,0.5],[1,0.5]];portConstraint=eastwest;rounded=0;shadow=0;html=0;fontSize=9;" parent="JTsjzEtY-qwizZK8rc9I-29" vertex="1">
          <mxGeometry y="50" width="138" height="20" as="geometry" />
        </mxCell>
        <mxCell id="JTsjzEtY-qwizZK8rc9I-33" value="+ Load()" style="text;align=left;verticalAlign=top;spacingLeft=4;spacingRight=4;overflow=hidden;rotatable=0;points=[[0,0.5],[1,0.5]];portConstraint=eastwest;rounded=0;shadow=0;html=0;fontSize=9;" parent="JTsjzEtY-qwizZK8rc9I-29" vertex="1">
          <mxGeometry y="70" width="138" height="20" as="geometry" />
        </mxCell>
        <mxCell id="JTsjzEtY-qwizZK8rc9I-34" value="+ Save(string filename)" style="text;align=left;verticalAlign=top;spacingLeft=4;spacingRight=4;overflow=hidden;rotatable=0;points=[[0,0.5],[1,0.5]];portConstraint=eastwest;rounded=0;shadow=0;html=0;fontSize=9;" parent="JTsjzEtY-qwizZK8rc9I-29" vertex="1">
          <mxGeometry y="90" width="138" height="20" as="geometry" />
        </mxCell>
        <mxCell id="JTsjzEtY-qwizZK8rc9I-35" value="+ Save()" style="text;align=left;verticalAlign=top;spacingLeft=4;spacingRight=4;overflow=hidden;rotatable=0;points=[[0,0.5],[1,0.5]];portConstraint=eastwest;rounded=0;shadow=0;html=0;fontSize=9;" parent="JTsjzEtY-qwizZK8rc9I-29" vertex="1">
          <mxGeometry y="110" width="138" height="20" as="geometry" />
        </mxCell>
        <mxCell id="JTsjzEtY-qwizZK8rc9I-36" value="" style="line;html=1;strokeWidth=1;align=left;verticalAlign=middle;spacingTop=-1;spacingLeft=3;spacingRight=3;rotatable=0;labelPosition=right;points=[];portConstraint=eastwest;fontSize=9;" parent="JTsjzEtY-qwizZK8rc9I-29" vertex="1">
          <mxGeometry y="130" width="138" height="10" as="geometry" />
        </mxCell>
        <mxCell id="JTsjzEtY-qwizZK8rc9I-37" value="zzgl. Properties und Events/ &#xa;Eventhandler" style="text;align=left;verticalAlign=top;spacingLeft=4;spacingRight=4;overflow=hidden;rotatable=0;points=[[0,0.5],[1,0.5]];portConstraint=eastwest;fontSize=9;" parent="JTsjzEtY-qwizZK8rc9I-29" vertex="1">
          <mxGeometry y="140" width="138" height="40" as="geometry" />
        </mxCell>
        <mxCell id="Cmb3niqD3z5QselwYJK5-5" value="" style="group" parent="1" vertex="1" connectable="0">
          <mxGeometry x="-1640" y="30" width="290" height="200" as="geometry" />
        </mxCell>
        <mxCell id="JTsjzEtY-qwizZK8rc9I-41" value="RobotControllerBase" style="swimlane;fontStyle=1;align=center;verticalAlign=top;childLayout=stackLayout;horizontal=1;startSize=20;horizontalStack=0;resizeParent=1;resizeLast=0;collapsible=1;marginBottom=0;rounded=0;shadow=0;strokeWidth=1;fontSize=9;" parent="Cmb3niqD3z5QselwYJK5-5" vertex="1">
          <mxGeometry x="100" width="190" height="200" as="geometry">
            <mxRectangle x="-3308" width="160" height="26" as="alternateBounds" />
          </mxGeometry>
        </mxCell>
        <mxCell id="JTsjzEtY-qwizZK8rc9I-42" value="# status : int = -1" style="text;align=left;verticalAlign=top;spacingLeft=4;spacingRight=4;overflow=hidden;rotatable=0;points=[[0,0.5],[1,0.5]];portConstraint=eastwest;rounded=0;shadow=0;html=0;fontSize=9;" parent="JTsjzEtY-qwizZK8rc9I-41" vertex="1">
          <mxGeometry y="20" width="190" height="20" as="geometry" />
        </mxCell>
        <mxCell id="JTsjzEtY-qwizZK8rc9I-43" value="isMobileRobotDocked : bool = false" style="text;align=left;verticalAlign=top;spacingLeft=4;spacingRight=4;overflow=hidden;rotatable=0;points=[[0,0.5],[1,0.5]];portConstraint=eastwest;rounded=0;shadow=0;html=0;fontSize=9;" parent="JTsjzEtY-qwizZK8rc9I-41" vertex="1">
          <mxGeometry y="40" width="190" height="20" as="geometry" />
        </mxCell>
        <mxCell id="JTsjzEtY-qwizZK8rc9I-44" value="isMobileRobotReadyToLeave : bool = false" style="text;align=left;verticalAlign=top;spacingLeft=4;spacingRight=4;overflow=hidden;rotatable=0;points=[[0,0.5],[1,0.5]];portConstraint=eastwest;rounded=0;shadow=0;html=0;fontSize=9;" parent="JTsjzEtY-qwizZK8rc9I-41" vertex="1">
          <mxGeometry y="60" width="190" height="20" as="geometry" />
        </mxCell>
        <mxCell id="JTsjzEtY-qwizZK8rc9I-45" value="hasNonTransparentCup : bool = false" style="text;align=left;verticalAlign=top;spacingLeft=4;spacingRight=4;overflow=hidden;rotatable=0;points=[[0,0.5],[1,0.5]];portConstraint=eastwest;rounded=0;shadow=0;html=0;fontSize=9;" parent="JTsjzEtY-qwizZK8rc9I-41" vertex="1">
          <mxGeometry y="80" width="190" height="20" as="geometry" />
        </mxCell>
        <mxCell id="JTsjzEtY-qwizZK8rc9I-46" value="isBusy : bool = false" style="text;align=left;verticalAlign=top;spacingLeft=4;spacingRight=4;overflow=hidden;rotatable=0;points=[[0,0.5],[1,0.5]];portConstraint=eastwest;rounded=0;shadow=0;html=0;fontSize=9;" parent="JTsjzEtY-qwizZK8rc9I-41" vertex="1">
          <mxGeometry y="100" width="190" height="20" as="geometry" />
        </mxCell>
        <mxCell id="JTsjzEtY-qwizZK8rc9I-47" value="" style="line;html=1;strokeWidth=1;align=left;verticalAlign=middle;spacingTop=-1;spacingLeft=3;spacingRight=3;rotatable=0;labelPosition=right;points=[];portConstraint=eastwest;fontSize=9;" parent="JTsjzEtY-qwizZK8rc9I-41" vertex="1">
          <mxGeometry y="120" width="190" height="10" as="geometry" />
        </mxCell>
        <mxCell id="JTsjzEtY-qwizZK8rc9I-48" value="+ ExecuteCommand()" style="text;align=left;verticalAlign=top;spacingLeft=4;spacingRight=4;overflow=hidden;rotatable=0;points=[[0,0.5],[1,0.5]];portConstraint=eastwest;rounded=0;shadow=0;html=0;fontSize=9;" parent="JTsjzEtY-qwizZK8rc9I-41" vertex="1">
          <mxGeometry y="130" width="190" height="20" as="geometry" />
        </mxCell>
        <mxCell id="JTsjzEtY-qwizZK8rc9I-49" value="" style="line;html=1;strokeWidth=1;align=left;verticalAlign=middle;spacingTop=-1;spacingLeft=3;spacingRight=3;rotatable=0;labelPosition=right;points=[];portConstraint=eastwest;fontSize=9;" parent="JTsjzEtY-qwizZK8rc9I-41" vertex="1">
          <mxGeometry y="150" width="190" height="10" as="geometry" />
        </mxCell>
        <mxCell id="JTsjzEtY-qwizZK8rc9I-50" value="zzgl. Properties und Events/ &#xa;Eventhandler" style="text;align=left;verticalAlign=top;spacingLeft=4;spacingRight=4;overflow=hidden;rotatable=0;points=[[0,0.5],[1,0.5]];portConstraint=eastwest;fontSize=9;" parent="JTsjzEtY-qwizZK8rc9I-41" vertex="1">
          <mxGeometry y="160" width="190" height="40" as="geometry" />
        </mxCell>
        <mxCell id="JTsjzEtY-qwizZK8rc9I-139" value="controllerBase" style="text;html=1;align=center;verticalAlign=middle;resizable=0;points=[];autosize=1;strokeColor=none;fillColor=none;" parent="Cmb3niqD3z5QselwYJK5-5" vertex="1">
          <mxGeometry y="60" width="100" height="30" as="geometry" />
        </mxCell>
        <mxCell id="JTsjzEtY-qwizZK8rc9I-140" value="0..1" style="text;html=1;align=center;verticalAlign=middle;resizable=0;points=[];autosize=1;strokeColor=none;fillColor=none;" parent="Cmb3niqD3z5QselwYJK5-5" vertex="1">
          <mxGeometry x="60" y="90" width="40" height="30" as="geometry" />
        </mxCell>
        <mxCell id="Cmb3niqD3z5QselwYJK5-6" value="" style="group" parent="1" vertex="1" connectable="0">
          <mxGeometry x="-1350" y="1020" width="220" height="112.5" as="geometry" />
        </mxCell>
        <mxCell id="JTsjzEtY-qwizZK8rc9I-144" value="enum Error" style="swimlane;fontStyle=1;align=center;verticalAlign=top;childLayout=stackLayout;horizontal=1;startSize=20;horizontalStack=0;resizeParent=1;resizeLast=0;collapsible=1;marginBottom=0;rounded=0;shadow=0;strokeWidth=1;fontSize=9;" parent="Cmb3niqD3z5QselwYJK5-6" vertex="1">
          <mxGeometry width="120" height="110" as="geometry">
            <mxRectangle x="-3308" width="160" height="26" as="alternateBounds" />
          </mxGeometry>
        </mxCell>
        <mxCell id="JTsjzEtY-qwizZK8rc9I-145" value="- 2" style="text;align=left;verticalAlign=top;spacingLeft=4;spacingRight=4;overflow=hidden;rotatable=0;points=[[0,0.5],[1,0.5]];portConstraint=eastwest;rounded=0;shadow=0;html=0;fontSize=9;" parent="JTsjzEtY-qwizZK8rc9I-144" vertex="1">
          <mxGeometry y="20" width="120" height="20" as="geometry" />
        </mxCell>
        <mxCell id="JTsjzEtY-qwizZK8rc9I-146" value="NotFound" style="text;align=left;verticalAlign=top;spacingLeft=4;spacingRight=4;overflow=hidden;rotatable=0;points=[[0,0.5],[1,0.5]];portConstraint=eastwest;rounded=0;shadow=0;html=0;fontSize=9;" parent="JTsjzEtY-qwizZK8rc9I-144" vertex="1">
          <mxGeometry y="40" width="120" height="20" as="geometry" />
        </mxCell>
        <mxCell id="JTsjzEtY-qwizZK8rc9I-147" value="Success" style="text;align=left;verticalAlign=top;spacingLeft=4;spacingRight=4;overflow=hidden;rotatable=0;points=[[0,0.5],[1,0.5]];portConstraint=eastwest;rounded=0;shadow=0;html=0;fontSize=9;" parent="JTsjzEtY-qwizZK8rc9I-144" vertex="1">
          <mxGeometry y="60" width="120" height="20" as="geometry" />
        </mxCell>
        <mxCell id="JTsjzEtY-qwizZK8rc9I-148" value="UsingFirstOccurrence" style="text;align=left;verticalAlign=top;spacingLeft=4;spacingRight=4;overflow=hidden;rotatable=0;points=[[0,0.5],[1,0.5]];portConstraint=eastwest;rounded=0;shadow=0;html=0;fontSize=9;" parent="JTsjzEtY-qwizZK8rc9I-144" vertex="1">
          <mxGeometry y="80" width="120" height="20" as="geometry" />
        </mxCell>
        <mxCell id="JTsjzEtY-qwizZK8rc9I-150" value="ConnectResult" style="text;html=1;align=left;verticalAlign=middle;resizable=0;points=[];autosize=1;strokeColor=none;fillColor=none;" parent="Cmb3niqD3z5QselwYJK5-6" vertex="1">
          <mxGeometry x="120" y="82.5" width="100" height="30" as="geometry" />
        </mxCell>
        <mxCell id="JTsjzEtY-qwizZK8rc9I-151" value="0..1" style="text;html=1;align=left;verticalAlign=middle;resizable=0;points=[];autosize=1;strokeColor=none;fillColor=none;" parent="Cmb3niqD3z5QselwYJK5-6" vertex="1">
          <mxGeometry x="120" y="52.5" width="40" height="30" as="geometry" />
        </mxCell>
        <mxCell id="oumpSsxyj3DCCwIT0I5N-2" value="" style="group" vertex="1" connectable="0" parent="1">
          <mxGeometry x="-1110" y="2.5" width="250" height="60.99999999999994" as="geometry" />
        </mxCell>
        <mxCell id="JTsjzEtY-qwizZK8rc9I-85" value="ABBRobotics.Controller.Controller" style="swimlane;fontStyle=1;align=center;verticalAlign=top;childLayout=stackLayout;horizontal=1;startSize=26;horizontalStack=0;resizeParent=1;resizeLast=0;collapsible=1;marginBottom=0;rounded=0;shadow=0;strokeWidth=1;fontSize=9;" parent="oumpSsxyj3DCCwIT0I5N-2" vertex="1" collapsed="1">
          <mxGeometry x="-34" y="17.499999999999943" width="180" height="26" as="geometry">
            <mxRectangle x="-1380" y="61" width="134" height="130" as="alternateBounds" />
          </mxGeometry>
        </mxCell>
        <mxCell id="JTsjzEtY-qwizZK8rc9I-87" value="0..1" style="text;html=1;align=left;verticalAlign=middle;resizable=0;points=[];autosize=1;strokeColor=none;fillColor=none;" parent="oumpSsxyj3DCCwIT0I5N-2" vertex="1">
          <mxGeometry x="180" width="40" height="30" as="geometry" />
        </mxCell>
        <mxCell id="JTsjzEtY-qwizZK8rc9I-88" value="controller" style="text;html=1;align=left;verticalAlign=middle;resizable=0;points=[];autosize=1;strokeColor=none;fillColor=none;" parent="oumpSsxyj3DCCwIT0I5N-2" vertex="1">
          <mxGeometry x="146" y="30.999999999999943" width="70" height="30" as="geometry" />
        </mxCell>
        <mxCell id="oumpSsxyj3DCCwIT0I5N-3" value="" style="group" vertex="1" connectable="0" parent="1">
          <mxGeometry x="-1144" y="63.5" width="260" height="60" as="geometry" />
        </mxCell>
        <mxCell id="JTsjzEtY-qwizZK8rc9I-89" value="ABBRobotics.Controller.Mastership" style="swimlane;fontStyle=1;align=center;verticalAlign=top;childLayout=stackLayout;horizontal=1;startSize=26;horizontalStack=0;resizeParent=1;resizeLast=0;collapsible=1;marginBottom=0;rounded=0;shadow=0;strokeWidth=1;fontSize=9;" parent="oumpSsxyj3DCCwIT0I5N-3" vertex="1" collapsed="1">
          <mxGeometry y="16.5" width="180" height="26" as="geometry">
            <mxRectangle x="-1380" y="61" width="134" height="130" as="alternateBounds" />
          </mxGeometry>
        </mxCell>
        <mxCell id="JTsjzEtY-qwizZK8rc9I-91" value="0..1" style="text;html=1;align=left;verticalAlign=middle;resizable=0;points=[];autosize=1;strokeColor=none;fillColor=none;" parent="oumpSsxyj3DCCwIT0I5N-3" vertex="1">
          <mxGeometry x="180" width="40" height="30" as="geometry" />
        </mxCell>
        <mxCell id="JTsjzEtY-qwizZK8rc9I-92" value="mastership" style="text;html=1;align=left;verticalAlign=middle;resizable=0;points=[];autosize=1;strokeColor=none;fillColor=none;" parent="oumpSsxyj3DCCwIT0I5N-3" vertex="1">
          <mxGeometry x="180" y="30" width="80" height="30" as="geometry" />
        </mxCell>
        <mxCell id="oumpSsxyj3DCCwIT0I5N-6" value="" style="group" vertex="1" connectable="0" parent="1">
          <mxGeometry x="-1144" y="183" width="260" height="60" as="geometry" />
        </mxCell>
        <mxCell id="JTsjzEtY-qwizZK8rc9I-97" value="ABBRobotics.Controller.RapidDomain.Module" style="swimlane;fontStyle=1;align=center;verticalAlign=top;childLayout=stackLayout;horizontal=1;startSize=26;horizontalStack=0;resizeParent=1;resizeLast=0;collapsible=1;marginBottom=0;rounded=0;shadow=0;strokeWidth=1;fontSize=9;" parent="oumpSsxyj3DCCwIT0I5N-6" vertex="1" collapsed="1">
          <mxGeometry y="17" width="200" height="26" as="geometry">
            <mxRectangle x="-1380" y="61" width="134" height="130" as="alternateBounds" />
          </mxGeometry>
        </mxCell>
        <mxCell id="JTsjzEtY-qwizZK8rc9I-99" value="module" style="text;html=1;align=left;verticalAlign=middle;resizable=0;points=[];autosize=1;strokeColor=none;fillColor=none;" parent="oumpSsxyj3DCCwIT0I5N-6" vertex="1">
          <mxGeometry x="200" y="30" width="60" height="30" as="geometry" />
        </mxCell>
        <mxCell id="JTsjzEtY-qwizZK8rc9I-100" value="0..1" style="text;html=1;align=left;verticalAlign=middle;resizable=0;points=[];autosize=1;strokeColor=none;fillColor=none;" parent="oumpSsxyj3DCCwIT0I5N-6" vertex="1">
          <mxGeometry x="200" width="40" height="30" as="geometry" />
        </mxCell>
        <mxCell id="oumpSsxyj3DCCwIT0I5N-7" value="" style="group" vertex="1" connectable="0" parent="1">
          <mxGeometry x="-1144" y="125" width="250" height="59" as="geometry" />
        </mxCell>
        <mxCell id="JTsjzEtY-qwizZK8rc9I-93" value="ABBRobotics.Controller.RapidDomain.Task" style="swimlane;fontStyle=1;align=center;verticalAlign=top;childLayout=stackLayout;horizontal=1;startSize=26;horizontalStack=0;resizeParent=1;resizeLast=0;collapsible=1;marginBottom=0;rounded=0;shadow=0;strokeWidth=1;fontSize=9;" parent="oumpSsxyj3DCCwIT0I5N-7" vertex="1" collapsed="1">
          <mxGeometry y="17" width="200" height="26" as="geometry">
            <mxRectangle x="-1380" y="61" width="134" height="130" as="alternateBounds" />
          </mxGeometry>
        </mxCell>
        <mxCell id="JTsjzEtY-qwizZK8rc9I-95" value="0..1" style="text;html=1;align=left;verticalAlign=middle;resizable=0;points=[];autosize=1;strokeColor=none;fillColor=none;" parent="oumpSsxyj3DCCwIT0I5N-7" vertex="1">
          <mxGeometry x="200" width="40" height="30" as="geometry" />
        </mxCell>
        <mxCell id="JTsjzEtY-qwizZK8rc9I-96" value="task" style="text;html=1;align=left;verticalAlign=middle;resizable=0;points=[];autosize=1;strokeColor=none;fillColor=none;" parent="oumpSsxyj3DCCwIT0I5N-7" vertex="1">
          <mxGeometry x="200" y="29" width="50" height="30" as="geometry" />
        </mxCell>
        <mxCell id="JTsjzEtY-qwizZK8rc9I-105" value="System.Net.IpAddress" style="swimlane;fontStyle=1;align=center;verticalAlign=top;childLayout=stackLayout;horizontal=1;startSize=26;horizontalStack=0;resizeParent=1;resizeLast=0;collapsible=1;marginBottom=0;rounded=0;shadow=0;strokeWidth=1;fontSize=9;" parent="1" vertex="1" collapsed="1">
          <mxGeometry x="-1144" y="258" width="180" height="26" as="geometry">
            <mxRectangle x="-790" y="760" width="134" height="130" as="alternateBounds" />
          </mxGeometry>
        </mxCell>
        <mxCell id="JTsjzEtY-qwizZK8rc9I-107" value="TryConnectAsync" style="text;html=1;align=left;verticalAlign=middle;resizable=0;points=[];autosize=1;strokeColor=none;fillColor=none;" parent="1" vertex="1">
          <mxGeometry x="-964" y="241" width="120" height="30" as="geometry" />
        </mxCell>
        <mxCell id="JTsjzEtY-qwizZK8rc9I-108" value="0..1" style="text;html=1;align=left;verticalAlign=middle;resizable=0;points=[];autosize=1;strokeColor=none;fillColor=none;" parent="1" vertex="1">
          <mxGeometry x="-964" y="271" width="40" height="30" as="geometry" />
        </mxCell>
        <mxCell id="JTsjzEtY-qwizZK8rc9I-101" value="ABBRobotics.Controller.RapidDomain.RapidData" style="swimlane;fontStyle=1;align=center;verticalAlign=top;childLayout=stackLayout;horizontal=1;startSize=26;horizontalStack=0;resizeParent=1;resizeLast=0;collapsible=1;marginBottom=0;rounded=0;shadow=0;strokeWidth=1;fontSize=9;" parent="1" vertex="1" collapsed="1">
          <mxGeometry x="-1144" y="340" width="250" height="26" as="geometry">
            <mxRectangle x="-790" y="760" width="134" height="130" as="alternateBounds" />
          </mxGeometry>
        </mxCell>
        <mxCell id="JTsjzEtY-qwizZK8rc9I-103" value="proximitySensorA&lt;br&gt;proximitySensorB&lt;br&gt;presenseSensor&lt;br&gt;robotStatus&lt;br&gt;robotCommand" style="text;html=1;align=right;verticalAlign=middle;resizable=0;points=[];autosize=1;strokeColor=none;fillColor=none;" parent="1" vertex="1">
          <mxGeometry x="-1144" y="366" width="120" height="90" as="geometry" />
        </mxCell>
        <mxCell id="JTsjzEtY-qwizZK8rc9I-104" value="0..1" style="text;html=1;align=left;verticalAlign=middle;resizable=0;points=[];autosize=1;strokeColor=none;fillColor=none;" parent="1" vertex="1">
          <mxGeometry x="-1019" y="378" width="40" height="30" as="geometry" />
        </mxCell>
      </root>
    </mxGraphModel>
  </diagram>
  <diagram id="WWO9jwbZekJT6zezonYd" name="Modbus Components">
    <mxGraphModel dx="6154" dy="1195" grid="1" gridSize="10" guides="1" tooltips="1" connect="1" arrows="1" fold="1" page="1" pageScale="1" pageWidth="827" pageHeight="800" math="0" shadow="0">
      <root>
        <mxCell id="0" />
        <mxCell id="1" parent="0" />
        <mxCell id="ST9A_u3v426neB01oX7l-1" value="MainWindow" style="swimlane;fontStyle=1;align=center;verticalAlign=top;childLayout=stackLayout;horizontal=1;startSize=20;horizontalStack=0;resizeParent=1;resizeLast=0;collapsible=1;marginBottom=0;rounded=0;shadow=0;strokeWidth=1;fontSize=9;" parent="1" vertex="1">
          <mxGeometry x="-4120" y="73" width="230" height="120" as="geometry">
            <mxRectangle x="-3308" width="160" height="26" as="alternateBounds" />
          </mxGeometry>
        </mxCell>
        <mxCell id="ST9A_u3v426neB01oX7l-4" value="modbusProperties : ModbusProperties" style="text;align=left;verticalAlign=top;spacingLeft=4;spacingRight=4;overflow=hidden;rotatable=0;points=[[0,0.5],[1,0.5]];portConstraint=eastwest;fontSize=9;" parent="ST9A_u3v426neB01oX7l-1" vertex="1">
          <mxGeometry y="20" width="230" height="20" as="geometry" />
        </mxCell>
        <mxCell id="ST9A_u3v426neB01oX7l-5" value="modbusComm : ModbusCommunication = null" style="text;align=left;verticalAlign=top;spacingLeft=4;spacingRight=4;overflow=hidden;rotatable=0;points=[[0,0.5],[1,0.5]];portConstraint=eastwest;fontSize=9;" parent="ST9A_u3v426neB01oX7l-1" vertex="1">
          <mxGeometry y="40" width="230" height="20" as="geometry" />
        </mxCell>
        <mxCell id="ST9A_u3v426neB01oX7l-6" value="weitere Variablen und Methoden: Siehe Seite 1" style="text;align=left;verticalAlign=top;spacingLeft=4;spacingRight=4;overflow=hidden;rotatable=0;points=[[0,0.5],[1,0.5]];portConstraint=eastwest;fontSize=9;" parent="ST9A_u3v426neB01oX7l-1" vertex="1">
          <mxGeometry y="60" width="230" height="20" as="geometry" />
        </mxCell>
        <mxCell id="ST9A_u3v426neB01oX7l-9" value="" style="edgeStyle=segmentEdgeStyle;endArrow=none;html=1;curved=0;rounded=0;endSize=8;startSize=8;sourcePerimeterSpacing=0;targetPerimeterSpacing=0;endFill=0;fontSize=9;" parent="1" source="ST9A_u3v426neB01oX7l-1" target="ST9A_u3v426neB01oX7l-7" edge="1">
          <mxGeometry width="100" relative="1" as="geometry">
            <mxPoint x="-3938.12" y="214" as="sourcePoint" />
            <mxPoint x="-3814" y="242" as="targetPoint" />
            <Array as="points">
              <mxPoint x="-3700" y="122" />
              <mxPoint x="-3700" y="122" />
            </Array>
          </mxGeometry>
        </mxCell>
        <mxCell id="ST9A_u3v426neB01oX7l-26" value="" style="edgeStyle=segmentEdgeStyle;endArrow=none;html=1;curved=0;rounded=0;endSize=8;startSize=8;sourcePerimeterSpacing=0;targetPerimeterSpacing=0;endFill=0;fontSize=9;" parent="1" target="ST9A_u3v426neB01oX7l-12" edge="1" source="ST9A_u3v426neB01oX7l-1">
          <mxGeometry width="100" relative="1" as="geometry">
            <mxPoint x="-3899" y="262.99999999999955" as="sourcePoint" />
            <mxPoint x="-3814" y="292" as="targetPoint" />
            <Array as="points">
              <mxPoint x="-4070" y="263" />
            </Array>
          </mxGeometry>
        </mxCell>
        <mxCell id="ST9A_u3v426neB01oX7l-29" value="INotifyPropertyChanged" style="swimlane;fontStyle=1;align=center;verticalAlign=top;childLayout=stackLayout;horizontal=1;startSize=26;horizontalStack=0;resizeParent=1;resizeLast=0;collapsible=1;marginBottom=0;rounded=0;shadow=0;strokeWidth=1;fontSize=9;" parent="1" vertex="1" collapsed="1">
          <mxGeometry x="-3881" y="213" width="160" height="23" as="geometry">
            <mxRectangle x="-1380" y="61" width="134" height="130" as="alternateBounds" />
          </mxGeometry>
        </mxCell>
        <mxCell id="ST9A_u3v426neB01oX7l-30" value="" style="edgeStyle=segmentEdgeStyle;endArrow=block;html=1;curved=0;rounded=0;endSize=8;startSize=8;sourcePerimeterSpacing=0;targetPerimeterSpacing=0;endFill=0;fontSize=9;" parent="1" source="ST9A_u3v426neB01oX7l-29" target="ST9A_u3v426neB01oX7l-12" edge="1">
          <mxGeometry width="100" relative="1" as="geometry">
            <mxPoint x="-3604" y="263" as="sourcePoint" />
            <mxPoint x="-3517" y="263" as="targetPoint" />
            <Array as="points">
              <mxPoint x="-3801" y="283" />
            </Array>
          </mxGeometry>
        </mxCell>
        <mxCell id="ST9A_u3v426neB01oX7l-44" value="" style="edgeStyle=segmentEdgeStyle;endArrow=none;html=1;curved=0;rounded=0;endSize=8;startSize=8;sourcePerimeterSpacing=0;targetPerimeterSpacing=0;endFill=0;fontSize=9;" parent="1" source="ST9A_u3v426neB01oX7l-1" target="ST9A_u3v426neB01oX7l-31" edge="1">
          <mxGeometry width="100" relative="1" as="geometry">
            <mxPoint x="-3951.12" y="613" as="sourcePoint" />
            <mxPoint x="-3864.12" y="613" as="targetPoint" />
            <Array as="points">
              <mxPoint x="-4100" y="683" />
            </Array>
          </mxGeometry>
        </mxCell>
        <mxCell id="ST9A_u3v426neB01oX7l-61" value="" style="edgeStyle=segmentEdgeStyle;endArrow=none;html=1;curved=0;rounded=0;endSize=8;startSize=8;sourcePerimeterSpacing=0;targetPerimeterSpacing=0;endFill=0;fontSize=9;" parent="1" source="ST9A_u3v426neB01oX7l-7" target="ST9A_u3v426neB01oX7l-47" edge="1">
          <mxGeometry width="100" relative="1" as="geometry">
            <mxPoint x="-3213.5" y="202" as="sourcePoint" />
            <mxPoint x="-3128.5" y="603" as="targetPoint" />
            <Array as="points">
              <mxPoint x="-3370" y="383" />
            </Array>
          </mxGeometry>
        </mxCell>
        <mxCell id="ST9A_u3v426neB01oX7l-62" value="0..1" style="text;html=1;align=left;verticalAlign=middle;resizable=0;points=[];autosize=1;strokeColor=none;fillColor=none;fontSize=12;" parent="1" vertex="1">
          <mxGeometry x="-3511" y="383" width="40" height="30" as="geometry" />
        </mxCell>
        <mxCell id="ST9A_u3v426neB01oX7l-63" value="server" style="text;html=1;align=left;verticalAlign=middle;resizable=0;points=[];autosize=1;strokeColor=none;fillColor=none;fontSize=12;" parent="1" vertex="1">
          <mxGeometry x="-3511" y="353" width="60" height="30" as="geometry" />
        </mxCell>
        <mxCell id="ST9A_u3v426neB01oX7l-64" value="" style="edgeStyle=segmentEdgeStyle;endArrow=none;html=1;curved=0;rounded=0;endSize=8;startSize=8;sourcePerimeterSpacing=0;targetPerimeterSpacing=0;endFill=0;fontSize=9;" parent="1" source="ST9A_u3v426neB01oX7l-12" target="ST9A_u3v426neB01oX7l-47" edge="1">
          <mxGeometry width="100" relative="1" as="geometry">
            <mxPoint x="-3284" y="282" as="sourcePoint" />
            <mxPoint x="-2984" y="552" as="targetPoint" />
            <Array as="points">
              <mxPoint x="-3780" y="383" />
              <mxPoint x="-3780" y="383" />
            </Array>
          </mxGeometry>
        </mxCell>
        <mxCell id="ST9A_u3v426neB01oX7l-67" value="enum CommState" style="swimlane;fontStyle=1;align=center;verticalAlign=top;childLayout=stackLayout;horizontal=1;startSize=26;horizontalStack=0;resizeParent=1;resizeLast=0;collapsible=1;marginBottom=0;rounded=0;shadow=0;strokeWidth=1;fontSize=9;" parent="1" vertex="1">
          <mxGeometry x="-3700" y="653" width="198.12" height="86" as="geometry">
            <mxRectangle x="130" y="380" width="160" height="26" as="alternateBounds" />
          </mxGeometry>
        </mxCell>
        <mxCell id="ST9A_u3v426neB01oX7l-68" style="edgeStyle=orthogonalEdgeStyle;rounded=0;orthogonalLoop=1;jettySize=auto;html=1;exitX=1;exitY=0.5;exitDx=0;exitDy=0;fontSize=9;" parent="ST9A_u3v426neB01oX7l-67" edge="1">
          <mxGeometry relative="1" as="geometry">
            <mxPoint x="189" y="36" as="sourcePoint" />
            <mxPoint x="189" y="36" as="targetPoint" />
          </mxGeometry>
        </mxCell>
        <mxCell id="ST9A_u3v426neB01oX7l-69" value="StandBy = 0" style="text;align=left;verticalAlign=top;spacingLeft=4;spacingRight=4;overflow=hidden;rotatable=0;points=[[0,0.5],[1,0.5]];portConstraint=eastwest;rounded=0;shadow=0;html=0;fontSize=9;" parent="ST9A_u3v426neB01oX7l-67" vertex="1">
          <mxGeometry y="26" width="198.12" height="20" as="geometry" />
        </mxCell>
        <mxCell id="ST9A_u3v426neB01oX7l-70" value="Locked" style="text;align=left;verticalAlign=top;spacingLeft=4;spacingRight=4;overflow=hidden;rotatable=0;points=[[0,0.5],[1,0.5]];portConstraint=eastwest;rounded=0;shadow=0;html=0;fontSize=9;" parent="ST9A_u3v426neB01oX7l-67" vertex="1">
          <mxGeometry y="46" width="198.12" height="20" as="geometry" />
        </mxCell>
        <mxCell id="ST9A_u3v426neB01oX7l-71" value="Processing" style="text;align=left;verticalAlign=top;spacingLeft=4;spacingRight=4;overflow=hidden;rotatable=0;points=[[0,0.5],[1,0.5]];portConstraint=eastwest;rounded=0;shadow=0;html=0;fontSize=9;" parent="ST9A_u3v426neB01oX7l-67" vertex="1">
          <mxGeometry y="66" width="198.12" height="20" as="geometry" />
        </mxCell>
        <mxCell id="ST9A_u3v426neB01oX7l-72" value="" style="edgeStyle=segmentEdgeStyle;endArrow=none;html=1;curved=0;rounded=0;endSize=8;startSize=8;sourcePerimeterSpacing=0;targetPerimeterSpacing=0;endFill=0;fontSize=9;" parent="1" source="ST9A_u3v426neB01oX7l-67" target="ST9A_u3v426neB01oX7l-47" edge="1">
          <mxGeometry width="100" relative="1" as="geometry">
            <mxPoint x="-3184" y="452" as="sourcePoint" />
            <mxPoint x="-2965" y="652" as="targetPoint" />
            <Array as="points">
              <mxPoint x="-3370" y="693" />
              <mxPoint x="-3370" y="418" />
            </Array>
          </mxGeometry>
        </mxCell>
        <mxCell id="ST9A_u3v426neB01oX7l-73" value="0..1" style="text;html=1;align=left;verticalAlign=middle;resizable=0;points=[];autosize=1;strokeColor=none;fillColor=none;fontSize=12;" parent="1" vertex="1">
          <mxGeometry x="-3501.88" y="663" width="40" height="30" as="geometry" />
        </mxCell>
        <mxCell id="ST9A_u3v426neB01oX7l-74" value="commState" style="text;html=1;align=left;verticalAlign=middle;resizable=0;points=[];autosize=1;strokeColor=none;fillColor=none;fontSize=12;" parent="1" vertex="1">
          <mxGeometry x="-3501.88" y="693" width="80" height="30" as="geometry" />
        </mxCell>
        <mxCell id="rqELBqh3a24ONCszesCz-1" value="" style="group" parent="1" vertex="1" connectable="0">
          <mxGeometry x="-3610" y="93" width="281" height="60" as="geometry" />
        </mxCell>
        <mxCell id="ST9A_u3v426neB01oX7l-7" value="ModbusTCP.ModbusTCPServer" style="swimlane;fontStyle=1;align=center;verticalAlign=top;childLayout=stackLayout;horizontal=1;startSize=26;horizontalStack=0;resizeParent=1;resizeLast=0;collapsible=1;marginBottom=0;rounded=0;shadow=0;strokeWidth=1;fontSize=9;" parent="rqELBqh3a24ONCszesCz-1" vertex="1">
          <mxGeometry x="100" y="19" width="181" height="20" as="geometry">
            <mxRectangle x="130" y="380" width="160" height="26" as="alternateBounds" />
          </mxGeometry>
        </mxCell>
        <mxCell id="ST9A_u3v426neB01oX7l-8" style="edgeStyle=orthogonalEdgeStyle;rounded=0;orthogonalLoop=1;jettySize=auto;html=1;exitX=1;exitY=0.5;exitDx=0;exitDy=0;fontSize=9;" parent="ST9A_u3v426neB01oX7l-7" edge="1">
          <mxGeometry relative="1" as="geometry">
            <mxPoint x="189" y="36" as="sourcePoint" />
            <mxPoint x="189" y="36" as="targetPoint" />
          </mxGeometry>
        </mxCell>
        <mxCell id="ST9A_u3v426neB01oX7l-10" value="0..1" style="text;html=1;align=right;verticalAlign=middle;resizable=0;points=[];autosize=1;strokeColor=none;fillColor=none;fontSize=12;" parent="rqELBqh3a24ONCszesCz-1" vertex="1">
          <mxGeometry x="60" width="40" height="30" as="geometry" />
        </mxCell>
        <mxCell id="ST9A_u3v426neB01oX7l-11" value="modbusServer" style="text;html=1;align=right;verticalAlign=middle;resizable=0;points=[];autosize=1;strokeColor=none;fillColor=none;fontSize=12;" parent="rqELBqh3a24ONCszesCz-1" vertex="1">
          <mxGeometry y="30" width="100" height="30" as="geometry" />
        </mxCell>
        <mxCell id="c7Hz4MkqHKJOATOPHfoP-1" value="" style="group" vertex="1" connectable="0" parent="1">
          <mxGeometry x="-4100.12" y="522" width="267.5" height="222" as="geometry" />
        </mxCell>
        <mxCell id="ST9A_u3v426neB01oX7l-31" value="ModbusProperties" style="swimlane;fontStyle=1;align=center;verticalAlign=top;childLayout=stackLayout;horizontal=1;startSize=26;horizontalStack=0;resizeParent=1;resizeLast=0;collapsible=1;marginBottom=0;rounded=0;shadow=0;strokeWidth=1;fontSize=9;" parent="c7Hz4MkqHKJOATOPHfoP-1" vertex="1">
          <mxGeometry x="78.5" width="189" height="222" as="geometry">
            <mxRectangle x="130" y="380" width="160" height="26" as="alternateBounds" />
          </mxGeometry>
        </mxCell>
        <mxCell id="ST9A_u3v426neB01oX7l-32" style="edgeStyle=orthogonalEdgeStyle;rounded=0;orthogonalLoop=1;jettySize=auto;html=1;exitX=1;exitY=0.5;exitDx=0;exitDy=0;fontSize=9;" parent="ST9A_u3v426neB01oX7l-31" edge="1">
          <mxGeometry relative="1" as="geometry">
            <mxPoint x="189" y="36" as="sourcePoint" />
            <mxPoint x="189" y="36" as="targetPoint" />
          </mxGeometry>
        </mxCell>
        <mxCell id="ST9A_u3v426neB01oX7l-33" value="- uiIpPort : string = string.Empty" style="text;align=left;verticalAlign=top;spacingLeft=4;spacingRight=4;overflow=hidden;rotatable=0;points=[[0,0.5],[1,0.5]];portConstraint=eastwest;rounded=0;shadow=0;html=0;fontSize=9;" parent="ST9A_u3v426neB01oX7l-31" vertex="1">
          <mxGeometry y="26" width="189" height="20" as="geometry" />
        </mxCell>
        <mxCell id="ST9A_u3v426neB01oX7l-34" value="- confIpPort : string = string.Empty" style="text;align=left;verticalAlign=top;spacingLeft=4;spacingRight=4;overflow=hidden;rotatable=0;points=[[0,0.5],[1,0.5]];portConstraint=eastwest;rounded=0;shadow=0;html=0;fontSize=9;" parent="ST9A_u3v426neB01oX7l-31" vertex="1">
          <mxGeometry y="46" width="189" height="20" as="geometry" />
        </mxCell>
        <mxCell id="ST9A_u3v426neB01oX7l-35" value="+ workIpPort : int = 0" style="text;align=left;verticalAlign=top;spacingLeft=4;spacingRight=4;overflow=hidden;rotatable=0;points=[[0,0.5],[1,0.5]];portConstraint=eastwest;rounded=0;shadow=0;html=0;fontSize=9;" parent="ST9A_u3v426neB01oX7l-31" vertex="1">
          <mxGeometry y="66" width="189" height="20" as="geometry" />
        </mxCell>
        <mxCell id="ST9A_u3v426neB01oX7l-36" value="+ workMaxTries : int = 5" style="text;align=left;verticalAlign=top;spacingLeft=4;spacingRight=4;overflow=hidden;rotatable=0;points=[[0,0.5],[1,0.5]];portConstraint=eastwest;rounded=0;shadow=0;html=0;fontSize=9;" parent="ST9A_u3v426neB01oX7l-31" vertex="1">
          <mxGeometry y="86" width="189" height="20" as="geometry" />
        </mxCell>
        <mxCell id="ST9A_u3v426neB01oX7l-37" value="" style="line;html=1;strokeWidth=1;align=left;verticalAlign=middle;spacingTop=-1;spacingLeft=3;spacingRight=3;rotatable=0;labelPosition=right;points=[];portConstraint=eastwest;fontSize=9;" parent="ST9A_u3v426neB01oX7l-31" vertex="1">
          <mxGeometry y="106" width="189" height="8" as="geometry" />
        </mxCell>
        <mxCell id="ST9A_u3v426neB01oX7l-38" value="+ Load()" style="text;align=left;verticalAlign=top;spacingLeft=4;spacingRight=4;overflow=hidden;rotatable=0;points=[[0,0.5],[1,0.5]];portConstraint=eastwest;rounded=0;shadow=0;html=0;fontSize=9;" parent="ST9A_u3v426neB01oX7l-31" vertex="1">
          <mxGeometry y="114" width="189" height="20" as="geometry" />
        </mxCell>
        <mxCell id="ST9A_u3v426neB01oX7l-39" value="+ SetDefault()" style="text;align=left;verticalAlign=top;spacingLeft=4;spacingRight=4;overflow=hidden;rotatable=0;points=[[0,0.5],[1,0.5]];portConstraint=eastwest;rounded=0;shadow=0;html=0;fontSize=9;" parent="ST9A_u3v426neB01oX7l-31" vertex="1">
          <mxGeometry y="134" width="189" height="20" as="geometry" />
        </mxCell>
        <mxCell id="ST9A_u3v426neB01oX7l-40" value="+ Cancel()" style="text;align=left;verticalAlign=top;spacingLeft=4;spacingRight=4;overflow=hidden;rotatable=0;points=[[0,0.5],[1,0.5]];portConstraint=eastwest;rounded=0;shadow=0;html=0;fontSize=9;" parent="ST9A_u3v426neB01oX7l-31" vertex="1">
          <mxGeometry y="154" width="189" height="20" as="geometry" />
        </mxCell>
        <mxCell id="ST9A_u3v426neB01oX7l-41" value="+ ValidateInput()" style="text;align=left;verticalAlign=top;spacingLeft=4;spacingRight=4;overflow=hidden;rotatable=0;points=[[0,0.5],[1,0.5]];portConstraint=eastwest;rounded=0;shadow=0;html=0;fontSize=9;" parent="ST9A_u3v426neB01oX7l-31" vertex="1">
          <mxGeometry y="174" width="189" height="20" as="geometry" />
        </mxCell>
        <mxCell id="ST9A_u3v426neB01oX7l-42" value="" style="line;html=1;strokeWidth=1;align=left;verticalAlign=middle;spacingTop=-1;spacingLeft=3;spacingRight=3;rotatable=0;labelPosition=right;points=[];portConstraint=eastwest;fontSize=9;" parent="ST9A_u3v426neB01oX7l-31" vertex="1">
          <mxGeometry y="194" width="189" height="8" as="geometry" />
        </mxCell>
        <mxCell id="ST9A_u3v426neB01oX7l-43" value="zzgl. Properties und PropertyHandlers" style="text;align=left;verticalAlign=top;spacingLeft=4;spacingRight=4;overflow=hidden;rotatable=0;points=[[0,0.5],[1,0.5]];portConstraint=eastwest;rounded=0;shadow=0;html=0;fontSize=9;" parent="ST9A_u3v426neB01oX7l-31" vertex="1">
          <mxGeometry y="202" width="189" height="20" as="geometry" />
        </mxCell>
        <mxCell id="ST9A_u3v426neB01oX7l-45" value="0..1" style="text;html=1;align=right;verticalAlign=middle;resizable=0;points=[];autosize=1;strokeColor=none;fillColor=none;fontSize=9;" parent="c7Hz4MkqHKJOATOPHfoP-1" vertex="1">
          <mxGeometry x="38.5" y="140" width="40" height="20" as="geometry" />
        </mxCell>
        <mxCell id="ST9A_u3v426neB01oX7l-46" value="mosbusStatus" style="text;html=1;align=right;verticalAlign=middle;resizable=0;points=[];autosize=1;strokeColor=none;fillColor=none;fontSize=9;" parent="c7Hz4MkqHKJOATOPHfoP-1" vertex="1">
          <mxGeometry y="160" width="80" height="20" as="geometry" />
        </mxCell>
        <mxCell id="c7Hz4MkqHKJOATOPHfoP-2" value="" style="group" vertex="1" connectable="0" parent="1">
          <mxGeometry x="-4103.12" y="242" width="270.5" height="262" as="geometry" />
        </mxCell>
        <mxCell id="ST9A_u3v426neB01oX7l-12" value="ModbusStatus" style="swimlane;fontStyle=1;align=center;verticalAlign=top;childLayout=stackLayout;horizontal=1;startSize=26;horizontalStack=0;resizeParent=1;resizeLast=0;collapsible=1;marginBottom=0;rounded=0;shadow=0;strokeWidth=1;fontSize=9;" parent="c7Hz4MkqHKJOATOPHfoP-2" vertex="1">
          <mxGeometry x="81.5" y="10" width="189" height="252" as="geometry">
            <mxRectangle x="130" y="380" width="160" height="26" as="alternateBounds" />
          </mxGeometry>
        </mxCell>
        <mxCell id="ST9A_u3v426neB01oX7l-13" style="edgeStyle=orthogonalEdgeStyle;rounded=0;orthogonalLoop=1;jettySize=auto;html=1;exitX=1;exitY=0.5;exitDx=0;exitDy=0;fontSize=9;" parent="ST9A_u3v426neB01oX7l-12" edge="1">
          <mxGeometry relative="1" as="geometry">
            <mxPoint x="189" y="36" as="sourcePoint" />
            <mxPoint x="189" y="36" as="targetPoint" />
          </mxGeometry>
        </mxCell>
        <mxCell id="ST9A_u3v426neB01oX7l-14" value="- server : ModbusTCPServer" style="text;align=left;verticalAlign=top;spacingLeft=4;spacingRight=4;overflow=hidden;rotatable=0;points=[[0,0.5],[1,0.5]];portConstraint=eastwest;rounded=0;shadow=0;html=0;fontSize=9;" parent="ST9A_u3v426neB01oX7l-12" vertex="1">
          <mxGeometry y="26" width="189" height="20" as="geometry" />
        </mxCell>
        <mxCell id="ST9A_u3v426neB01oX7l-15" value="" style="line;html=1;strokeWidth=1;align=left;verticalAlign=middle;spacingTop=-1;spacingLeft=3;spacingRight=3;rotatable=0;labelPosition=right;points=[];portConstraint=eastwest;fontSize=9;" parent="ST9A_u3v426neB01oX7l-12" vertex="1">
          <mxGeometry y="46" width="189" height="8" as="geometry" />
        </mxCell>
        <mxCell id="ST9A_u3v426neB01oX7l-16" value="+ ModbusStatus()" style="text;align=left;verticalAlign=top;spacingLeft=4;spacingRight=4;overflow=hidden;rotatable=0;points=[[0,0.5],[1,0.5]];portConstraint=eastwest;rounded=0;shadow=0;html=0;fontSize=9;" parent="ST9A_u3v426neB01oX7l-12" vertex="1">
          <mxGeometry y="54" width="189" height="20" as="geometry" />
        </mxCell>
        <mxCell id="ST9A_u3v426neB01oX7l-17" value="+ ReadInputRegister()" style="text;align=left;verticalAlign=top;spacingLeft=4;spacingRight=4;overflow=hidden;rotatable=0;points=[[0,0.5],[1,0.5]];portConstraint=eastwest;rounded=0;shadow=0;html=0;fontSize=9;" parent="ST9A_u3v426neB01oX7l-12" vertex="1">
          <mxGeometry y="74" width="189" height="20" as="geometry" />
        </mxCell>
        <mxCell id="ST9A_u3v426neB01oX7l-18" value="+ WriteInputRegister()" style="text;align=left;verticalAlign=top;spacingLeft=4;spacingRight=4;overflow=hidden;rotatable=0;points=[[0,0.5],[1,0.5]];portConstraint=eastwest;rounded=0;shadow=0;html=0;fontSize=9;" parent="ST9A_u3v426neB01oX7l-12" vertex="1">
          <mxGeometry y="94" width="189" height="20" as="geometry" />
        </mxCell>
        <mxCell id="ST9A_u3v426neB01oX7l-19" value="+ ReadHoldingRegister()" style="text;align=left;verticalAlign=top;spacingLeft=4;spacingRight=4;overflow=hidden;rotatable=0;points=[[0,0.5],[1,0.5]];portConstraint=eastwest;rounded=0;shadow=0;html=0;fontSize=9;" parent="ST9A_u3v426neB01oX7l-12" vertex="1">
          <mxGeometry y="114" width="189" height="20" as="geometry" />
        </mxCell>
        <mxCell id="ST9A_u3v426neB01oX7l-20" value="+ WriteHoldingRegister()" style="text;align=left;verticalAlign=top;spacingLeft=4;spacingRight=4;overflow=hidden;rotatable=0;points=[[0,0.5],[1,0.5]];portConstraint=eastwest;rounded=0;shadow=0;html=0;fontSize=9;" parent="ST9A_u3v426neB01oX7l-12" vertex="1">
          <mxGeometry y="134" width="189" height="20" as="geometry" />
        </mxCell>
        <mxCell id="ST9A_u3v426neB01oX7l-21" value="+ ReadMultipleHoldingRegisters()" style="text;align=left;verticalAlign=top;spacingLeft=4;spacingRight=4;overflow=hidden;rotatable=0;points=[[0,0.5],[1,0.5]];portConstraint=eastwest;rounded=0;shadow=0;html=0;fontSize=9;" parent="ST9A_u3v426neB01oX7l-12" vertex="1">
          <mxGeometry y="154" width="189" height="20" as="geometry" />
        </mxCell>
        <mxCell id="ST9A_u3v426neB01oX7l-22" value="+ WriteMultipleHoldingRegisters()" style="text;align=left;verticalAlign=top;spacingLeft=4;spacingRight=4;overflow=hidden;rotatable=0;points=[[0,0.5],[1,0.5]];portConstraint=eastwest;rounded=0;shadow=0;html=0;fontSize=9;" parent="ST9A_u3v426neB01oX7l-12" vertex="1">
          <mxGeometry y="174" width="189" height="20" as="geometry" />
        </mxCell>
        <mxCell id="ST9A_u3v426neB01oX7l-23" value="+ ClearMultipleHoldingRegisters()" style="text;align=left;verticalAlign=top;spacingLeft=4;spacingRight=4;overflow=hidden;rotatable=0;points=[[0,0.5],[1,0.5]];portConstraint=eastwest;rounded=0;shadow=0;html=0;fontSize=9;" parent="ST9A_u3v426neB01oX7l-12" vertex="1">
          <mxGeometry y="194" width="189" height="20" as="geometry" />
        </mxCell>
        <mxCell id="ST9A_u3v426neB01oX7l-24" value="" style="line;html=1;strokeWidth=1;align=left;verticalAlign=middle;spacingTop=-1;spacingLeft=3;spacingRight=3;rotatable=0;labelPosition=right;points=[];portConstraint=eastwest;fontSize=9;" parent="ST9A_u3v426neB01oX7l-12" vertex="1">
          <mxGeometry y="214" width="189" height="8" as="geometry" />
        </mxCell>
        <mxCell id="ST9A_u3v426neB01oX7l-25" value="zzgl. Properties und PropertyHandlers,&#xa;Parameterfunktionen" style="text;align=left;verticalAlign=top;spacingLeft=4;spacingRight=4;overflow=hidden;rotatable=0;points=[[0,0.5],[1,0.5]];portConstraint=eastwest;rounded=0;shadow=0;html=0;fontSize=9;" parent="ST9A_u3v426neB01oX7l-12" vertex="1">
          <mxGeometry y="222" width="189" height="30" as="geometry" />
        </mxCell>
        <mxCell id="ST9A_u3v426neB01oX7l-27" value="0..1" style="text;html=1;align=right;verticalAlign=middle;resizable=0;points=[];autosize=1;strokeColor=none;fillColor=none;fontSize=9;" parent="c7Hz4MkqHKJOATOPHfoP-2" vertex="1">
          <mxGeometry x="41.5" width="40" height="20" as="geometry" />
        </mxCell>
        <mxCell id="ST9A_u3v426neB01oX7l-28" value="mosbusStatus" style="text;html=1;align=right;verticalAlign=middle;resizable=0;points=[];autosize=1;strokeColor=none;fillColor=none;fontSize=9;" parent="c7Hz4MkqHKJOATOPHfoP-2" vertex="1">
          <mxGeometry y="20" width="80" height="20" as="geometry" />
        </mxCell>
        <mxCell id="c7Hz4MkqHKJOATOPHfoP-3" value="" style="group" vertex="1" connectable="0" parent="1">
          <mxGeometry x="-3760" y="293" width="249" height="250" as="geometry" />
        </mxCell>
        <mxCell id="ST9A_u3v426neB01oX7l-47" value="ModbusCommunication" style="swimlane;fontStyle=1;align=center;verticalAlign=top;childLayout=stackLayout;horizontal=1;startSize=26;horizontalStack=0;resizeParent=1;resizeLast=0;collapsible=1;marginBottom=0;rounded=0;shadow=0;strokeWidth=1;fontSize=9;" parent="c7Hz4MkqHKJOATOPHfoP-3" vertex="1">
          <mxGeometry x="60" width="189" height="250" as="geometry">
            <mxRectangle x="130" y="380" width="160" height="26" as="alternateBounds" />
          </mxGeometry>
        </mxCell>
        <mxCell id="ST9A_u3v426neB01oX7l-48" style="edgeStyle=orthogonalEdgeStyle;rounded=0;orthogonalLoop=1;jettySize=auto;html=1;exitX=1;exitY=0.5;exitDx=0;exitDy=0;fontSize=9;" parent="ST9A_u3v426neB01oX7l-47" edge="1">
          <mxGeometry relative="1" as="geometry">
            <mxPoint x="189" y="36" as="sourcePoint" />
            <mxPoint x="189" y="36" as="targetPoint" />
          </mxGeometry>
        </mxCell>
        <mxCell id="ST9A_u3v426neB01oX7l-49" value="- server : ModbusTcpServer" style="text;align=left;verticalAlign=top;spacingLeft=4;spacingRight=4;overflow=hidden;rotatable=0;points=[[0,0.5],[1,0.5]];portConstraint=eastwest;rounded=0;shadow=0;html=0;fontSize=9;" parent="ST9A_u3v426neB01oX7l-47" vertex="1">
          <mxGeometry y="26" width="189" height="20" as="geometry" />
        </mxCell>
        <mxCell id="ST9A_u3v426neB01oX7l-50" value="- status : ModBusStatus" style="text;align=left;verticalAlign=top;spacingLeft=4;spacingRight=4;overflow=hidden;rotatable=0;points=[[0,0.5],[1,0.5]];portConstraint=eastwest;rounded=0;shadow=0;html=0;fontSize=9;" parent="ST9A_u3v426neB01oX7l-47" vertex="1">
          <mxGeometry y="46" width="189" height="20" as="geometry" />
        </mxCell>
        <mxCell id="ST9A_u3v426neB01oX7l-51" value="- commState : CommState" style="text;align=left;verticalAlign=top;spacingLeft=4;spacingRight=4;overflow=hidden;rotatable=0;points=[[0,0.5],[1,0.5]];portConstraint=eastwest;rounded=0;shadow=0;html=0;fontSize=9;" parent="ST9A_u3v426neB01oX7l-47" vertex="1">
          <mxGeometry y="66" width="189" height="20" as="geometry" />
        </mxCell>
        <mxCell id="ST9A_u3v426neB01oX7l-52" value="+ workMaxTries : int = 5" style="text;align=left;verticalAlign=top;spacingLeft=4;spacingRight=4;overflow=hidden;rotatable=0;points=[[0,0.5],[1,0.5]];portConstraint=eastwest;rounded=0;shadow=0;html=0;fontSize=9;" parent="ST9A_u3v426neB01oX7l-47" vertex="1">
          <mxGeometry y="86" width="189" height="20" as="geometry" />
        </mxCell>
        <mxCell id="ST9A_u3v426neB01oX7l-53" value="" style="line;html=1;strokeWidth=1;align=left;verticalAlign=middle;spacingTop=-1;spacingLeft=3;spacingRight=3;rotatable=0;labelPosition=right;points=[];portConstraint=eastwest;fontSize=9;" parent="ST9A_u3v426neB01oX7l-47" vertex="1">
          <mxGeometry y="106" width="189" height="8" as="geometry" />
        </mxCell>
        <mxCell id="ST9A_u3v426neB01oX7l-54" value="+ ModBusCommunication()" style="text;align=left;verticalAlign=top;spacingLeft=4;spacingRight=4;overflow=hidden;rotatable=0;points=[[0,0.5],[1,0.5]];portConstraint=eastwest;rounded=0;shadow=0;html=0;fontSize=9;" parent="ST9A_u3v426neB01oX7l-47" vertex="1">
          <mxGeometry y="114" width="189" height="20" as="geometry" />
        </mxCell>
        <mxCell id="ST9A_u3v426neB01oX7l-55" value="+ SendResponse()" style="text;align=left;verticalAlign=top;spacingLeft=4;spacingRight=4;overflow=hidden;rotatable=0;points=[[0,0.5],[1,0.5]];portConstraint=eastwest;rounded=0;shadow=0;html=0;fontSize=9;" parent="ST9A_u3v426neB01oX7l-47" vertex="1">
          <mxGeometry y="134" width="189" height="20" as="geometry" />
        </mxCell>
        <mxCell id="ST9A_u3v426neB01oX7l-56" value="+ SetLocked()" style="text;align=left;verticalAlign=top;spacingLeft=4;spacingRight=4;overflow=hidden;rotatable=0;points=[[0,0.5],[1,0.5]];portConstraint=eastwest;rounded=0;shadow=0;html=0;fontSize=9;" parent="ST9A_u3v426neB01oX7l-47" vertex="1">
          <mxGeometry y="154" width="189" height="20" as="geometry" />
        </mxCell>
        <mxCell id="ST9A_u3v426neB01oX7l-57" value="+ SetProcessing()" style="text;align=left;verticalAlign=top;spacingLeft=4;spacingRight=4;overflow=hidden;rotatable=0;points=[[0,0.5],[1,0.5]];portConstraint=eastwest;rounded=0;shadow=0;html=0;fontSize=9;" parent="ST9A_u3v426neB01oX7l-47" vertex="1">
          <mxGeometry y="174" width="189" height="20" as="geometry" />
        </mxCell>
        <mxCell id="ST9A_u3v426neB01oX7l-58" value="+ SetStandBy()" style="text;align=left;verticalAlign=top;spacingLeft=4;spacingRight=4;overflow=hidden;rotatable=0;points=[[0,0.5],[1,0.5]];portConstraint=eastwest;rounded=0;shadow=0;html=0;fontSize=9;" parent="ST9A_u3v426neB01oX7l-47" vertex="1">
          <mxGeometry y="194" width="189" height="20" as="geometry" />
        </mxCell>
        <mxCell id="ST9A_u3v426neB01oX7l-59" value="" style="line;html=1;strokeWidth=1;align=left;verticalAlign=middle;spacingTop=-1;spacingLeft=3;spacingRight=3;rotatable=0;labelPosition=right;points=[];portConstraint=eastwest;fontSize=9;" parent="ST9A_u3v426neB01oX7l-47" vertex="1">
          <mxGeometry y="214" width="189" height="8" as="geometry" />
        </mxCell>
        <mxCell id="ST9A_u3v426neB01oX7l-60" value="zzgl. Events, Event Handlers, &#xa;Properties und PropertyHandlers" style="text;align=left;verticalAlign=top;spacingLeft=4;spacingRight=4;overflow=hidden;rotatable=0;points=[[0,0.5],[1,0.5]];portConstraint=eastwest;rounded=0;shadow=0;html=0;fontSize=9;" parent="ST9A_u3v426neB01oX7l-47" vertex="1">
          <mxGeometry y="222" width="189" height="28" as="geometry" />
        </mxCell>
        <mxCell id="ST9A_u3v426neB01oX7l-65" value="0..1" style="text;html=1;align=right;verticalAlign=middle;resizable=0;points=[];autosize=1;strokeColor=none;fillColor=none;fontSize=12;" parent="c7Hz4MkqHKJOATOPHfoP-3" vertex="1">
          <mxGeometry x="20" y="60" width="40" height="30" as="geometry" />
        </mxCell>
        <mxCell id="ST9A_u3v426neB01oX7l-66" value="status" style="text;html=1;align=right;verticalAlign=middle;resizable=0;points=[];autosize=1;strokeColor=none;fillColor=none;fontSize=12;" parent="c7Hz4MkqHKJOATOPHfoP-3" vertex="1">
          <mxGeometry y="90" width="60" height="30" as="geometry" />
        </mxCell>
      </root>
    </mxGraphModel>
  </diagram>
</mxfile>
